<svg xmlns="http://www.w3.org/2000/svg" viewBox="0 0 239 190" fill="none">
  <path d="M 36 184 L 36 186 L 39 188 L 38 189 L 56 189 L 56 182 L 57 180 L 56 179 L 47 179 L 46 178 L 41 177 L 38 183 Z M 53 182 L 54 183 L 54 185 L 53 186 L 52 185 L 52 183 Z M 48 182 L 49 183 L 49 185 L 48 186 L 47 185 L 47 183 Z M 13 189 L 20 189 L 23 187 L 23 184 L 25 182 L 28 184 L 28 189 L 30 189 L 30 183 L 31 182 L 34 182 L 34 180 L 33 179 L 31 180 L 21 180 L 19 177 L 17 177 L 17 180 L 15 182 L 13 182 L 13 183 L 14 184 L 16 184 L 17 186 Z M 25 88 L 23 88 L 18 96 L 13 101 L 13 103 L 14 103 L 21 96 Z M 121 87 L 117 87 L 115 89 L 115 92 L 119 92 L 121 90 Z M 76 87 L 76 91 L 78 92 L 81 92 L 82 91 L 82 88 L 81 87 Z M 102 73 L 99 72 L 97 74 L 97 76 L 101 76 L 102 75 Z M 116 59 L 118 62 L 122 62 L 122 59 L 121 58 L 117 58 Z M 79 62 L 83 62 L 85 60 L 85 58 L 80 58 L 79 59 Z M 149 25 L 155 35 L 156 35 L 156 33 L 151 25 Z M 9 15 L 5 22 L 5 24 L 3 28 L 3 46 L 6 52 L 6 56 L 7 57 L 7 77 L 6 78 L 6 81 L 4 85 L 3 93 L 2 94 L 2 111 L 3 112 L 3 120 L 4 121 L 4 126 L 5 127 L 5 132 L 6 133 L 6 135 L 11 143 L 16 148 L 31 156 L 48 156 L 49 155 L 54 155 L 55 154 L 63 153 L 64 152 L 72 150 L 75 148 L 80 148 L 81 147 L 97 147 L 98 148 L 101 148 L 102 147 L 109 147 L 110 148 L 116 148 L 117 149 L 129 149 L 130 150 L 135 150 L 141 154 L 146 154 L 148 152 L 151 152 L 152 153 L 161 153 L 162 154 L 174 154 L 175 153 L 180 153 L 181 152 L 194 151 L 200 148 L 202 148 L 209 144 L 212 144 L 225 162 L 231 168 L 238 171 L 238 168 L 233 166 L 224 157 L 200 124 L 201 122 L 204 126 L 206 127 L 216 137 L 219 138 L 225 143 L 227 143 L 231 145 L 238 150 L 238 145 L 228 140 L 220 134 L 220 132 L 223 126 L 223 118 L 224 117 L 222 107 L 206 75 L 206 73 L 205 72 L 205 67 L 201 59 L 191 49 L 187 47 L 184 44 L 181 38 L 181 34 L 180 33 L 179 27 L 176 21 L 171 15 L 168 14 L 162 9 L 151 5 L 146 5 L 145 6 L 125 5 L 124 6 L 119 6 L 113 9 L 111 9 L 101 13 L 98 13 L 93 15 L 89 15 L 88 16 L 69 16 L 68 15 L 65 15 L 60 10 L 49 4 L 44 4 L 43 3 L 38 3 L 37 2 L 30 2 L 29 3 L 22 4 L 16 7 L 16 8 Z M 134 146 L 135 145 L 143 145 L 145 147 L 144 148 L 139 148 Z M 55 145 L 56 146 L 56 148 L 54 150 L 51 147 Z M 35 146 L 37 145 L 38 146 L 38 148 L 37 149 Z M 153 146 L 155 144 L 164 144 L 166 146 L 165 147 L 162 147 L 161 146 L 154 147 Z M 61 144 L 62 143 L 65 143 L 66 144 L 66 146 L 65 147 L 63 147 Z M 104 142 L 105 141 L 108 141 L 109 143 L 108 144 Z M 94 142 L 95 141 L 99 141 L 100 142 L 99 143 L 95 143 Z M 15 138 L 17 137 L 23 141 L 22 142 L 17 141 Z M 9 129 L 12 131 L 12 133 L 13 134 L 13 137 L 12 138 L 8 132 L 8 130 Z M 82 127 L 87 123 L 91 125 L 100 125 L 103 123 L 105 123 L 109 127 L 109 128 L 108 129 L 105 128 L 105 129 L 99 134 L 92 134 L 90 133 L 86 128 L 83 129 Z M 96 117 L 100 120 L 100 122 L 98 124 L 95 124 L 92 121 Z M 7 114 L 8 115 L 8 119 L 7 120 L 6 119 L 6 115 Z M 123 115 L 125 113 L 129 113 L 131 115 L 131 117 L 129 119 L 126 119 Z M 62 117 L 62 115 L 64 113 L 69 113 L 70 114 L 70 116 L 67 119 L 64 119 Z M 108 106 L 112 101 L 114 101 L 119 105 L 122 104 L 123 102 L 125 101 L 131 105 L 131 108 L 129 110 L 124 112 L 123 111 L 121 111 L 119 109 L 117 109 L 115 111 L 112 112 L 109 110 Z M 63 105 L 69 101 L 71 101 L 73 104 L 77 104 L 81 101 L 83 101 L 86 105 L 86 109 L 82 112 L 79 111 L 77 109 L 73 111 L 67 111 L 64 109 Z M 117 100 L 118 99 L 120 99 L 122 101 L 119 103 Z M 44 109 L 48 103 L 47 101 L 49 99 L 53 101 L 59 101 L 62 104 L 62 109 L 63 110 L 63 112 L 60 115 L 60 119 L 65 121 L 66 120 L 68 120 L 71 117 L 72 114 L 76 111 L 79 113 L 84 113 L 88 108 L 88 105 L 87 104 L 87 102 L 88 101 L 94 107 L 94 109 L 95 110 L 95 115 L 89 120 L 85 117 L 85 122 L 82 125 L 76 125 L 73 123 L 73 126 L 71 128 L 69 128 L 67 126 L 65 126 L 64 127 L 58 127 L 55 124 L 54 121 L 51 120 L 48 117 L 50 115 L 57 114 L 58 112 L 56 112 L 52 114 L 48 114 L 44 111 Z M 73 100 L 76 98 L 78 99 L 79 101 L 77 103 L 75 103 Z M 125 97 L 127 95 L 129 95 L 131 96 L 134 100 L 130 102 L 128 101 Z M 62 100 L 62 98 L 66 95 L 69 95 L 70 96 L 70 98 L 67 101 L 63 101 Z M 148 96 L 150 94 L 152 94 L 154 95 L 156 98 L 154 100 L 151 100 L 148 98 Z M 40 98 L 40 96 L 43 94 L 46 94 L 48 96 L 46 99 L 44 99 L 43 100 Z M 132 88 L 136 91 L 134 93 L 130 91 Z M 61 91 L 63 88 L 65 88 L 67 90 L 65 92 L 62 92 Z M 137 83 L 144 83 L 147 86 L 143 89 L 146 93 L 146 96 L 143 99 L 141 99 L 140 100 L 137 99 L 134 96 L 137 92 L 137 89 L 133 86 Z M 53 83 L 60 83 L 64 85 L 64 86 L 60 89 L 60 93 L 62 96 L 59 99 L 53 99 L 50 96 L 50 93 L 51 91 L 53 90 L 51 87 L 51 85 Z M 87 87 L 88 85 L 93 81 L 96 83 L 96 85 L 97 86 L 101 86 L 102 83 L 105 81 L 110 86 L 110 90 L 108 92 L 103 91 L 100 95 L 97 95 L 94 93 L 94 91 L 89 92 L 87 90 Z M 166 93 L 164 96 L 165 98 L 165 102 L 162 105 L 159 105 L 155 110 L 153 111 L 151 109 L 150 105 L 147 103 L 147 105 L 149 107 L 149 112 L 147 114 L 141 114 L 140 113 L 135 112 L 136 114 L 141 115 L 145 117 L 142 120 L 138 121 L 137 124 L 134 127 L 127 127 L 125 126 L 123 128 L 120 128 L 118 126 L 119 123 L 114 126 L 112 126 L 107 122 L 108 118 L 103 120 L 100 118 L 98 115 L 98 112 L 101 106 L 105 102 L 108 101 L 109 102 L 107 105 L 107 110 L 108 112 L 110 113 L 119 112 L 121 114 L 121 116 L 124 120 L 129 121 L 133 118 L 133 114 L 131 112 L 131 110 L 133 107 L 133 104 L 136 101 L 143 101 L 146 99 L 150 102 L 155 101 L 157 99 L 157 96 L 154 93 L 149 93 L 146 90 L 148 87 L 148 84 L 144 81 L 135 82 L 134 81 L 138 78 L 140 78 L 141 77 L 144 77 L 145 76 L 151 76 L 152 77 L 154 77 L 156 79 L 156 81 L 154 82 L 154 83 L 160 83 L 163 86 L 163 88 L 160 92 L 164 91 Z M 135 77 L 135 78 L 131 81 L 128 85 L 126 91 L 123 94 L 118 96 L 111 97 L 105 100 L 101 104 L 99 103 L 100 102 L 100 97 L 104 94 L 108 94 L 111 91 L 111 89 L 112 88 L 111 85 L 112 84 L 121 84 L 124 82 L 124 80 L 127 77 L 133 77 L 134 76 Z M 65 78 L 68 76 L 70 76 L 74 79 L 74 82 L 76 84 L 86 84 L 87 85 L 86 86 L 86 92 L 88 94 L 92 94 L 95 97 L 95 102 L 94 103 L 86 97 L 79 96 L 74 94 L 70 89 L 69 83 Z M 62 79 L 63 80 L 62 82 L 61 81 L 54 81 L 53 82 L 51 82 L 49 85 L 50 90 L 48 92 L 44 92 L 43 93 L 41 93 L 39 95 L 38 99 L 40 101 L 42 101 L 43 102 L 45 101 L 46 102 L 43 109 L 42 110 L 39 110 L 37 108 L 37 106 L 36 105 L 34 105 L 32 103 L 32 94 L 31 93 L 31 91 L 32 90 L 36 91 L 34 88 L 34 85 L 38 82 L 44 83 L 42 79 L 45 76 L 55 76 Z M 154 74 L 157 72 L 159 72 L 161 75 L 158 78 L 156 77 Z M 38 73 L 40 71 L 42 71 L 45 75 L 42 77 L 40 77 L 38 75 Z M 91 75 L 92 74 L 92 72 L 95 70 L 96 68 L 103 68 L 108 72 L 108 76 L 103 81 L 96 81 L 91 76 Z M 179 67 L 183 72 L 183 75 L 182 76 L 178 69 Z M 111 68 L 116 66 L 120 66 L 123 68 L 122 71 L 123 71 L 126 75 L 123 78 L 121 78 L 122 81 L 120 83 L 112 82 L 109 79 L 109 78 L 111 77 L 110 75 L 111 73 L 113 73 L 114 75 L 115 75 L 115 73 L 110 72 L 109 71 Z M 79 66 L 85 66 L 91 70 L 90 72 L 86 72 L 86 73 L 84 74 L 84 76 L 86 76 L 85 74 L 86 73 L 88 73 L 89 74 L 90 79 L 88 81 L 83 82 L 82 83 L 79 83 L 76 81 L 77 78 L 75 77 L 73 74 L 76 71 L 78 71 L 77 68 Z M 164 65 L 165 65 L 166 66 L 166 68 L 167 69 L 169 69 L 173 74 L 173 77 L 170 80 L 166 81 L 167 83 L 166 85 L 165 85 L 160 80 L 162 78 L 162 71 L 160 69 Z M 35 64 L 39 68 L 36 74 L 36 77 L 38 80 L 32 84 L 31 83 L 31 80 L 29 80 L 26 77 L 26 72 L 29 69 L 33 68 Z M 168 58 L 172 62 L 180 78 L 183 82 L 183 85 L 182 86 L 182 92 L 183 93 L 178 95 L 178 98 L 192 117 L 197 122 L 200 127 L 196 131 L 190 132 L 188 133 L 188 134 L 196 133 L 201 130 L 202 130 L 204 133 L 194 138 L 189 138 L 185 140 L 180 140 L 177 142 L 170 142 L 169 143 L 168 142 L 164 142 L 163 141 L 157 141 L 156 142 L 136 141 L 135 140 L 130 140 L 129 139 L 124 139 L 123 138 L 121 138 L 120 139 L 115 139 L 107 135 L 105 135 L 104 133 L 106 131 L 110 130 L 113 127 L 115 127 L 121 130 L 125 128 L 127 129 L 133 129 L 134 128 L 136 128 L 141 122 L 144 121 L 146 119 L 147 116 L 152 112 L 155 112 L 160 107 L 165 105 L 167 102 L 167 91 L 165 89 L 165 87 L 167 86 L 174 78 L 174 71 L 171 69 L 165 62 L 166 59 Z M 131 59 L 133 57 L 135 57 L 136 58 L 136 60 L 135 61 L 133 61 Z M 65 58 L 66 57 L 69 57 L 70 59 L 67 61 Z M 89 61 L 92 57 L 96 58 L 99 55 L 103 55 L 105 58 L 109 57 L 112 60 L 111 64 L 106 68 L 103 66 L 103 64 L 102 63 L 99 63 L 95 68 L 90 64 L 90 62 Z M 148 53 L 150 51 L 154 51 L 155 52 L 155 54 L 153 56 L 150 56 Z M 138 51 L 143 51 L 147 56 L 144 60 L 147 64 L 145 66 L 137 66 L 134 64 L 134 63 L 138 60 L 138 57 L 135 55 Z M 63 50 L 65 51 L 67 54 L 67 55 L 64 57 L 64 61 L 66 61 L 67 63 L 65 65 L 63 65 L 62 66 L 57 66 L 54 64 L 54 62 L 57 60 L 55 57 L 55 54 L 57 52 L 61 50 Z M 47 51 L 48 50 L 51 50 L 54 52 L 54 54 L 53 55 L 48 55 L 47 54 Z M 135 51 L 135 52 L 131 55 L 128 55 L 127 54 L 127 52 L 129 50 L 133 49 Z M 68 50 L 69 49 L 72 49 L 75 53 L 73 55 L 72 54 L 70 54 L 68 52 Z M 119 49 L 120 48 L 123 48 L 124 50 L 121 52 Z M 104 49 L 106 48 L 109 51 L 115 54 L 120 54 L 124 56 L 127 59 L 130 67 L 136 72 L 135 73 L 130 73 L 129 72 L 127 72 L 125 70 L 124 66 L 122 65 L 113 65 L 112 64 L 113 63 L 113 58 L 111 56 L 107 56 L 104 53 Z M 79 49 L 80 48 L 82 48 L 84 50 L 83 51 L 80 51 Z M 9 48 L 13 52 L 13 54 L 10 58 L 8 53 L 8 49 Z M 100 48 L 99 53 L 95 56 L 91 56 L 88 60 L 88 64 L 87 65 L 83 65 L 82 64 L 78 65 L 72 72 L 66 72 L 65 71 L 72 64 L 73 60 L 78 55 L 81 55 L 82 54 L 92 52 L 98 47 Z M 41 46 L 46 46 L 48 48 L 46 50 L 45 54 L 48 57 L 53 57 L 54 58 L 54 60 L 52 63 L 52 65 L 54 67 L 63 67 L 64 68 L 61 71 L 55 72 L 54 73 L 48 73 L 44 70 L 44 68 L 46 67 L 46 66 L 40 66 L 38 64 L 38 61 L 41 59 L 41 58 L 39 58 L 38 59 L 36 56 L 38 54 L 38 49 Z M 112 43 L 114 41 L 118 41 L 119 42 L 129 41 L 132 43 L 133 46 L 127 50 L 124 47 L 120 47 L 119 49 L 116 50 L 112 46 Z M 50 41 L 52 42 L 52 44 L 53 45 L 52 47 L 48 44 Z M 92 44 L 90 48 L 87 50 L 83 47 L 79 47 L 77 49 L 75 49 L 70 45 L 71 43 L 74 41 L 81 41 L 82 42 L 84 42 L 88 40 L 90 41 Z M 54 44 L 54 41 L 57 38 L 61 38 L 65 40 L 64 42 L 61 43 L 57 46 Z M 126 38 L 128 35 L 132 35 L 134 37 L 131 40 L 129 40 Z M 71 36 L 73 34 L 75 34 L 78 36 L 78 38 L 77 39 L 73 39 Z M 99 33 L 101 31 L 104 31 L 106 33 L 103 36 Z M 104 37 L 106 35 L 108 35 L 109 34 L 113 36 L 113 34 L 112 33 L 115 30 L 120 30 L 121 31 L 123 31 L 123 29 L 124 28 L 127 28 L 128 29 L 135 28 L 137 29 L 140 33 L 143 34 L 145 36 L 144 38 L 140 38 L 138 39 L 138 40 L 140 40 L 141 39 L 147 39 L 150 42 L 149 46 L 151 45 L 151 43 L 152 42 L 154 42 L 158 46 L 163 48 L 165 58 L 163 60 L 162 59 L 160 59 L 160 60 L 163 62 L 163 64 L 160 67 L 154 66 L 154 68 L 155 68 L 156 70 L 153 73 L 150 73 L 149 74 L 148 73 L 141 72 L 135 68 L 136 67 L 138 68 L 144 68 L 148 65 L 148 61 L 147 59 L 149 57 L 154 57 L 157 54 L 156 50 L 151 49 L 150 50 L 145 51 L 144 50 L 139 50 L 138 49 L 136 49 L 134 46 L 134 43 L 133 42 L 133 40 L 135 38 L 135 35 L 132 33 L 127 34 L 125 36 L 125 38 L 121 41 L 117 39 L 113 40 L 111 42 L 111 48 L 110 49 L 108 48 L 104 42 Z M 59 36 L 62 33 L 65 33 L 65 32 L 69 28 L 75 28 L 76 29 L 78 28 L 82 28 L 83 29 L 83 31 L 87 29 L 91 30 L 93 32 L 93 35 L 97 34 L 101 38 L 101 40 L 99 44 L 94 49 L 93 49 L 92 48 L 93 46 L 93 42 L 92 40 L 90 39 L 82 40 L 80 38 L 79 34 L 77 33 L 72 33 L 70 35 L 70 39 L 71 41 L 69 44 L 69 46 L 66 49 L 61 49 L 60 48 L 67 41 L 67 39 Z M 36 25 L 37 26 L 37 31 L 31 39 L 29 36 L 30 32 L 33 27 Z M 92 28 L 93 27 L 95 27 L 100 23 L 106 23 L 111 27 L 114 27 L 115 28 L 111 31 L 109 31 L 108 30 L 98 30 L 97 31 L 95 31 Z M 41 19 L 43 21 L 43 26 L 40 28 L 38 25 L 36 24 L 36 23 L 40 19 Z M 22 8 L 23 9 L 16 17 L 12 25 L 12 34 L 16 36 L 13 39 L 10 38 L 8 41 L 8 44 L 7 45 L 5 42 L 5 33 L 6 32 L 6 27 L 7 26 L 7 24 L 10 18 L 18 10 Z M 16 21 L 24 11 L 24 8 L 27 6 L 40 6 L 41 7 L 48 7 L 49 8 L 54 9 L 67 19 L 67 20 L 64 22 L 52 22 L 51 23 L 46 24 L 44 22 L 44 19 L 49 17 L 49 16 L 48 15 L 42 15 L 34 22 L 27 34 L 27 38 L 26 40 L 22 44 L 22 48 L 23 48 L 24 44 L 28 40 L 30 41 L 30 44 L 27 49 L 27 53 L 26 54 L 26 58 L 25 59 L 23 57 L 23 52 L 22 52 L 23 61 L 26 61 L 27 60 L 29 49 L 34 38 L 38 33 L 48 26 L 51 26 L 52 25 L 66 25 L 70 23 L 73 23 L 77 20 L 79 20 L 80 19 L 89 19 L 90 18 L 95 18 L 100 16 L 102 16 L 104 18 L 120 18 L 125 16 L 139 16 L 143 19 L 144 21 L 144 28 L 146 28 L 146 21 L 145 20 L 145 18 L 141 14 L 139 14 L 138 13 L 124 13 L 123 14 L 120 14 L 115 16 L 110 16 L 109 15 L 111 13 L 113 13 L 116 11 L 118 11 L 119 10 L 124 10 L 125 9 L 131 9 L 132 10 L 146 10 L 147 9 L 151 9 L 152 10 L 160 12 L 163 15 L 169 18 L 173 22 L 176 27 L 176 29 L 178 33 L 179 41 L 181 45 L 186 51 L 189 52 L 194 56 L 202 67 L 204 78 L 210 88 L 213 99 L 218 108 L 218 110 L 220 114 L 220 119 L 219 121 L 217 122 L 213 117 L 213 109 L 212 109 L 212 120 L 216 125 L 215 126 L 215 128 L 216 129 L 214 130 L 213 128 L 212 128 L 203 119 L 203 116 L 204 115 L 204 112 L 206 107 L 206 91 L 205 90 L 204 84 L 201 79 L 201 77 L 197 69 L 195 67 L 192 60 L 191 59 L 189 59 L 194 69 L 194 71 L 201 84 L 201 86 L 203 90 L 203 94 L 204 95 L 203 108 L 200 116 L 197 114 L 197 113 L 187 102 L 188 100 L 190 101 L 194 101 L 194 100 L 191 99 L 185 93 L 185 86 L 186 85 L 195 95 L 200 96 L 201 94 L 199 94 L 195 92 L 186 82 L 185 80 L 185 72 L 183 68 L 178 62 L 175 62 L 167 52 L 163 43 L 163 37 L 162 36 L 161 30 L 158 24 L 155 21 L 153 21 L 153 22 L 159 31 L 160 37 L 162 41 L 162 44 L 161 45 L 160 45 L 156 41 L 150 39 L 145 33 L 143 33 L 139 28 L 137 28 L 136 27 L 123 27 L 122 28 L 119 28 L 116 26 L 113 26 L 108 22 L 100 22 L 95 25 L 92 25 L 88 28 L 86 28 L 83 26 L 80 26 L 79 27 L 76 27 L 75 26 L 68 27 L 64 31 L 59 33 L 55 38 L 45 41 L 45 43 L 44 44 L 38 46 L 37 44 L 39 41 L 42 39 L 42 38 L 40 38 L 37 40 L 32 49 L 31 55 L 30 56 L 30 60 L 31 60 L 32 54 L 35 48 L 36 49 L 36 54 L 34 58 L 36 61 L 33 63 L 24 73 L 24 78 L 29 83 L 29 85 L 30 85 L 32 88 L 28 93 L 29 95 L 28 97 L 28 101 L 22 108 L 18 116 L 18 123 L 19 124 L 19 126 L 22 129 L 24 129 L 24 128 L 23 128 L 20 124 L 20 117 L 24 109 L 28 105 L 29 105 L 30 106 L 30 114 L 31 115 L 31 119 L 34 123 L 38 125 L 44 125 L 44 124 L 37 122 L 33 118 L 33 108 L 34 107 L 37 111 L 41 112 L 45 115 L 47 120 L 51 122 L 55 128 L 57 129 L 64 129 L 65 128 L 67 129 L 73 129 L 76 127 L 78 127 L 80 130 L 85 131 L 88 134 L 86 136 L 78 136 L 77 137 L 66 138 L 62 140 L 58 140 L 52 143 L 48 143 L 47 144 L 45 143 L 35 142 L 27 138 L 24 138 L 20 136 L 14 129 L 14 127 L 10 117 L 10 109 L 9 108 L 9 85 L 10 84 L 10 81 L 12 76 L 12 72 L 13 71 L 13 61 L 12 59 L 15 53 L 14 50 L 10 46 L 10 43 L 19 37 L 22 33 L 22 30 L 20 30 L 19 31 L 15 31 L 14 30 L 14 25 Z" fill="currentColor" fill-rule="evenodd" clip-rule="evenodd"/>
</svg>