<svg xmlns="http://www.w3.org/2000/svg" viewBox="0 0 124 166" fill="none">
  <path d="M 101 92 L 97 97 L 96 104 L 98 106 L 105 106 L 110 102 L 111 97 L 105 92 Z M 110 98 L 103 104 L 99 104 L 98 103 L 98 99 L 102 93 L 106 96 L 108 96 Z M 58 2 L 46 2 L 20 28 L 19 28 L 4 44 L 2 45 L 3 60 L 4 61 L 4 66 L 5 67 L 6 77 L 7 78 L 7 83 L 8 84 L 8 91 L 9 92 L 9 96 L 10 97 L 10 102 L 11 104 L 14 104 L 46 72 L 48 72 L 50 74 L 50 76 L 48 78 L 44 86 L 44 90 L 43 91 L 43 95 L 42 96 L 42 112 L 44 117 L 45 127 L 47 131 L 48 142 L 47 143 L 46 152 L 41 161 L 41 163 L 42 163 L 49 149 L 49 146 L 50 145 L 50 135 L 49 134 L 49 130 L 48 129 L 48 125 L 47 124 L 47 120 L 46 119 L 46 115 L 45 114 L 45 110 L 44 109 L 44 94 L 45 93 L 45 89 L 48 84 L 49 80 L 53 74 L 60 67 L 60 66 L 59 66 L 53 72 L 52 72 L 45 66 L 45 64 L 53 55 L 56 50 L 61 45 L 62 45 L 63 47 L 67 50 L 70 51 L 74 54 L 73 56 L 69 57 L 66 59 L 64 62 L 71 58 L 75 58 L 76 57 L 80 57 L 81 56 L 86 56 L 87 57 L 87 59 L 85 60 L 85 67 L 86 68 L 86 70 L 90 73 L 94 73 L 98 71 L 100 67 L 100 63 L 96 57 L 97 56 L 99 56 L 102 59 L 102 61 L 103 62 L 103 69 L 99 74 L 91 78 L 86 78 L 85 79 L 79 78 L 77 79 L 74 82 L 72 86 L 71 93 L 73 93 L 74 86 L 78 81 L 80 80 L 92 80 L 93 79 L 95 79 L 97 77 L 102 75 L 104 72 L 106 67 L 104 58 L 99 54 L 94 54 L 93 53 L 96 49 L 108 43 L 114 43 L 115 44 L 117 44 L 121 48 L 121 55 L 117 63 L 100 83 L 92 95 L 90 95 L 89 94 L 91 92 L 91 89 L 88 86 L 84 86 L 83 88 L 83 92 L 82 93 L 80 90 L 80 88 L 81 87 L 81 83 L 80 83 L 79 84 L 79 94 L 78 95 L 77 94 L 75 94 L 77 97 L 76 98 L 74 97 L 66 97 L 65 96 L 63 96 L 60 98 L 59 100 L 61 99 L 73 99 L 80 102 L 83 106 L 84 112 L 85 113 L 85 117 L 86 117 L 86 108 L 88 107 L 90 110 L 123 142 L 123 137 L 99 114 L 100 113 L 107 112 L 109 114 L 108 118 L 111 122 L 116 124 L 123 123 L 123 120 L 122 121 L 117 122 L 116 121 L 114 121 L 110 117 L 110 114 L 113 108 L 114 109 L 114 114 L 116 117 L 118 118 L 122 118 L 123 117 L 123 114 L 121 116 L 118 116 L 115 112 L 118 108 L 123 108 L 123 106 L 117 106 L 116 107 L 115 106 L 115 104 L 123 94 L 123 90 L 118 96 L 115 102 L 109 109 L 107 109 L 103 111 L 100 111 L 99 110 L 97 110 L 94 107 L 94 105 L 93 104 L 94 102 L 94 96 L 96 92 L 107 79 L 107 78 L 117 68 L 121 62 L 121 60 L 123 58 L 123 47 L 122 45 L 118 42 L 116 42 L 115 41 L 109 41 L 108 42 L 102 43 L 100 45 L 97 46 L 88 54 L 79 54 L 75 51 L 72 50 L 70 48 L 70 46 L 72 45 L 80 36 L 79 27 L 78 26 L 78 20 L 74 17 L 70 16 L 59 5 Z M 85 100 L 86 99 L 91 98 L 92 99 L 92 104 L 90 105 Z M 89 94 L 90 95 L 87 97 L 86 96 Z M 85 89 L 87 88 L 89 91 L 88 92 L 86 92 L 85 91 Z M 86 60 L 87 59 L 94 59 L 98 63 L 98 66 L 93 71 L 90 71 L 87 68 L 87 66 L 86 65 Z M 66 39 L 68 40 L 68 44 L 67 45 L 65 43 L 65 40 Z M 66 18 L 67 17 L 69 17 L 72 19 L 71 20 L 68 20 Z M 61 14 L 62 13 L 65 15 L 64 16 L 62 16 Z M 49 3 L 51 6 L 51 9 L 54 14 L 59 19 L 66 23 L 71 24 L 72 26 L 65 33 L 61 39 L 51 50 L 48 55 L 34 71 L 23 88 L 14 99 L 12 94 L 12 89 L 11 88 L 11 83 L 10 82 L 10 74 L 9 73 L 9 68 L 8 67 L 8 63 L 7 62 L 7 57 L 6 56 L 5 48 L 10 43 L 10 42 L 13 40 L 16 36 Z" fill="currentColor" fill-rule="evenodd" clip-rule="evenodd"/>
</svg>