<svg xmlns="http://www.w3.org/2000/svg" viewBox="0 0 180 187" fill="none">
  <path d="M 60 4 L 59 5 L 54 6 L 51 8 L 46 9 L 30 19 L 21 28 L 10 45 L 6 49 L 2 51 L 0 51 L 0 53 L 2 53 L 3 54 L 5 54 L 9 52 L 14 48 L 20 38 L 21 39 L 19 47 L 14 55 L 9 60 L 5 62 L 0 61 L 0 72 L 3 73 L 7 77 L 7 85 L 4 88 L 5 93 L 4 94 L 2 92 L 0 92 L 0 103 L 3 103 L 4 104 L 4 110 L 3 111 L 3 126 L 4 127 L 4 132 L 5 133 L 5 135 L 4 136 L 1 132 L 0 132 L 0 144 L 2 144 L 3 146 L 4 146 L 11 153 L 12 153 L 15 158 L 25 168 L 32 172 L 34 172 L 38 174 L 42 174 L 43 175 L 49 174 L 50 175 L 50 177 L 53 181 L 60 186 L 68 186 L 69 185 L 73 185 L 74 186 L 91 186 L 92 185 L 96 185 L 97 184 L 100 184 L 106 181 L 108 181 L 114 177 L 116 177 L 123 173 L 125 174 L 113 182 L 111 182 L 108 184 L 106 184 L 102 186 L 99 186 L 109 186 L 121 180 L 124 177 L 132 172 L 142 163 L 146 161 L 160 146 L 165 135 L 165 133 L 169 123 L 170 114 L 171 113 L 171 107 L 172 106 L 172 96 L 173 95 L 174 88 L 177 85 L 177 82 L 176 81 L 171 80 L 163 85 L 157 73 L 159 71 L 161 73 L 167 73 L 169 72 L 173 67 L 173 58 L 172 56 L 167 52 L 165 52 L 164 51 L 158 51 L 157 52 L 155 52 L 153 50 L 150 43 L 142 32 L 130 21 L 115 12 L 113 12 L 105 8 L 98 7 L 87 3 L 78 3 L 77 2 L 74 2 L 73 3 Z M 65 185 L 66 184 L 68 184 L 69 185 L 68 186 L 66 186 Z M 88 176 L 89 175 L 91 175 L 92 176 L 91 177 L 89 177 Z M 40 171 L 41 170 L 43 170 L 44 171 L 43 172 L 41 172 Z M 36 170 L 37 169 L 40 169 L 41 170 L 40 171 L 37 171 Z M 62 167 L 64 171 L 63 172 L 59 168 L 57 168 L 54 171 L 54 174 L 55 175 L 54 177 L 52 175 L 52 170 L 56 166 L 60 166 Z M 30 167 L 32 166 L 35 168 L 34 169 L 32 169 Z M 146 154 L 147 156 L 143 159 L 142 158 Z M 75 150 L 72 154 L 70 154 L 69 155 L 60 156 L 55 154 L 56 152 L 58 152 L 62 150 L 71 150 L 72 149 L 74 149 Z M 103 138 L 108 138 L 112 141 L 112 147 L 109 153 L 108 152 L 107 145 L 102 139 Z M 157 137 L 158 138 L 158 140 L 155 146 L 147 155 L 146 153 Z M 159 132 L 160 133 L 160 135 L 158 138 L 157 137 L 157 135 Z M 44 132 L 45 131 L 50 131 L 52 133 L 51 134 L 48 134 Z M 160 129 L 161 130 L 161 132 L 160 133 L 159 132 L 159 130 Z M 111 135 L 110 136 L 102 136 L 97 140 L 98 142 L 100 142 L 104 145 L 106 150 L 105 151 L 105 155 L 104 157 L 100 161 L 98 161 L 96 158 L 94 157 L 90 157 L 84 153 L 81 153 L 79 151 L 79 148 L 78 147 L 71 147 L 70 146 L 75 140 L 79 138 L 83 134 L 88 139 L 93 139 L 95 138 L 97 135 L 96 129 L 100 127 L 105 128 Z M 157 124 L 158 125 L 158 128 L 155 134 L 155 136 L 152 140 L 151 143 L 145 152 L 132 165 L 131 165 L 130 164 L 137 157 L 150 139 Z M 88 124 L 93 120 L 103 120 L 111 125 L 116 131 L 119 137 L 119 140 L 117 143 L 116 147 L 115 148 L 114 147 L 114 135 L 111 129 L 109 127 L 104 125 L 98 125 L 93 128 L 93 130 L 95 134 L 92 137 L 90 137 L 86 132 L 86 128 Z M 106 117 L 108 116 L 112 120 L 110 121 L 107 119 Z M 45 108 L 47 113 L 47 118 L 44 122 L 41 122 L 39 119 L 44 115 L 44 109 Z M 83 130 L 81 134 L 79 136 L 74 138 L 67 146 L 61 149 L 55 150 L 51 152 L 42 152 L 30 146 L 21 137 L 15 127 L 13 115 L 15 113 L 17 116 L 20 117 L 24 114 L 26 116 L 31 126 L 36 131 L 45 136 L 52 136 L 57 134 L 68 123 L 69 121 L 69 119 L 70 118 L 70 112 L 68 110 L 64 109 L 63 107 L 66 105 L 72 105 L 74 106 L 79 112 L 79 118 L 78 119 L 78 121 L 82 124 L 83 126 Z M 36 99 L 39 102 L 39 104 L 41 107 L 42 114 L 41 115 L 39 115 L 35 120 L 32 117 L 32 115 L 33 114 L 32 102 Z M 27 96 L 29 99 L 28 101 L 26 100 L 26 97 Z M 30 92 L 31 91 L 35 92 L 36 93 L 36 96 L 34 98 L 32 98 L 30 96 Z M 7 90 L 7 88 L 9 87 L 10 89 L 8 91 Z M 173 83 L 174 85 L 170 93 L 170 105 L 169 106 L 169 112 L 167 114 L 166 113 L 166 98 L 165 97 L 165 92 L 164 91 L 164 89 L 169 83 Z M 126 83 L 127 84 L 120 92 L 119 91 L 120 86 L 123 83 Z M 42 80 L 43 81 L 41 86 L 41 94 L 42 96 L 47 100 L 53 100 L 57 98 L 58 99 L 58 101 L 56 103 L 54 103 L 53 104 L 46 103 L 40 97 L 38 93 L 38 86 Z M 23 80 L 24 80 L 25 82 L 22 89 L 22 96 L 21 97 L 21 99 L 22 100 L 22 105 L 21 106 L 17 106 L 13 109 L 11 114 L 12 126 L 15 133 L 19 139 L 27 147 L 37 153 L 39 153 L 40 154 L 46 154 L 47 155 L 49 155 L 53 157 L 57 157 L 58 158 L 79 158 L 80 159 L 83 159 L 86 162 L 92 162 L 93 163 L 93 169 L 97 173 L 97 174 L 96 175 L 94 173 L 88 173 L 86 175 L 86 180 L 88 182 L 87 184 L 76 184 L 75 183 L 68 182 L 60 178 L 56 173 L 57 171 L 58 171 L 60 174 L 62 175 L 66 173 L 66 168 L 65 166 L 62 164 L 56 164 L 54 165 L 51 161 L 47 160 L 43 162 L 43 166 L 42 167 L 39 167 L 31 163 L 20 153 L 16 147 L 13 141 L 13 139 L 10 132 L 10 128 L 9 127 L 9 109 L 10 108 L 11 101 L 14 95 L 14 93 L 17 89 L 18 86 Z M 38 79 L 39 80 L 37 83 L 36 88 L 34 89 L 32 85 L 33 83 L 37 79 Z M 131 76 L 137 79 L 137 82 L 138 83 L 139 88 L 141 91 L 141 93 L 144 98 L 144 100 L 147 106 L 147 109 L 148 110 L 148 117 L 147 118 L 143 115 L 139 115 L 132 122 L 130 126 L 130 128 L 128 130 L 127 129 L 127 124 L 126 123 L 125 92 L 127 87 L 129 85 L 132 84 L 133 82 L 128 80 L 126 80 L 125 81 L 123 79 L 126 76 Z M 37 75 L 38 76 L 36 77 L 33 81 L 27 86 L 26 84 L 28 80 L 32 76 Z M 90 73 L 91 74 L 91 79 L 89 81 L 87 81 L 84 84 L 80 84 L 78 82 L 86 79 L 88 76 L 88 74 Z M 26 73 L 27 74 L 17 84 L 16 82 L 20 78 L 20 77 Z M 130 68 L 134 70 L 136 74 L 135 75 L 133 75 L 132 74 L 126 74 L 124 75 L 121 78 L 117 87 L 117 95 L 116 96 L 116 98 L 117 99 L 117 114 L 118 115 L 118 122 L 119 123 L 119 127 L 120 128 L 120 129 L 118 130 L 115 126 L 115 123 L 114 122 L 113 106 L 112 105 L 112 96 L 113 95 L 114 82 L 116 79 L 116 77 L 122 70 L 125 68 Z M 50 69 L 46 73 L 43 73 L 39 71 L 41 69 L 44 69 L 47 67 Z M 13 66 L 14 67 L 14 72 L 15 74 L 11 80 L 9 77 L 9 75 L 6 72 Z M 154 67 L 157 64 L 159 64 L 162 68 L 160 69 L 157 67 L 155 69 Z M 17 65 L 18 64 L 20 64 L 21 65 L 21 67 L 23 68 L 25 71 L 21 74 L 19 74 L 16 70 Z M 141 62 L 143 64 L 143 66 L 144 67 L 145 79 L 146 80 L 146 83 L 148 87 L 148 90 L 149 91 L 149 94 L 151 99 L 151 106 L 150 107 L 139 80 L 139 68 L 140 67 L 140 63 Z M 50 60 L 51 59 L 54 61 L 54 63 L 53 64 Z M 14 60 L 13 63 L 6 69 L 5 68 L 3 68 L 1 66 L 3 64 L 8 63 L 13 59 Z M 165 54 L 169 57 L 171 61 L 171 67 L 170 69 L 167 71 L 164 71 L 163 70 L 164 65 L 163 63 L 161 62 L 156 62 L 151 68 L 152 76 L 159 93 L 159 96 L 157 98 L 157 116 L 155 120 L 154 126 L 147 140 L 140 150 L 135 155 L 134 153 L 139 144 L 140 138 L 141 137 L 141 133 L 142 132 L 142 129 L 140 128 L 139 130 L 139 137 L 138 138 L 138 141 L 136 144 L 135 148 L 133 150 L 130 156 L 120 167 L 113 172 L 106 175 L 105 174 L 118 162 L 126 149 L 128 139 L 126 139 L 125 146 L 117 160 L 108 169 L 105 171 L 103 171 L 102 170 L 102 168 L 107 165 L 115 156 L 118 149 L 118 146 L 120 143 L 120 141 L 122 137 L 126 133 L 129 133 L 131 135 L 133 135 L 133 133 L 132 132 L 132 127 L 136 120 L 140 117 L 143 118 L 146 122 L 145 129 L 148 127 L 152 119 L 153 109 L 154 108 L 154 102 L 153 101 L 152 92 L 151 91 L 150 85 L 147 77 L 147 62 L 153 56 L 159 53 Z M 126 50 L 129 47 L 135 48 L 139 50 L 146 57 L 146 59 L 145 60 L 142 56 L 137 52 L 132 52 L 129 55 L 127 55 L 126 54 Z M 130 42 L 131 41 L 133 41 L 138 45 L 137 46 L 135 46 Z M 111 35 L 112 36 L 108 40 L 107 40 L 106 39 L 109 35 Z M 88 37 L 90 35 L 98 35 L 99 36 L 97 38 L 94 38 L 93 39 L 91 39 Z M 106 33 L 107 34 L 104 38 L 105 47 L 103 49 L 99 46 L 99 40 L 100 38 L 105 33 Z M 124 38 L 125 39 L 123 42 L 123 44 L 126 44 L 127 45 L 124 49 L 124 51 L 123 52 L 124 56 L 126 58 L 129 58 L 133 54 L 135 54 L 138 56 L 140 59 L 138 62 L 138 64 L 136 68 L 132 66 L 125 66 L 120 69 L 115 75 L 112 82 L 112 85 L 111 86 L 111 94 L 110 95 L 110 107 L 111 108 L 111 113 L 109 114 L 107 112 L 103 111 L 102 112 L 102 114 L 103 115 L 102 117 L 96 117 L 95 118 L 93 118 L 88 122 L 85 123 L 81 119 L 82 115 L 79 107 L 74 103 L 68 102 L 63 104 L 60 107 L 60 109 L 61 110 L 61 121 L 59 125 L 54 129 L 47 129 L 42 126 L 45 124 L 49 119 L 49 114 L 50 113 L 53 113 L 54 111 L 53 107 L 55 105 L 58 104 L 61 100 L 60 97 L 58 95 L 56 95 L 52 98 L 48 98 L 43 92 L 43 87 L 44 86 L 47 86 L 49 84 L 49 82 L 50 81 L 54 84 L 58 89 L 61 91 L 65 91 L 65 89 L 62 84 L 62 82 L 63 81 L 65 82 L 69 87 L 70 94 L 72 94 L 74 91 L 74 89 L 76 85 L 78 86 L 84 86 L 88 83 L 91 82 L 94 79 L 94 74 L 91 70 L 89 70 L 88 69 L 86 69 L 83 71 L 82 73 L 84 77 L 81 79 L 75 76 L 76 71 L 75 70 L 75 64 L 74 63 L 74 61 L 72 58 L 62 49 L 62 47 L 61 46 L 61 41 L 62 40 L 62 38 L 66 34 L 71 32 L 73 32 L 80 35 L 84 35 L 86 37 L 86 39 L 89 41 L 93 41 L 95 40 L 96 41 L 96 44 L 98 49 L 101 51 L 103 51 L 107 48 L 109 42 L 113 38 L 115 38 L 116 37 L 121 37 L 122 38 Z M 104 30 L 104 31 L 101 33 L 96 31 L 97 30 L 102 30 L 103 29 Z M 26 29 L 27 31 L 25 33 L 24 31 Z M 64 28 L 66 29 L 67 31 L 64 33 L 60 38 L 60 40 L 59 41 L 59 48 L 61 52 L 71 61 L 72 66 L 73 67 L 73 72 L 71 74 L 69 72 L 69 67 L 68 65 L 62 60 L 61 57 L 60 57 L 59 59 L 63 65 L 64 70 L 67 74 L 66 75 L 64 75 L 63 74 L 60 75 L 58 77 L 58 80 L 55 82 L 54 80 L 50 78 L 48 75 L 50 74 L 52 76 L 54 76 L 56 75 L 57 73 L 56 70 L 53 68 L 56 64 L 56 59 L 53 57 L 50 57 L 49 58 L 48 57 L 49 55 L 49 49 L 53 45 L 53 38 L 55 34 L 60 29 Z M 111 24 L 113 23 L 114 24 L 119 25 L 121 27 L 120 28 L 115 28 L 113 27 Z M 73 17 L 77 20 L 75 24 L 76 27 L 81 30 L 83 30 L 84 31 L 83 33 L 82 32 L 78 32 L 72 28 L 70 24 L 70 20 Z M 69 18 L 68 19 L 68 25 L 67 26 L 62 26 L 58 28 L 52 35 L 52 37 L 51 38 L 51 44 L 48 47 L 47 49 L 47 54 L 45 56 L 44 60 L 42 62 L 41 61 L 39 61 L 33 64 L 31 64 L 29 66 L 26 67 L 23 65 L 23 63 L 21 61 L 19 61 L 18 62 L 17 61 L 21 53 L 21 51 L 24 44 L 24 39 L 26 35 L 31 29 L 32 29 L 35 33 L 34 35 L 35 45 L 38 47 L 41 47 L 44 44 L 46 40 L 46 36 L 49 28 L 56 21 L 67 16 Z M 78 16 L 79 15 L 92 15 L 93 16 L 97 16 L 98 17 L 104 18 L 105 19 L 104 23 L 106 24 L 107 26 L 106 27 L 101 27 L 100 28 L 89 27 L 83 24 L 79 19 Z M 57 9 L 55 11 L 45 15 L 36 21 L 35 23 L 27 30 L 26 29 L 29 24 L 40 15 L 54 8 L 56 8 Z M 36 39 L 37 32 L 40 25 L 49 16 L 52 15 L 56 12 L 61 11 L 64 9 L 74 8 L 75 7 L 88 7 L 89 8 L 95 8 L 96 9 L 103 10 L 108 13 L 113 14 L 121 18 L 128 23 L 132 27 L 133 27 L 141 36 L 139 37 L 134 33 L 127 30 L 126 29 L 126 27 L 124 25 L 118 22 L 116 22 L 108 17 L 106 17 L 99 14 L 95 14 L 94 13 L 73 12 L 72 13 L 66 13 L 65 14 L 57 16 L 50 20 L 43 27 L 41 31 L 41 37 L 43 40 L 43 42 L 40 45 L 37 42 L 37 40 Z" fill="currentColor" fill-rule="evenodd" clip-rule="evenodd"/>
</svg>