<svg xmlns="http://www.w3.org/2000/svg" viewBox="0 0 174 140" fill="none">
  <path d="M 3 14 L 2 16 L 2 106 L 3 107 L 3 123 L 7 128 L 19 133 L 23 133 L 24 134 L 28 134 L 29 135 L 34 135 L 35 136 L 43 136 L 44 137 L 68 137 L 69 136 L 83 135 L 84 134 L 88 134 L 89 133 L 97 131 L 103 127 L 105 124 L 105 106 L 106 105 L 107 105 L 109 108 L 125 123 L 129 125 L 138 125 L 146 122 L 150 118 L 150 117 L 158 111 L 164 104 L 166 104 L 172 100 L 173 98 L 173 94 L 168 100 L 166 100 L 165 99 L 166 95 L 151 75 L 147 71 L 145 67 L 138 59 L 136 55 L 130 48 L 126 49 L 125 48 L 125 46 L 133 37 L 138 37 L 147 47 L 150 52 L 162 65 L 173 80 L 173 75 L 167 67 L 167 65 L 173 61 L 173 58 L 166 63 L 164 63 L 157 55 L 157 53 L 160 50 L 164 43 L 173 31 L 173 28 L 169 32 L 160 46 L 155 52 L 153 51 L 150 46 L 140 35 L 138 34 L 134 34 L 127 39 L 126 42 L 123 46 L 122 50 L 118 54 L 111 59 L 107 60 L 106 59 L 106 17 L 101 11 L 95 8 L 93 8 L 89 6 L 86 6 L 85 5 L 75 4 L 74 3 L 66 3 L 65 2 L 44 2 L 43 3 L 28 4 L 27 5 L 23 5 L 19 7 L 16 7 L 7 11 Z M 92 66 L 95 64 L 98 64 L 99 63 L 108 63 L 111 67 L 110 72 L 113 76 L 120 77 L 121 78 L 126 78 L 130 82 L 130 96 L 132 101 L 136 105 L 145 109 L 148 112 L 148 117 L 143 121 L 141 121 L 140 122 L 131 122 L 124 119 L 110 105 L 100 90 L 93 77 L 93 74 L 92 73 Z M 120 55 L 121 57 L 113 64 L 112 63 L 112 61 Z M 123 52 L 125 52 L 127 54 L 129 58 L 137 67 L 149 84 L 162 100 L 163 102 L 153 112 L 152 112 L 151 110 L 157 105 L 159 102 L 159 100 L 158 100 L 150 108 L 148 108 L 147 106 L 154 99 L 154 97 L 153 97 L 144 105 L 142 105 L 141 104 L 141 102 L 149 95 L 150 91 L 149 91 L 148 93 L 139 101 L 136 101 L 135 100 L 135 98 L 137 97 L 146 88 L 146 87 L 144 87 L 135 95 L 132 93 L 132 92 L 136 89 L 142 82 L 142 81 L 140 81 L 136 86 L 134 87 L 132 86 L 132 84 L 138 77 L 138 75 L 137 75 L 133 79 L 130 77 L 134 72 L 134 70 L 133 70 L 128 75 L 125 75 L 124 74 L 129 68 L 129 66 L 128 66 L 121 73 L 119 74 L 117 73 L 127 63 L 127 61 L 126 61 L 117 70 L 115 71 L 113 70 L 114 66 L 123 58 L 123 55 L 122 54 Z M 7 14 L 18 9 L 26 8 L 27 7 L 31 7 L 32 6 L 39 6 L 40 5 L 69 5 L 70 6 L 76 6 L 77 7 L 86 8 L 90 10 L 89 11 L 86 11 L 85 10 L 81 10 L 80 9 L 71 9 L 70 8 L 38 8 L 37 9 L 23 10 L 15 13 L 12 16 L 12 19 L 18 23 L 24 24 L 25 25 L 29 25 L 30 26 L 38 26 L 39 27 L 68 27 L 69 26 L 77 26 L 78 25 L 88 24 L 94 21 L 96 19 L 96 15 L 89 11 L 90 10 L 92 10 L 99 13 L 103 17 L 104 19 L 104 58 L 101 61 L 96 61 L 91 63 L 89 67 L 90 75 L 91 76 L 90 78 L 88 78 L 82 72 L 81 72 L 71 60 L 63 44 L 64 42 L 64 37 L 62 35 L 58 35 L 56 37 L 56 42 L 61 46 L 62 49 L 64 51 L 64 53 L 66 55 L 68 60 L 72 66 L 82 77 L 90 82 L 92 82 L 94 84 L 95 87 L 103 99 L 103 122 L 98 128 L 96 128 L 93 130 L 82 132 L 81 133 L 73 133 L 72 134 L 40 134 L 39 133 L 32 133 L 31 132 L 27 132 L 26 131 L 22 131 L 21 130 L 16 129 L 8 125 L 5 122 L 5 36 L 4 35 L 4 18 Z" fill="currentColor" fill-rule="evenodd" clip-rule="evenodd"/>
</svg>