<svg xmlns="http://www.w3.org/2000/svg" viewBox="0 0 101 153" fill="none">
  <path d="M 63 17 L 65 24 L 67 24 L 66 22 L 66 18 L 65 17 Z M 59 2 L 57 3 L 53 8 L 46 9 L 38 16 L 30 20 L 28 20 L 24 23 L 20 23 L 18 25 L 12 28 L 9 28 L 5 33 L 5 35 L 2 41 L 2 44 L 5 48 L 5 52 L 8 56 L 9 61 L 11 63 L 14 64 L 15 65 L 15 67 L 17 69 L 21 70 L 22 72 L 34 71 L 35 69 L 40 65 L 42 65 L 43 66 L 46 76 L 48 79 L 51 90 L 56 101 L 58 109 L 60 112 L 63 123 L 65 126 L 68 137 L 70 140 L 70 142 L 74 152 L 95 152 L 98 147 L 98 144 L 87 121 L 87 119 L 84 114 L 84 112 L 76 97 L 76 95 L 73 90 L 73 88 L 67 77 L 65 70 L 58 57 L 60 54 L 62 54 L 68 50 L 72 49 L 76 45 L 79 45 L 80 46 L 83 45 L 86 41 L 86 36 L 87 35 L 86 27 L 83 22 L 83 20 L 80 14 L 77 12 L 71 5 L 65 2 Z M 53 62 L 55 62 L 56 61 L 58 63 L 61 70 L 63 72 L 68 82 L 68 84 L 74 95 L 74 97 L 79 106 L 79 108 L 85 119 L 85 121 L 89 128 L 89 130 L 96 143 L 96 146 L 91 150 L 87 150 L 85 148 L 87 145 L 90 145 L 90 144 L 85 144 L 82 146 L 80 146 L 79 145 L 74 134 L 74 132 L 71 127 L 71 125 L 66 117 L 65 110 L 62 104 L 62 101 L 60 97 L 60 91 L 58 88 L 57 82 L 54 77 L 54 75 L 51 68 L 52 63 Z M 10 52 L 15 59 L 14 61 L 12 61 L 10 59 L 10 56 L 9 55 L 9 53 Z M 8 48 L 10 51 L 9 53 L 7 51 L 7 49 Z M 10 38 L 11 39 L 11 43 L 10 44 L 9 43 L 9 39 Z M 77 30 L 81 33 L 80 35 L 80 39 L 79 40 L 75 38 L 75 35 Z M 55 32 L 58 30 L 59 32 L 61 32 L 63 34 L 63 36 L 62 37 L 61 36 L 59 37 L 57 35 L 57 33 Z M 40 28 L 43 31 L 43 33 L 46 38 L 46 40 L 50 46 L 49 47 L 44 47 L 39 50 L 38 48 L 42 46 L 42 45 L 39 45 L 37 47 L 27 51 L 24 47 L 25 45 L 38 40 L 38 39 L 36 38 L 38 36 L 41 35 L 41 34 L 37 35 L 23 42 L 22 40 L 24 38 L 32 34 L 36 33 L 36 31 L 35 30 L 38 28 Z M 16 27 L 18 27 L 19 28 L 19 39 L 23 49 L 33 60 L 39 63 L 38 65 L 34 67 L 30 66 L 27 64 L 17 53 L 13 44 L 13 32 L 14 31 L 14 29 Z M 72 18 L 73 17 L 77 22 L 75 23 Z M 39 17 L 40 18 L 39 20 L 41 22 L 37 26 L 32 28 L 33 32 L 31 34 L 27 36 L 25 36 L 22 38 L 20 33 L 21 29 L 23 27 L 27 28 L 34 24 L 36 24 L 37 22 L 31 24 L 30 23 L 30 21 L 35 18 Z M 52 13 L 55 15 L 55 22 L 58 26 L 58 28 L 56 30 L 54 30 L 53 29 L 54 26 L 51 24 L 51 22 L 50 21 L 50 15 Z M 46 11 L 48 11 L 49 12 L 49 15 L 48 16 L 48 18 L 49 19 L 49 25 L 53 34 L 59 41 L 69 47 L 68 49 L 65 50 L 63 52 L 59 52 L 56 50 L 52 46 L 47 38 L 47 36 L 45 33 L 45 30 L 44 29 L 43 18 L 42 17 L 43 13 Z M 67 10 L 69 9 L 74 14 L 72 16 L 67 11 Z M 61 3 L 63 3 L 65 5 L 64 7 L 65 13 L 66 15 L 70 18 L 69 19 L 69 21 L 72 26 L 72 28 L 70 30 L 70 32 L 72 36 L 76 39 L 74 41 L 72 41 L 71 40 L 71 38 L 68 38 L 65 35 L 65 33 L 61 30 L 61 28 L 57 22 L 57 13 L 55 10 Z" fill="currentColor" fill-rule="evenodd" clip-rule="evenodd"/>
</svg>