<svg xmlns="http://www.w3.org/2000/svg" viewBox="0 0 152 181" fill="none">
  <path d="M 6 146 L 4 146 L 0 148 L 0 159 L 1 159 L 2 154 Z M 28 129 L 25 131 L 23 135 L 26 133 Z M 122 16 L 120 17 L 120 25 L 119 26 L 118 31 L 116 33 L 116 36 L 127 31 L 135 31 L 135 29 L 128 29 L 124 31 L 123 30 L 123 28 L 121 27 L 122 25 Z M 0 10 L 0 18 L 1 18 L 2 16 L 4 16 L 6 17 L 8 20 L 10 20 L 12 17 L 14 16 L 16 17 L 17 26 L 21 33 L 16 37 L 14 35 L 14 32 L 13 31 L 14 23 L 13 23 L 12 24 L 12 34 L 14 39 L 12 40 L 5 33 L 2 26 L 1 20 L 0 20 L 0 35 L 5 36 L 10 41 L 9 43 L 0 41 L 0 44 L 5 44 L 7 46 L 4 50 L 0 49 L 0 55 L 3 55 L 5 57 L 4 59 L 0 59 L 0 64 L 5 61 L 7 61 L 11 64 L 23 70 L 22 77 L 21 78 L 21 80 L 19 82 L 17 81 L 11 81 L 10 80 L 4 80 L 0 78 L 0 81 L 10 82 L 11 83 L 17 83 L 21 86 L 21 93 L 20 94 L 20 96 L 18 98 L 15 98 L 14 99 L 7 99 L 6 100 L 0 100 L 0 102 L 19 99 L 21 101 L 23 112 L 11 118 L 11 119 L 24 113 L 28 117 L 28 119 L 31 119 L 33 121 L 32 124 L 34 123 L 38 127 L 38 130 L 41 128 L 42 129 L 49 130 L 52 132 L 50 149 L 47 152 L 41 153 L 34 150 L 31 146 L 31 144 L 34 140 L 37 132 L 36 132 L 31 143 L 29 145 L 26 145 L 25 146 L 24 145 L 20 145 L 16 141 L 16 140 L 21 138 L 21 137 L 16 138 L 14 136 L 14 132 L 15 130 L 13 131 L 13 134 L 11 136 L 6 130 L 6 124 L 9 120 L 5 120 L 3 119 L 2 117 L 0 117 L 0 122 L 4 122 L 5 123 L 5 125 L 3 127 L 0 127 L 0 131 L 2 131 L 3 130 L 7 135 L 6 137 L 4 138 L 0 138 L 0 139 L 5 139 L 9 137 L 11 140 L 14 142 L 14 144 L 12 148 L 12 157 L 13 158 L 14 158 L 14 154 L 13 153 L 14 146 L 15 145 L 17 145 L 21 148 L 16 160 L 16 164 L 14 165 L 12 164 L 10 161 L 9 161 L 1 169 L 0 169 L 0 171 L 2 170 L 9 178 L 12 178 L 13 179 L 19 178 L 24 175 L 27 175 L 30 173 L 42 178 L 52 178 L 53 177 L 55 177 L 60 173 L 70 178 L 78 178 L 79 177 L 85 176 L 91 173 L 93 175 L 97 175 L 102 178 L 109 179 L 114 177 L 118 172 L 120 172 L 121 174 L 124 174 L 129 170 L 131 170 L 134 172 L 138 172 L 145 175 L 145 173 L 143 170 L 143 165 L 140 159 L 145 153 L 145 152 L 141 149 L 147 144 L 149 140 L 149 132 L 145 127 L 145 122 L 144 121 L 144 119 L 148 111 L 148 97 L 144 91 L 144 89 L 148 83 L 148 70 L 147 69 L 146 64 L 144 61 L 144 59 L 145 58 L 145 54 L 149 48 L 149 40 L 147 36 L 142 32 L 145 27 L 144 25 L 140 22 L 143 15 L 143 10 L 144 8 L 140 8 L 139 9 L 135 9 L 134 10 L 129 11 L 126 7 L 122 7 L 121 9 L 119 10 L 115 4 L 110 2 L 105 2 L 100 4 L 98 6 L 94 6 L 92 8 L 89 7 L 87 5 L 81 4 L 80 3 L 69 3 L 65 5 L 62 8 L 53 3 L 42 3 L 41 4 L 36 5 L 34 7 L 31 8 L 28 6 L 25 6 L 21 3 L 19 3 L 18 2 L 13 2 L 8 4 L 3 10 Z M 35 165 L 37 164 L 42 167 L 48 167 L 49 166 L 50 168 L 47 170 L 44 170 L 37 167 Z M 90 159 L 89 163 L 82 169 L 75 170 L 72 168 L 73 167 L 79 167 L 80 166 L 82 166 L 89 158 Z M 99 158 L 100 157 L 101 158 L 101 169 L 104 173 L 106 174 L 111 173 L 112 172 L 112 169 L 114 166 L 117 168 L 116 172 L 113 175 L 109 177 L 104 177 L 100 175 L 96 170 L 96 166 L 98 163 Z M 32 154 L 33 155 L 33 158 L 32 159 L 31 158 L 31 155 Z M 70 154 L 72 152 L 76 154 L 83 154 L 84 153 L 86 153 L 87 154 L 87 158 L 82 164 L 80 165 L 75 165 L 73 162 L 73 159 L 71 157 Z M 51 154 L 51 156 L 48 161 L 48 164 L 47 165 L 42 165 L 40 164 L 36 160 L 34 156 L 34 154 L 35 153 L 37 153 L 38 154 L 45 154 L 49 152 Z M 22 152 L 23 153 L 23 161 L 24 162 L 24 164 L 27 168 L 26 169 L 26 171 L 21 176 L 19 176 L 18 177 L 13 177 L 9 175 L 6 172 L 5 167 L 7 166 L 10 169 L 10 172 L 12 174 L 17 173 L 20 169 L 20 154 Z M 140 151 L 142 154 L 137 158 L 137 160 L 139 162 L 139 164 L 140 165 L 140 170 L 139 171 L 137 171 L 132 169 L 130 167 L 127 167 L 126 170 L 123 172 L 119 166 L 120 165 L 122 165 L 122 163 L 123 162 L 122 160 L 122 156 L 123 155 L 132 164 L 135 164 L 135 163 L 124 152 L 125 151 L 127 151 L 128 152 L 135 152 L 135 150 L 136 149 Z M 97 148 L 97 160 L 96 161 L 96 163 L 89 172 L 80 176 L 70 176 L 65 174 L 62 171 L 62 167 L 63 166 L 62 160 L 66 157 L 70 158 L 72 161 L 72 163 L 69 166 L 69 169 L 72 171 L 81 171 L 82 170 L 84 170 L 88 167 L 91 163 L 91 161 L 93 157 L 93 150 L 92 148 L 93 147 L 96 147 Z M 24 149 L 27 146 L 30 148 L 30 150 L 29 151 L 29 158 L 30 159 L 30 162 L 36 169 L 43 172 L 51 170 L 53 168 L 53 166 L 50 163 L 50 160 L 53 157 L 56 157 L 60 161 L 59 163 L 59 168 L 60 169 L 60 171 L 57 174 L 52 176 L 43 176 L 35 173 L 29 168 L 28 165 L 25 161 L 25 159 L 24 158 Z M 104 145 L 106 145 L 108 149 L 108 156 L 106 159 L 105 158 L 104 153 L 101 148 L 101 147 Z M 109 141 L 113 144 L 119 154 L 119 156 L 120 157 L 120 165 L 119 166 L 118 166 L 114 162 L 114 161 L 112 161 L 111 163 L 108 165 L 106 164 L 106 159 L 107 158 L 109 158 L 110 156 L 110 147 L 108 144 L 108 142 Z M 145 138 L 146 139 L 145 143 L 142 146 L 139 147 L 137 145 L 137 143 L 138 142 L 143 141 Z M 146 135 L 147 136 L 147 138 L 146 139 L 145 138 L 145 136 Z M 111 139 L 112 138 L 115 138 L 120 140 L 128 139 L 128 137 L 126 138 L 118 138 L 115 136 L 115 134 L 118 131 L 127 135 L 134 135 L 135 136 L 135 138 L 131 142 L 131 143 L 136 148 L 136 149 L 133 151 L 124 149 L 118 146 Z M 59 130 L 66 131 L 68 133 L 68 138 L 69 139 L 69 144 L 70 145 L 70 152 L 69 154 L 61 158 L 58 156 L 54 155 L 51 150 L 51 148 L 52 147 L 52 141 L 53 140 L 53 134 L 55 131 L 58 131 Z M 79 128 L 81 128 L 83 130 L 90 144 L 90 148 L 87 151 L 85 152 L 81 152 L 80 153 L 76 152 L 72 149 L 72 147 L 71 146 L 71 140 L 70 139 L 70 132 L 72 130 L 76 130 Z M 146 135 L 145 136 L 143 133 L 139 131 L 129 132 L 128 131 L 124 131 L 123 130 L 124 129 L 132 128 L 138 125 L 144 129 L 146 132 Z M 86 124 L 88 124 L 100 138 L 105 139 L 106 140 L 106 141 L 102 145 L 97 146 L 96 145 L 94 145 L 91 142 L 87 133 L 84 129 L 84 126 Z M 57 124 L 58 123 L 63 123 L 65 125 L 64 126 L 58 126 Z M 89 120 L 90 119 L 92 119 L 101 127 L 107 131 L 107 136 L 106 137 L 102 137 L 90 123 Z M 82 120 L 78 124 L 75 124 L 74 123 L 75 120 L 77 118 L 80 118 Z M 40 120 L 42 118 L 45 118 L 47 120 L 47 123 L 45 124 Z M 97 113 L 111 120 L 115 124 L 115 131 L 111 136 L 110 135 L 109 130 L 94 118 L 94 116 Z M 63 110 L 65 110 L 67 113 L 67 116 L 68 117 L 68 121 L 67 122 L 65 122 L 62 120 L 62 111 Z M 58 110 L 60 112 L 60 120 L 57 122 L 55 122 L 53 120 L 53 118 L 54 117 L 55 112 Z M 139 108 L 138 113 L 133 119 L 129 121 L 124 121 L 123 120 L 131 117 L 136 112 L 137 108 L 138 107 Z M 74 105 L 82 114 L 79 117 L 78 116 L 76 116 L 72 121 L 70 119 L 68 109 Z M 93 104 L 94 105 L 94 108 L 90 111 L 88 107 L 91 104 Z M 29 104 L 32 105 L 34 107 L 32 111 L 28 108 L 28 105 Z M 124 100 L 129 103 L 133 103 L 135 105 L 134 112 L 128 117 L 124 117 L 123 116 L 124 111 L 125 110 L 124 104 L 123 103 L 123 101 Z M 59 101 L 61 100 L 63 102 L 61 104 Z M 103 99 L 105 100 L 110 100 L 111 101 L 117 101 L 121 104 L 122 106 L 122 114 L 118 120 L 114 120 L 110 117 L 101 113 L 99 111 L 99 107 L 100 106 L 101 101 Z M 67 99 L 69 101 L 68 103 L 66 103 L 65 102 Z M 52 101 L 55 99 L 57 102 L 56 103 L 54 103 Z M 79 98 L 87 99 L 91 102 L 86 106 L 86 110 L 85 111 L 83 111 L 75 103 Z M 32 100 L 37 98 L 42 98 L 46 103 L 46 105 L 48 105 L 54 110 L 52 119 L 50 121 L 46 116 L 42 116 L 40 114 L 40 111 L 37 111 L 35 109 L 35 105 L 31 102 Z M 69 96 L 70 95 L 72 95 L 73 96 L 73 98 L 71 99 Z M 48 96 L 49 95 L 51 95 L 52 96 L 52 98 L 50 99 Z M 140 92 L 144 96 L 146 101 L 145 113 L 142 119 L 139 122 L 131 127 L 119 127 L 117 125 L 117 123 L 118 122 L 121 122 L 122 123 L 130 122 L 134 120 L 140 114 L 142 109 L 142 104 L 140 99 L 136 99 L 132 102 L 128 99 L 128 94 L 130 92 Z M 81 93 L 82 92 L 90 92 L 92 95 L 92 97 L 91 98 L 84 97 L 81 95 Z M 30 97 L 30 93 L 31 92 L 40 92 L 41 93 L 41 95 L 39 97 L 36 97 L 35 98 L 31 98 Z M 70 90 L 72 89 L 74 91 L 73 92 L 71 92 Z M 48 90 L 50 89 L 51 91 L 49 92 Z M 94 87 L 96 88 L 96 94 L 95 95 L 93 93 L 93 88 Z M 26 87 L 29 89 L 29 93 L 27 95 L 25 94 L 25 88 Z M 81 86 L 83 84 L 90 83 L 92 85 L 92 88 L 90 90 L 83 90 L 81 88 Z M 57 83 L 63 83 L 68 87 L 68 95 L 64 98 L 58 98 L 54 94 L 53 92 L 54 91 L 54 89 L 53 88 Z M 29 85 L 31 83 L 33 83 L 34 84 L 40 85 L 42 87 L 39 90 L 32 90 L 30 88 L 30 86 Z M 71 82 L 73 84 L 72 86 L 69 84 Z M 50 82 L 52 84 L 51 86 L 48 84 Z M 127 89 L 127 93 L 125 97 L 122 100 L 115 100 L 114 99 L 103 98 L 101 95 L 101 86 L 103 83 L 109 83 L 110 82 L 120 81 L 125 85 Z M 65 79 L 67 78 L 69 81 L 67 82 Z M 59 79 L 61 78 L 62 80 L 60 81 Z M 54 78 L 57 80 L 55 82 L 52 80 Z M 90 70 L 94 75 L 92 77 L 90 76 L 88 73 Z M 37 70 L 39 70 L 46 78 L 42 84 L 41 83 L 34 82 L 31 80 L 31 79 L 35 76 L 35 72 Z M 32 70 L 33 71 L 33 75 L 31 77 L 29 77 L 28 76 L 28 73 Z M 125 64 L 131 67 L 134 71 L 134 73 L 135 74 L 135 76 L 133 78 L 131 78 L 126 81 L 123 79 L 124 72 L 125 71 L 124 69 L 124 65 Z M 116 61 L 122 68 L 122 76 L 119 80 L 113 80 L 112 81 L 103 82 L 101 80 L 99 70 L 102 67 L 114 61 Z M 70 62 L 72 61 L 75 65 L 79 65 L 81 67 L 81 70 L 84 70 L 86 72 L 86 76 L 89 78 L 90 80 L 86 83 L 81 84 L 76 78 L 76 76 L 74 76 L 68 72 L 68 68 L 69 67 Z M 50 61 L 52 63 L 54 72 L 48 76 L 40 68 L 40 67 L 42 65 L 46 65 L 47 63 Z M 63 60 L 67 60 L 68 61 L 68 66 L 67 67 L 67 69 L 65 71 L 63 71 L 62 70 L 62 64 L 61 63 Z M 54 60 L 58 60 L 60 62 L 60 70 L 59 71 L 57 71 L 55 69 L 54 63 L 53 62 Z M 75 59 L 76 58 L 78 58 L 81 62 L 80 63 L 77 63 L 75 61 Z M 40 61 L 43 58 L 47 58 L 48 59 L 45 63 L 41 63 Z M 57 56 L 58 55 L 63 55 L 65 57 L 63 59 L 60 59 L 58 58 Z M 120 54 L 127 54 L 128 55 L 131 55 L 137 59 L 143 65 L 145 70 L 145 73 L 146 74 L 146 81 L 145 82 L 145 85 L 142 89 L 140 90 L 139 89 L 131 89 L 128 86 L 128 82 L 131 79 L 132 79 L 136 83 L 138 83 L 140 81 L 142 76 L 142 71 L 139 65 L 135 61 L 131 59 L 127 59 L 126 58 L 118 59 L 117 58 L 117 56 Z M 10 46 L 12 47 L 13 51 L 28 64 L 25 68 L 14 63 L 7 58 L 6 56 L 6 51 Z M 147 45 L 145 52 L 140 56 L 138 56 L 133 53 L 130 53 L 126 51 L 127 50 L 139 50 L 141 49 L 145 44 Z M 16 44 L 19 44 L 25 50 L 25 51 L 32 59 L 32 61 L 31 62 L 28 61 L 14 49 L 14 46 Z M 94 36 L 99 36 L 100 37 L 102 37 L 105 40 L 104 42 L 102 42 L 100 44 L 100 45 L 102 44 L 106 44 L 107 45 L 107 51 L 105 52 L 104 54 L 105 54 L 106 52 L 109 50 L 109 48 L 110 47 L 112 47 L 115 51 L 115 58 L 107 64 L 103 66 L 101 66 L 98 68 L 94 64 L 94 62 L 91 62 L 89 60 L 92 55 L 88 58 L 83 53 L 86 49 L 86 47 L 89 43 L 91 38 Z M 19 37 L 21 36 L 26 36 L 30 38 L 38 53 L 38 55 L 35 58 L 32 56 L 32 55 L 27 50 L 22 43 L 17 42 L 16 41 Z M 136 36 L 137 35 L 140 35 L 143 37 L 144 39 L 143 40 L 139 39 Z M 77 29 L 85 30 L 88 32 L 90 35 L 90 39 L 87 43 L 84 50 L 81 53 L 70 49 L 70 41 L 71 40 L 71 35 L 72 34 L 72 32 L 74 30 L 76 30 Z M 34 31 L 39 30 L 40 29 L 44 29 L 45 30 L 47 30 L 50 33 L 51 45 L 52 46 L 52 49 L 50 51 L 46 51 L 42 53 L 39 51 L 31 36 L 32 33 Z M 59 24 L 66 26 L 70 31 L 70 37 L 69 38 L 69 45 L 68 46 L 68 48 L 66 50 L 63 50 L 62 51 L 60 50 L 55 50 L 54 49 L 54 47 L 53 46 L 53 39 L 52 38 L 52 34 L 51 33 L 52 28 L 55 26 L 57 26 Z M 70 25 L 73 22 L 74 18 L 77 16 L 82 18 L 85 21 L 87 25 L 87 27 L 86 28 L 84 27 L 76 27 L 72 29 Z M 35 22 L 40 17 L 46 16 L 48 18 L 48 21 L 49 22 L 49 24 L 51 26 L 51 28 L 50 29 L 46 27 L 38 27 L 37 28 L 35 28 L 34 27 Z M 41 13 L 42 14 L 34 21 L 33 27 L 32 28 L 30 26 L 31 25 L 32 19 L 37 14 Z M 140 11 L 141 12 L 140 13 L 140 18 L 137 23 L 137 25 L 140 26 L 141 27 L 141 29 L 131 39 L 134 44 L 132 46 L 128 46 L 120 50 L 118 50 L 115 46 L 116 44 L 120 44 L 121 43 L 123 44 L 128 44 L 129 42 L 119 41 L 113 44 L 111 41 L 108 39 L 108 37 L 110 33 L 110 23 L 108 23 L 107 24 L 107 26 L 108 27 L 108 34 L 105 36 L 101 33 L 105 25 L 106 18 L 108 17 L 111 20 L 113 20 L 122 10 L 123 10 L 127 14 L 127 15 L 135 11 Z M 113 8 L 115 9 L 117 13 L 115 15 L 112 12 L 112 9 Z M 60 12 L 59 14 L 59 22 L 56 24 L 52 23 L 50 20 L 50 18 L 53 14 L 53 12 L 52 11 L 45 9 L 35 13 L 32 17 L 29 24 L 29 31 L 30 33 L 29 34 L 26 34 L 24 31 L 24 23 L 25 22 L 25 19 L 29 13 L 35 8 L 40 6 L 53 6 Z M 18 6 L 22 7 L 26 12 L 26 15 L 23 21 L 23 27 L 22 28 L 20 27 L 20 11 L 17 7 Z M 107 5 L 108 6 L 105 8 L 101 13 L 101 24 L 100 25 L 99 24 L 98 17 L 96 14 L 96 10 L 102 5 Z M 62 10 L 65 7 L 67 7 L 68 6 L 73 6 L 74 5 L 84 7 L 87 9 L 95 18 L 97 23 L 97 33 L 94 35 L 92 33 L 93 23 L 90 16 L 86 12 L 78 9 L 71 11 L 69 13 L 69 16 L 72 18 L 72 21 L 69 24 L 66 24 L 62 20 L 62 18 L 63 17 Z M 14 5 L 15 6 L 10 10 L 10 13 L 8 15 L 6 15 L 5 14 L 6 9 L 9 6 Z" fill="currentColor" fill-rule="evenodd" clip-rule="evenodd"/>
</svg>