<svg xmlns="http://www.w3.org/2000/svg" viewBox="0 0 261 200" fill="none">
  <path d="M 123 175 L 123 179 L 126 181 L 128 181 L 129 182 L 135 182 L 134 180 L 131 179 L 128 176 Z M 119 169 L 118 170 L 118 172 L 119 173 L 121 173 L 121 171 L 120 169 Z M 127 163 L 127 164 L 132 167 L 129 163 Z M 2 160 L 4 169 L 9 177 L 18 186 L 25 190 L 27 190 L 31 192 L 41 192 L 46 194 L 52 194 L 53 195 L 59 195 L 60 196 L 64 196 L 65 195 L 69 195 L 70 194 L 76 194 L 77 193 L 87 194 L 92 190 L 91 180 L 89 176 L 89 171 L 86 165 L 86 163 L 79 154 L 68 149 L 64 149 L 63 148 L 39 148 L 38 149 L 34 149 L 33 150 L 30 150 L 29 151 L 26 151 L 25 152 L 10 155 L 4 158 Z M 43 190 L 44 189 L 46 190 L 50 189 L 51 190 L 57 191 L 58 193 L 57 194 L 55 193 L 49 193 L 48 192 L 45 192 Z M 47 186 L 48 185 L 54 185 L 55 186 L 60 186 L 62 188 L 64 188 L 65 187 L 68 188 L 69 187 L 71 189 L 69 191 L 64 192 L 64 193 L 62 194 L 58 191 L 59 189 L 56 190 L 52 187 L 49 188 Z M 37 183 L 38 182 L 40 185 L 39 186 Z M 16 180 L 17 179 L 21 182 L 19 184 Z M 86 177 L 88 177 L 89 178 L 88 181 L 86 182 L 86 183 L 88 183 L 89 184 L 89 186 L 91 188 L 88 191 L 85 189 L 87 188 L 87 186 L 86 185 L 85 185 L 86 187 L 85 189 L 83 188 L 79 183 L 80 182 L 83 183 L 81 180 L 82 179 L 84 179 Z M 25 175 L 28 179 L 27 181 L 24 177 Z M 10 175 L 11 174 L 14 177 L 12 178 Z M 20 172 L 25 182 L 27 183 L 27 181 L 28 180 L 30 184 L 33 187 L 31 189 L 29 188 L 25 188 L 21 184 L 23 183 L 23 182 L 21 180 L 19 175 L 19 173 Z M 7 171 L 8 170 L 10 173 L 9 174 Z M 5 160 L 7 158 L 14 155 L 20 155 L 21 154 L 24 154 L 29 152 L 33 152 L 38 150 L 44 150 L 45 149 L 65 150 L 77 155 L 80 158 L 79 159 L 80 163 L 78 164 L 78 165 L 81 167 L 85 166 L 87 170 L 87 174 L 84 177 L 77 178 L 76 177 L 71 177 L 70 176 L 68 176 L 63 173 L 59 173 L 57 174 L 57 175 L 60 175 L 64 178 L 67 179 L 68 180 L 68 182 L 67 183 L 60 184 L 59 185 L 58 184 L 51 184 L 50 183 L 47 183 L 46 182 L 36 180 L 33 177 L 27 174 L 28 173 L 41 173 L 42 174 L 44 174 L 44 173 L 42 172 L 31 172 L 30 171 L 26 171 L 24 172 L 22 170 L 18 170 L 15 168 L 17 167 L 17 166 L 12 162 L 10 162 L 8 165 L 6 163 Z M 166 172 L 166 179 L 181 189 L 182 191 L 187 195 L 193 198 L 215 197 L 216 196 L 226 195 L 241 189 L 250 188 L 251 184 L 257 176 L 257 173 L 258 172 L 258 162 L 257 161 L 257 159 L 252 154 L 247 154 L 246 153 L 241 153 L 240 154 L 232 148 L 224 145 L 208 145 L 207 146 L 200 146 L 199 147 L 186 147 L 186 148 L 191 148 L 193 149 L 194 148 L 203 148 L 204 147 L 208 147 L 209 146 L 223 146 L 231 149 L 235 153 L 235 159 L 230 166 L 226 168 L 223 171 L 219 171 L 214 173 L 208 173 L 207 174 L 205 173 L 199 173 L 198 171 L 186 160 L 184 155 L 184 148 L 180 147 L 179 148 L 177 148 L 173 152 L 171 157 L 171 161 L 170 162 L 169 169 Z M 201 190 L 203 191 L 202 192 L 203 194 L 202 196 L 200 195 L 200 191 Z M 206 186 L 208 184 L 210 186 L 209 187 L 207 187 Z M 186 184 L 188 187 L 186 192 L 183 189 Z M 230 183 L 231 184 L 231 187 L 230 188 L 228 188 L 227 186 L 229 185 Z M 215 182 L 217 186 L 213 190 L 212 190 L 211 189 L 211 185 Z M 192 181 L 194 181 L 195 182 L 195 187 L 194 189 L 196 191 L 194 193 L 194 195 L 193 196 L 191 194 L 191 191 L 189 189 L 189 185 Z M 232 178 L 234 179 L 237 187 L 235 190 L 233 187 L 233 183 L 231 180 Z M 187 179 L 188 178 L 192 178 L 193 179 L 190 181 Z M 243 175 L 245 175 L 247 179 L 247 185 L 246 186 L 244 185 L 244 183 L 242 180 L 240 179 L 242 178 L 242 176 Z M 179 175 L 180 174 L 186 180 L 184 181 L 179 176 Z M 251 174 L 253 172 L 255 174 L 254 175 L 252 175 Z M 185 173 L 187 172 L 189 175 L 188 176 Z M 254 165 L 255 166 L 255 169 L 250 173 L 247 169 L 248 168 L 251 169 L 252 168 L 252 166 Z M 242 165 L 243 164 L 245 164 L 246 165 L 245 166 L 243 166 Z M 240 161 L 244 156 L 250 156 L 255 160 L 255 162 L 254 163 L 253 161 L 246 161 L 243 163 L 241 163 Z M 182 155 L 185 161 L 191 167 L 191 168 L 192 168 L 196 172 L 196 174 L 195 175 L 194 175 L 193 174 L 193 172 L 192 172 L 183 163 L 183 161 L 180 157 Z M 236 122 L 234 123 L 232 127 L 235 125 Z M 185 119 L 184 119 L 181 123 L 182 123 Z M 86 117 L 83 122 L 83 128 L 84 129 L 85 134 L 88 140 L 98 149 L 97 153 L 93 156 L 91 160 L 91 167 L 95 171 L 99 173 L 101 173 L 102 172 L 98 166 L 96 166 L 95 165 L 98 162 L 98 159 L 99 158 L 101 161 L 102 168 L 105 172 L 104 174 L 105 175 L 108 175 L 110 177 L 110 181 L 112 183 L 117 184 L 119 186 L 129 186 L 131 185 L 131 184 L 126 184 L 125 183 L 118 183 L 115 181 L 118 178 L 120 180 L 121 180 L 121 179 L 116 174 L 116 172 L 115 172 L 113 169 L 118 163 L 124 163 L 125 161 L 123 159 L 123 157 L 124 156 L 126 157 L 126 156 L 125 156 L 121 151 L 119 151 L 114 146 L 104 140 L 93 129 L 90 122 L 90 118 L 91 117 L 96 117 L 97 118 L 99 118 L 104 122 L 109 124 L 123 136 L 128 139 L 135 146 L 138 147 L 141 150 L 141 153 L 142 154 L 142 162 L 146 173 L 143 177 L 140 178 L 137 175 L 134 169 L 133 169 L 133 170 L 138 178 L 138 181 L 141 179 L 144 179 L 147 176 L 147 173 L 153 168 L 154 163 L 155 162 L 154 159 L 150 155 L 144 154 L 140 146 L 138 146 L 112 124 L 109 123 L 104 119 L 98 116 L 88 116 Z M 112 172 L 114 173 L 114 177 L 113 178 L 111 177 L 111 173 Z M 109 165 L 111 169 L 111 171 L 109 173 L 106 170 L 107 169 L 106 167 Z M 105 158 L 106 159 L 106 161 L 105 162 L 104 161 L 104 159 Z M 144 157 L 145 156 L 150 157 L 153 160 L 153 164 L 151 166 L 147 166 L 144 162 Z M 99 153 L 100 154 L 100 156 L 99 157 L 98 156 L 98 154 Z M 96 144 L 98 143 L 111 153 L 112 153 L 112 151 L 110 148 L 112 147 L 117 151 L 117 153 L 115 154 L 116 158 L 110 162 L 109 161 L 110 159 L 109 155 L 105 151 L 104 151 L 107 156 L 106 157 L 103 156 L 101 153 L 100 149 L 96 145 Z M 96 136 L 97 135 L 101 139 L 101 140 L 99 141 Z M 206 91 L 202 93 L 201 95 L 205 93 Z M 216 88 L 209 89 L 208 91 L 210 90 L 215 90 Z M 260 103 L 258 102 L 252 102 L 249 104 L 247 104 L 245 101 L 245 99 L 243 95 L 237 89 L 232 87 L 223 87 L 223 89 L 233 89 L 237 92 L 237 95 L 238 96 L 236 102 L 227 111 L 223 113 L 223 114 L 228 112 L 231 114 L 230 115 L 230 117 L 231 118 L 229 120 L 227 120 L 224 122 L 220 121 L 219 120 L 221 119 L 221 118 L 219 118 L 218 117 L 221 115 L 221 114 L 216 116 L 216 117 L 218 117 L 219 118 L 217 120 L 215 120 L 213 122 L 209 121 L 206 123 L 195 135 L 190 135 L 189 134 L 197 127 L 198 127 L 203 121 L 206 115 L 207 109 L 208 108 L 207 103 L 203 99 L 201 99 L 199 96 L 198 96 L 194 99 L 179 99 L 171 102 L 163 108 L 157 115 L 153 117 L 149 121 L 143 125 L 132 130 L 130 133 L 132 135 L 149 135 L 157 138 L 182 138 L 183 137 L 190 137 L 191 136 L 231 137 L 239 133 L 245 133 L 246 132 L 252 133 L 253 132 L 258 131 L 260 129 L 260 116 L 260 118 L 258 121 L 259 125 L 257 127 L 256 125 L 253 126 L 252 125 L 253 123 L 253 109 L 251 105 L 252 104 L 257 104 L 260 106 Z M 165 135 L 166 134 L 168 134 L 169 135 L 168 136 L 166 136 Z M 133 132 L 136 130 L 138 131 L 137 133 L 134 133 Z M 216 128 L 210 134 L 207 134 L 206 133 L 214 127 Z M 190 127 L 191 128 L 191 130 L 189 132 L 187 132 L 184 134 L 183 133 L 183 130 L 186 128 Z M 217 123 L 212 127 L 210 126 L 215 122 Z M 219 120 L 220 121 L 217 123 L 216 122 Z M 244 114 L 242 116 L 243 121 L 239 125 L 239 128 L 238 129 L 236 128 L 234 132 L 231 135 L 228 135 L 227 134 L 229 131 L 225 133 L 223 133 L 222 132 L 229 125 L 229 124 L 228 124 L 215 135 L 213 135 L 212 134 L 224 123 L 231 120 L 233 118 L 234 119 L 237 118 L 237 117 L 242 113 Z M 248 112 L 249 113 L 249 118 L 248 119 L 248 121 L 246 122 L 245 121 L 245 118 L 246 117 L 246 114 Z M 202 107 L 204 109 L 203 118 L 200 121 L 199 120 L 199 118 L 196 120 L 195 118 L 200 112 L 200 110 Z M 201 101 L 202 101 L 204 104 L 204 106 L 203 107 L 200 103 Z M 197 103 L 197 107 L 191 117 L 180 128 L 178 129 L 174 129 L 174 132 L 172 134 L 171 134 L 170 132 L 167 132 L 166 133 L 161 134 L 160 136 L 157 136 L 156 135 L 152 135 L 149 133 L 141 133 L 140 132 L 144 126 L 153 121 L 168 106 L 176 101 L 192 100 L 193 101 L 195 101 Z M 241 98 L 242 99 L 242 102 L 244 103 L 244 106 L 239 112 L 239 114 L 236 116 L 234 113 L 239 107 L 239 102 L 238 100 Z M 86 77 L 86 81 L 88 83 L 86 84 L 86 86 L 90 94 L 94 98 L 105 102 L 118 103 L 119 104 L 138 104 L 151 99 L 157 98 L 161 96 L 164 92 L 164 88 L 163 86 L 157 82 L 151 74 L 142 65 L 136 61 L 135 61 L 135 62 L 145 71 L 143 72 L 143 73 L 145 75 L 146 78 L 148 79 L 153 85 L 155 85 L 156 83 L 160 87 L 159 89 L 157 90 L 153 90 L 151 92 L 149 92 L 148 93 L 138 93 L 137 92 L 131 92 L 130 91 L 128 91 L 127 90 L 127 88 L 125 88 L 123 85 L 116 84 L 113 82 L 111 82 L 110 83 L 105 77 L 105 69 L 106 68 L 106 65 L 108 63 L 112 61 L 114 61 L 117 59 L 130 60 L 130 59 L 128 58 L 115 58 L 112 60 L 110 60 L 93 70 Z M 132 101 L 133 100 L 137 100 L 138 101 L 137 102 L 133 102 Z M 125 96 L 126 95 L 132 95 L 133 96 L 131 98 L 129 98 Z M 115 96 L 117 95 L 122 98 L 121 99 L 119 99 Z M 100 92 L 102 90 L 107 95 L 105 96 Z M 92 88 L 93 87 L 95 87 L 96 89 L 95 90 L 93 90 Z M 100 71 L 101 72 L 101 75 L 99 76 L 99 79 L 98 80 L 95 79 L 92 81 L 91 80 L 91 75 L 92 74 L 94 74 L 96 72 L 99 72 Z M 34 2 L 30 6 L 17 14 L 16 16 L 16 46 L 15 47 L 14 62 L 13 63 L 13 74 L 12 75 L 10 92 L 5 101 L 4 118 L 6 121 L 14 125 L 16 125 L 19 127 L 26 129 L 28 131 L 41 137 L 44 137 L 45 138 L 48 138 L 49 137 L 56 137 L 59 132 L 66 125 L 75 121 L 75 105 L 74 104 L 74 100 L 68 90 L 68 88 L 66 85 L 65 68 L 64 67 L 64 61 L 63 60 L 63 50 L 62 49 L 62 46 L 53 36 L 49 20 L 47 18 L 43 10 L 40 7 L 39 3 Z M 47 129 L 48 128 L 54 132 L 52 133 L 48 131 Z M 42 123 L 43 122 L 45 122 L 47 124 L 45 125 Z M 21 124 L 26 122 L 32 125 L 34 127 L 32 128 L 29 126 L 26 126 Z M 15 121 L 16 120 L 20 120 L 25 117 L 28 117 L 30 118 L 34 122 L 34 123 L 32 124 L 26 121 L 23 121 L 18 123 Z M 35 117 L 36 116 L 40 116 L 41 117 L 43 117 L 45 119 L 44 120 L 42 119 L 37 119 Z M 13 114 L 15 113 L 18 115 L 21 115 L 24 113 L 26 113 L 28 115 L 27 116 L 23 116 L 18 119 L 16 118 Z M 16 112 L 17 111 L 21 111 L 22 112 L 21 113 L 17 113 Z M 16 108 L 17 107 L 21 107 L 22 108 L 21 109 L 17 109 Z M 31 106 L 32 105 L 35 109 L 37 109 L 38 110 L 43 110 L 49 117 L 47 118 L 43 115 L 36 114 L 32 110 Z M 34 105 L 35 104 L 39 107 L 37 108 L 35 107 Z M 35 99 L 36 98 L 38 98 L 40 101 L 45 102 L 47 105 L 46 106 L 39 105 L 36 103 Z M 13 96 L 15 95 L 16 96 L 16 98 L 14 99 L 13 98 Z M 37 95 L 38 94 L 44 99 L 43 100 L 39 99 Z M 17 94 L 19 92 L 22 92 L 22 90 L 23 89 L 24 90 L 24 96 L 29 97 L 30 99 L 28 101 L 24 100 L 22 98 L 22 96 L 21 96 L 21 98 L 20 99 L 18 99 L 17 98 Z M 29 88 L 31 87 L 35 92 L 34 93 L 31 93 L 29 91 Z M 27 86 L 28 87 L 28 93 L 29 94 L 28 95 L 26 95 L 25 94 L 26 92 L 25 88 Z M 34 81 L 39 87 L 37 90 L 33 87 L 33 82 Z M 14 82 L 15 81 L 21 84 L 22 86 L 20 87 L 16 85 Z M 19 81 L 20 80 L 22 80 L 25 82 L 25 84 L 24 85 Z M 25 79 L 26 78 L 28 81 L 27 82 Z M 37 76 L 41 81 L 41 83 L 40 84 L 36 81 L 36 77 Z M 26 76 L 27 75 L 30 75 L 31 77 L 30 78 Z M 28 73 L 29 72 L 31 72 L 32 73 L 31 74 L 29 74 Z M 18 72 L 19 71 L 27 75 L 26 76 L 20 76 Z M 31 66 L 32 65 L 35 65 L 38 68 L 37 69 L 35 69 Z M 19 61 L 20 60 L 25 66 L 29 67 L 31 69 L 30 70 L 27 70 L 23 68 L 20 65 Z M 22 55 L 25 59 L 24 61 L 21 59 L 21 56 Z M 17 56 L 18 55 L 20 58 L 19 59 Z M 32 52 L 33 51 L 37 53 L 40 57 L 39 58 L 36 57 L 32 53 Z M 18 50 L 20 49 L 24 51 L 27 54 L 28 57 L 32 61 L 34 61 L 36 63 L 35 64 L 33 63 L 29 63 L 27 61 L 27 59 L 25 56 Z M 36 48 L 38 47 L 40 49 L 38 50 Z M 22 38 L 24 41 L 28 43 L 31 46 L 29 47 L 30 52 L 32 56 L 37 58 L 40 61 L 39 63 L 33 60 L 30 57 L 29 54 L 24 49 L 22 49 L 19 46 L 19 43 L 20 42 L 24 46 L 25 46 L 25 45 L 21 41 L 21 39 Z M 37 33 L 39 36 L 38 38 L 36 36 L 36 34 Z M 29 29 L 35 35 L 36 38 L 40 43 L 40 45 L 39 46 L 36 43 L 34 38 L 29 33 L 28 31 Z M 21 25 L 23 28 L 23 31 L 26 37 L 28 39 L 27 40 L 26 40 L 21 34 L 21 30 L 20 29 L 20 26 Z M 31 17 L 32 18 L 34 17 L 37 20 L 39 24 L 38 26 L 34 22 L 34 20 L 33 20 L 33 22 L 37 28 L 36 29 L 33 27 L 30 21 L 30 18 Z M 43 15 L 44 15 L 47 19 L 49 29 L 50 30 L 50 33 L 51 34 L 51 46 L 50 47 L 50 67 L 51 68 L 51 81 L 52 82 L 52 87 L 53 88 L 53 90 L 55 91 L 54 85 L 53 84 L 53 80 L 52 79 L 52 70 L 55 68 L 55 46 L 54 45 L 54 43 L 56 42 L 60 48 L 60 52 L 61 53 L 61 59 L 62 60 L 62 65 L 63 66 L 64 81 L 65 82 L 65 89 L 66 90 L 67 100 L 68 100 L 68 97 L 69 96 L 72 100 L 72 102 L 73 103 L 73 109 L 74 110 L 74 118 L 72 120 L 67 122 L 66 121 L 65 114 L 61 108 L 60 103 L 58 103 L 57 102 L 55 95 L 54 95 L 54 98 L 55 99 L 56 104 L 58 107 L 58 109 L 60 113 L 62 115 L 62 117 L 64 121 L 64 124 L 57 131 L 56 130 L 56 126 L 54 122 L 54 119 L 52 115 L 52 112 L 51 111 L 49 103 L 47 100 L 46 95 L 44 92 L 44 89 L 43 88 L 43 81 L 42 80 L 42 16 Z" fill="currentColor" fill-rule="evenodd" clip-rule="evenodd"/>
</svg>