<svg xmlns="http://www.w3.org/2000/svg" viewBox="0 0 33 154" fill="none">
  <path d="M 15 2 L 13 6 L 13 17 L 16 25 L 15 91 L 14 92 L 12 92 L 9 95 L 10 107 L 9 108 L 9 113 L 8 114 L 8 118 L 6 123 L 6 127 L 5 128 L 5 131 L 3 136 L 3 141 L 2 142 L 2 152 L 3 153 L 29 153 L 29 149 L 30 148 L 30 140 L 29 139 L 29 129 L 28 128 L 28 124 L 26 119 L 25 105 L 24 104 L 24 102 L 25 101 L 25 93 L 21 90 L 21 28 L 20 27 L 20 24 L 21 23 L 21 19 L 23 16 L 23 4 L 22 2 Z M 5 142 L 7 141 L 8 143 L 6 144 Z M 26 138 L 27 139 L 26 140 L 27 143 L 25 145 L 23 140 Z M 22 102 L 23 103 L 23 113 L 19 123 L 21 151 L 20 152 L 14 152 L 13 153 L 11 153 L 10 152 L 10 145 L 11 144 L 11 135 L 12 134 L 12 126 L 13 125 L 13 116 L 11 112 L 11 106 L 13 102 Z M 11 96 L 13 94 L 15 94 L 16 95 L 20 95 L 22 94 L 23 95 L 23 98 L 21 100 L 15 100 L 13 99 Z M 18 78 L 19 79 L 19 88 L 18 89 L 17 88 L 17 79 Z M 16 10 L 20 10 L 21 11 L 20 19 L 18 22 L 15 14 L 15 11 Z M 15 5 L 16 4 L 19 4 L 20 6 L 19 7 L 16 7 Z" fill="currentColor" fill-rule="evenodd" clip-rule="evenodd"/>
</svg>