<svg xmlns="http://www.w3.org/2000/svg" viewBox="0 0 107 224" fill="none">
  <path d="M 106 102 L 103 102 L 103 105 L 104 106 L 103 109 L 104 109 L 106 106 Z M 104 9 L 103 9 L 101 13 L 101 17 L 100 18 L 100 23 L 101 24 L 98 30 L 97 37 L 96 38 L 94 38 L 89 33 L 87 29 L 87 25 L 86 23 L 82 20 L 81 16 L 77 11 L 76 5 L 75 4 L 75 2 L 74 2 L 75 10 L 77 14 L 75 17 L 77 19 L 78 22 L 74 25 L 68 37 L 68 46 L 70 48 L 70 55 L 67 59 L 61 56 L 58 56 L 54 60 L 53 60 L 50 53 L 47 51 L 47 47 L 48 46 L 48 41 L 49 40 L 49 35 L 51 30 L 51 26 L 52 25 L 53 20 L 57 13 L 57 12 L 56 12 L 50 24 L 50 28 L 49 29 L 48 37 L 47 38 L 47 43 L 45 48 L 45 52 L 47 55 L 47 69 L 46 70 L 36 70 L 35 69 L 31 69 L 26 67 L 13 67 L 11 65 L 9 65 L 7 67 L 5 67 L 2 69 L 2 75 L 4 77 L 7 77 L 8 78 L 8 89 L 9 90 L 9 113 L 10 114 L 10 136 L 6 140 L 6 144 L 7 145 L 9 145 L 11 147 L 10 175 L 11 176 L 11 189 L 12 190 L 12 198 L 13 199 L 13 207 L 7 211 L 6 215 L 11 220 L 15 222 L 19 220 L 24 222 L 32 221 L 33 220 L 73 220 L 75 219 L 77 216 L 77 210 L 73 208 L 75 206 L 78 206 L 79 205 L 88 205 L 89 204 L 98 204 L 99 203 L 102 203 L 103 204 L 106 214 L 106 207 L 105 206 L 105 203 L 103 199 L 103 196 L 101 192 L 101 189 L 100 188 L 100 185 L 99 184 L 99 181 L 97 176 L 97 172 L 96 171 L 96 167 L 95 166 L 95 161 L 94 160 L 94 155 L 92 150 L 92 147 L 94 146 L 96 148 L 96 151 L 97 152 L 99 163 L 101 167 L 103 178 L 106 185 L 106 188 L 106 169 L 104 165 L 106 162 L 106 160 L 105 161 L 103 159 L 103 157 L 104 156 L 106 156 L 106 154 L 102 154 L 100 150 L 100 147 L 101 146 L 106 146 L 106 144 L 99 144 L 98 143 L 99 141 L 106 141 L 106 131 L 103 124 L 103 122 L 104 121 L 105 121 L 106 123 L 106 113 L 105 116 L 102 120 L 102 122 L 97 132 L 97 134 L 92 143 L 92 145 L 90 147 L 89 146 L 89 144 L 102 115 L 98 109 L 88 111 L 84 105 L 86 101 L 91 101 L 92 100 L 96 101 L 97 100 L 106 99 L 106 97 L 102 97 L 101 98 L 97 98 L 96 99 L 86 99 L 85 98 L 85 91 L 86 90 L 102 85 L 105 83 L 106 78 L 106 79 L 101 84 L 95 85 L 88 88 L 86 88 L 85 87 L 85 83 L 84 81 L 82 80 L 82 82 L 84 86 L 82 90 L 81 89 L 80 84 L 74 79 L 75 77 L 75 71 L 81 65 L 84 66 L 87 63 L 92 50 L 106 30 L 106 28 L 104 28 L 102 30 L 102 33 L 100 35 L 99 34 L 100 28 L 103 24 L 103 22 L 104 21 L 102 18 L 102 14 Z M 12 211 L 14 212 L 14 216 L 13 217 L 11 216 L 11 212 Z M 102 200 L 99 202 L 89 202 L 88 203 L 78 203 L 77 204 L 73 204 L 71 202 L 71 199 L 72 198 L 76 198 L 77 197 L 83 198 L 84 197 L 90 197 L 91 196 L 93 197 L 94 196 L 100 195 Z M 72 189 L 73 190 L 73 194 L 72 195 L 71 194 L 69 194 L 69 198 L 68 199 L 67 198 L 67 193 L 69 190 L 71 190 Z M 99 188 L 99 192 L 98 193 L 94 193 L 93 194 L 89 194 L 88 195 L 76 195 L 75 194 L 75 189 L 76 188 L 79 188 L 80 189 L 87 189 L 93 186 L 97 186 Z M 97 181 L 97 183 L 96 184 L 93 184 L 92 185 L 75 186 L 73 184 L 73 183 L 77 180 L 89 180 L 90 179 L 95 178 Z M 91 164 L 94 166 L 94 169 L 95 170 L 95 176 L 94 177 L 90 177 L 89 176 L 89 166 Z M 91 158 L 93 160 L 92 162 L 90 162 L 89 161 Z M 70 154 L 72 156 L 72 163 L 70 164 L 69 163 L 69 161 L 68 161 L 68 168 L 70 168 L 71 169 L 71 170 L 69 171 L 69 175 L 71 175 L 72 176 L 72 180 L 69 183 L 71 186 L 69 187 L 69 189 L 68 190 L 67 189 L 67 183 L 66 182 L 66 156 Z M 80 152 L 81 153 L 81 172 L 80 173 L 80 177 L 79 178 L 76 178 L 75 177 L 75 169 L 76 168 L 76 156 L 75 155 L 78 152 Z M 87 150 L 88 151 L 87 175 L 84 177 L 83 176 L 83 152 Z M 79 149 L 77 151 L 75 151 L 74 152 L 66 152 L 65 151 L 66 149 L 73 149 L 74 148 L 78 148 Z M 32 143 L 34 145 L 35 162 L 36 163 L 36 202 L 37 203 L 37 208 L 35 210 L 22 211 L 18 209 L 16 146 L 18 144 Z M 53 140 L 55 140 L 57 143 L 57 147 L 56 148 L 53 148 L 51 146 L 51 142 Z M 8 141 L 10 140 L 11 142 L 9 143 Z M 15 141 L 17 138 L 26 138 L 27 137 L 37 137 L 38 138 L 36 141 L 25 141 L 24 142 L 18 142 L 17 143 Z M 77 135 L 78 136 L 78 138 L 77 139 L 76 138 L 76 136 Z M 55 135 L 56 137 L 54 139 L 53 137 Z M 81 133 L 82 134 L 82 144 L 81 145 L 79 141 L 79 137 Z M 43 128 L 54 128 L 57 130 L 49 139 L 50 149 L 51 150 L 60 150 L 61 151 L 61 153 L 64 155 L 64 180 L 65 181 L 65 192 L 66 193 L 65 195 L 64 208 L 62 210 L 60 210 L 59 211 L 53 211 L 52 210 L 50 210 L 50 211 L 54 213 L 56 213 L 57 212 L 71 212 L 72 211 L 74 211 L 76 213 L 76 215 L 74 217 L 69 217 L 68 218 L 53 218 L 48 215 L 37 215 L 36 216 L 30 216 L 26 218 L 23 218 L 18 216 L 18 213 L 19 212 L 24 213 L 25 212 L 34 212 L 35 211 L 42 210 L 39 206 L 39 200 L 37 196 L 38 194 L 38 192 L 37 191 L 38 189 L 38 186 L 37 185 L 38 183 L 38 180 L 37 179 L 37 177 L 38 176 L 37 174 L 37 156 L 38 155 L 37 143 L 39 141 L 41 144 L 41 162 L 42 163 L 42 180 L 43 181 L 43 200 L 44 201 L 44 210 L 47 210 L 45 207 L 44 170 L 43 169 L 43 150 L 42 149 L 42 129 Z M 102 127 L 106 137 L 104 139 L 99 139 L 97 140 L 96 138 L 98 135 L 98 133 L 100 129 Z M 70 125 L 71 126 L 71 128 L 67 135 L 67 137 L 65 141 L 64 140 L 64 136 L 65 135 L 65 133 L 67 131 L 68 127 Z M 82 124 L 83 126 L 80 131 L 79 130 L 79 128 Z M 79 124 L 80 125 L 76 133 L 76 135 L 75 136 L 75 142 L 74 143 L 72 140 L 72 136 L 75 131 L 75 129 L 77 125 Z M 75 123 L 76 124 L 76 126 L 71 136 L 72 146 L 70 147 L 68 144 L 67 138 L 72 128 L 72 126 Z M 61 117 L 61 120 L 62 121 L 62 125 L 61 126 L 57 126 L 56 127 L 54 126 L 44 126 L 42 124 L 43 122 L 49 121 L 59 116 Z M 98 115 L 99 116 L 98 122 L 90 137 L 90 139 L 88 141 L 86 139 L 86 137 L 90 130 L 90 128 L 96 116 Z M 95 112 L 96 113 L 95 114 L 95 116 L 93 118 L 93 120 L 88 129 L 88 131 L 85 135 L 84 134 L 84 132 L 87 127 L 87 124 L 88 123 L 88 114 L 91 112 Z M 82 93 L 83 94 L 83 107 L 82 109 L 85 111 L 86 118 L 85 119 L 82 119 L 80 121 L 74 121 L 70 123 L 64 122 L 63 121 L 62 102 L 64 100 L 73 99 L 79 92 L 80 93 Z M 48 83 L 54 86 L 52 89 L 52 91 L 54 93 L 54 97 L 53 98 L 48 98 L 44 95 L 44 92 L 46 89 L 46 87 Z M 76 83 L 79 87 L 79 90 L 73 97 L 63 98 L 61 99 L 58 103 L 57 102 L 57 96 L 56 95 L 56 93 L 58 91 L 60 91 L 60 89 L 56 89 L 55 88 L 57 86 L 68 84 L 71 82 Z M 42 79 L 45 79 L 46 80 L 46 84 L 45 85 L 44 90 L 42 93 L 42 97 L 44 99 L 46 99 L 47 100 L 53 100 L 54 99 L 55 100 L 55 103 L 57 105 L 60 105 L 61 106 L 61 112 L 58 115 L 46 120 L 42 120 L 41 119 L 41 110 L 40 109 L 40 91 L 39 90 L 39 81 Z M 35 79 L 36 79 L 38 82 L 38 102 L 39 103 L 39 123 L 40 124 L 40 134 L 39 135 L 36 133 L 36 119 L 35 118 L 36 116 L 36 104 L 35 103 L 35 93 L 34 92 L 34 80 Z M 55 78 L 55 80 L 52 83 L 50 81 L 48 81 L 47 80 L 49 78 L 53 78 L 54 77 Z M 16 75 L 20 75 L 31 81 L 31 90 L 32 91 L 33 108 L 34 109 L 34 118 L 35 119 L 35 128 L 34 129 L 34 134 L 33 135 L 28 135 L 27 136 L 16 136 L 15 135 L 14 77 Z M 63 74 L 64 75 L 64 78 L 62 81 L 61 80 L 61 78 Z M 57 71 L 58 71 L 60 74 L 60 78 L 58 81 L 57 80 L 57 74 L 56 73 Z M 64 71 L 66 70 L 67 71 L 67 73 L 66 74 Z M 13 71 L 15 69 L 25 69 L 29 71 L 34 71 L 35 72 L 49 72 L 50 73 L 50 75 L 49 76 L 45 76 L 41 78 L 38 78 L 37 77 L 30 78 L 21 73 L 15 73 Z M 65 61 L 65 66 L 66 68 L 61 70 L 60 69 L 61 62 L 60 62 L 59 67 L 53 74 L 50 68 L 51 66 L 49 65 L 49 63 L 50 62 L 53 64 L 58 58 L 60 58 Z M 74 51 L 77 54 L 79 59 L 84 61 L 75 68 L 72 67 L 74 75 L 73 77 L 69 81 L 68 81 L 67 80 L 69 76 L 69 72 L 68 71 L 68 63 L 69 62 L 72 52 Z M 74 30 L 85 29 L 88 35 L 95 41 L 95 43 L 93 45 L 87 57 L 84 57 L 78 51 L 74 49 L 69 44 L 70 36 Z M 84 24 L 84 26 L 83 27 L 79 27 L 78 28 L 76 26 L 80 22 Z" fill="currentColor" fill-rule="evenodd" clip-rule="evenodd"/>
</svg>