<svg xmlns="http://www.w3.org/2000/svg" viewBox="0 0 174 139" fill="none">
  <path d="M 3 14 L 3 16 L 2 17 L 2 58 L 3 59 L 3 123 L 10 129 L 12 129 L 18 132 L 25 133 L 26 134 L 39 135 L 40 136 L 73 136 L 74 135 L 86 134 L 87 133 L 90 133 L 100 129 L 105 124 L 105 106 L 106 105 L 107 105 L 113 111 L 113 112 L 124 122 L 131 125 L 139 125 L 147 121 L 150 117 L 165 103 L 169 102 L 173 98 L 173 94 L 169 99 L 167 100 L 165 99 L 166 94 L 157 83 L 155 79 L 141 62 L 132 49 L 130 47 L 128 48 L 126 47 L 126 45 L 130 39 L 135 36 L 137 36 L 146 45 L 149 50 L 166 69 L 171 76 L 173 81 L 173 74 L 167 66 L 169 63 L 173 61 L 173 58 L 165 63 L 157 54 L 161 47 L 173 31 L 173 27 L 168 33 L 156 51 L 155 51 L 148 44 L 148 43 L 140 34 L 133 34 L 127 39 L 123 46 L 122 50 L 112 58 L 108 60 L 106 58 L 106 16 L 101 10 L 97 8 L 95 8 L 88 5 L 85 5 L 84 4 L 72 3 L 71 2 L 38 2 L 37 3 L 31 3 L 30 4 L 25 4 L 24 5 L 17 6 L 14 8 L 12 8 L 8 10 Z M 160 98 L 163 101 L 162 103 L 156 109 L 155 109 L 154 108 L 159 102 L 159 99 Z M 94 64 L 100 63 L 101 62 L 107 62 L 109 63 L 111 66 L 111 74 L 116 77 L 125 77 L 130 81 L 130 84 L 131 85 L 130 87 L 130 94 L 133 101 L 137 105 L 146 109 L 149 113 L 148 116 L 144 120 L 142 120 L 141 121 L 130 121 L 129 120 L 127 120 L 110 104 L 101 91 L 93 76 L 92 66 Z M 119 56 L 120 57 L 118 60 L 113 63 L 112 61 L 115 58 Z M 124 51 L 133 61 L 160 97 L 160 98 L 150 107 L 148 107 L 147 106 L 154 99 L 154 96 L 153 96 L 145 104 L 142 104 L 141 102 L 150 94 L 151 91 L 149 91 L 140 100 L 137 101 L 135 99 L 135 98 L 145 89 L 146 86 L 144 86 L 144 87 L 135 95 L 134 95 L 132 92 L 138 86 L 139 86 L 142 82 L 142 80 L 141 80 L 134 87 L 133 86 L 133 82 L 138 77 L 138 75 L 137 75 L 133 79 L 131 78 L 131 75 L 134 72 L 134 69 L 133 69 L 128 75 L 126 75 L 124 73 L 129 68 L 130 65 L 128 65 L 128 66 L 122 72 L 120 73 L 118 72 L 127 63 L 128 60 L 126 60 L 124 63 L 116 70 L 114 70 L 113 69 L 114 66 L 117 64 L 124 56 L 122 53 Z M 15 16 L 18 14 L 20 14 L 24 12 L 37 11 L 38 10 L 70 10 L 71 11 L 84 12 L 85 13 L 90 14 L 94 17 L 90 20 L 84 21 L 83 22 L 77 22 L 76 23 L 68 23 L 67 24 L 43 24 L 42 23 L 33 23 L 32 22 L 23 21 L 22 20 L 17 19 Z M 88 10 L 89 9 L 91 9 L 92 10 L 91 11 L 89 11 Z M 8 13 L 14 10 L 16 10 L 20 8 L 23 8 L 24 7 L 27 7 L 28 6 L 33 6 L 34 5 L 46 5 L 47 4 L 74 5 L 75 6 L 85 7 L 89 9 L 88 10 L 84 10 L 83 9 L 68 8 L 67 7 L 42 7 L 41 8 L 33 8 L 32 9 L 22 10 L 21 11 L 16 12 L 12 16 L 12 18 L 15 21 L 19 23 L 27 24 L 28 25 L 35 25 L 36 26 L 73 26 L 74 25 L 81 25 L 82 24 L 89 23 L 94 21 L 96 19 L 96 14 L 91 11 L 92 10 L 94 10 L 100 13 L 104 17 L 104 58 L 102 60 L 95 61 L 94 62 L 92 62 L 90 64 L 90 74 L 91 75 L 91 77 L 90 78 L 85 75 L 78 68 L 70 57 L 63 43 L 65 40 L 65 37 L 61 34 L 58 35 L 56 37 L 56 42 L 62 46 L 62 48 L 65 54 L 67 56 L 72 65 L 84 78 L 89 81 L 91 81 L 95 85 L 99 93 L 103 98 L 103 123 L 100 126 L 94 129 L 92 129 L 88 131 L 84 131 L 83 132 L 77 132 L 76 133 L 64 133 L 63 134 L 50 134 L 49 133 L 37 133 L 36 132 L 30 132 L 29 131 L 21 130 L 9 125 L 6 122 L 5 120 L 5 16 Z" fill="currentColor" fill-rule="evenodd" clip-rule="evenodd"/>
</svg>