<svg xmlns="http://www.w3.org/2000/svg" viewBox="0 0 196 136" fill="none">
  <path d="M 87 71 L 87 73 L 92 73 L 93 69 L 89 69 Z M 48 69 L 48 72 L 49 73 L 53 73 L 54 72 L 52 69 Z M 71 54 L 69 57 L 70 58 L 73 58 L 74 57 L 74 55 Z M 89 40 L 89 43 L 90 44 L 94 44 L 94 41 L 93 40 Z M 56 40 L 52 40 L 51 41 L 51 44 L 54 44 L 56 42 Z M 0 29 L 0 51 L 4 50 L 6 46 L 11 49 L 11 51 L 8 55 L 8 59 L 10 62 L 5 66 L 3 66 L 2 65 L 3 64 L 3 62 L 0 62 L 0 96 L 1 96 L 27 121 L 27 125 L 26 127 L 24 128 L 1 105 L 0 105 L 0 109 L 1 109 L 24 132 L 101 132 L 102 133 L 105 133 L 106 132 L 170 132 L 172 130 L 172 128 L 171 127 L 171 112 L 172 111 L 178 120 L 183 124 L 189 124 L 191 123 L 193 116 L 190 109 L 182 102 L 178 100 L 178 101 L 187 109 L 191 117 L 190 120 L 188 122 L 185 122 L 179 117 L 176 111 L 168 100 L 156 90 L 155 88 L 156 87 L 156 85 L 147 73 L 142 69 L 142 67 L 144 65 L 158 84 L 161 84 L 162 83 L 167 90 L 170 92 L 170 88 L 169 87 L 169 72 L 168 71 L 168 52 L 167 51 L 167 48 L 127 8 L 127 7 L 120 2 L 42 2 L 26 12 L 17 19 L 14 20 L 2 29 Z M 28 126 L 30 123 L 86 123 L 87 122 L 96 122 L 97 123 L 107 123 L 108 122 L 165 122 L 167 124 L 167 128 L 166 129 L 129 129 L 128 130 L 109 130 L 108 129 L 99 129 L 98 130 L 79 130 L 78 129 L 76 130 L 30 130 L 28 128 Z M 123 111 L 123 109 L 125 107 L 127 108 L 134 108 L 135 109 L 135 110 L 130 114 L 127 112 L 124 112 Z M 53 109 L 59 104 L 64 107 L 72 107 L 76 104 L 80 108 L 81 108 L 82 110 L 81 111 L 77 110 L 76 112 L 71 116 L 65 116 L 64 115 L 62 115 L 58 110 L 54 111 Z M 133 101 L 134 100 L 138 100 L 140 102 L 144 102 L 146 104 L 143 107 L 141 107 L 140 108 L 138 107 L 136 104 L 134 104 L 133 103 Z M 67 99 L 69 99 L 72 102 L 72 104 L 69 106 L 67 106 L 64 104 L 64 102 Z M 95 96 L 96 95 L 101 95 L 103 97 L 103 99 L 101 101 L 98 101 L 95 98 Z M 33 98 L 34 96 L 37 94 L 39 94 L 42 96 L 42 98 L 39 101 L 35 101 Z M 135 91 L 137 88 L 145 88 L 146 89 L 146 90 L 141 94 L 139 94 Z M 80 87 L 85 82 L 86 82 L 88 85 L 90 86 L 93 86 L 94 84 L 97 83 L 103 87 L 103 90 L 99 93 L 92 93 L 89 91 L 87 93 L 84 94 L 80 91 Z M 88 82 L 91 80 L 94 82 L 94 84 L 93 85 L 90 85 Z M 35 87 L 38 84 L 40 84 L 42 82 L 45 86 L 48 86 L 48 85 L 46 85 L 45 84 L 45 82 L 47 80 L 49 80 L 51 83 L 54 82 L 57 85 L 58 90 L 57 92 L 54 94 L 51 93 L 49 91 L 45 93 L 39 93 L 36 91 Z M 97 78 L 98 77 L 102 77 L 106 81 L 106 82 L 102 84 L 97 80 Z M 33 81 L 34 79 L 37 77 L 42 77 L 43 78 L 43 79 L 39 83 L 35 83 Z M 119 78 L 121 76 L 125 76 L 127 78 L 127 81 L 126 82 L 122 82 Z M 11 79 L 14 76 L 19 76 L 20 77 L 20 79 L 16 82 L 14 82 Z M 102 71 L 103 70 L 105 70 L 107 71 L 108 73 L 106 75 L 104 75 L 102 73 Z M 157 70 L 158 69 L 162 69 L 166 71 L 164 73 L 160 74 Z M 108 65 L 116 65 L 119 68 L 116 71 L 116 73 L 118 75 L 118 78 L 113 82 L 108 81 L 105 77 L 108 75 L 109 72 L 108 72 L 107 70 L 104 68 Z M 26 64 L 31 64 L 32 65 L 34 65 L 36 67 L 35 70 L 37 70 L 39 72 L 35 75 L 33 73 L 33 71 L 32 71 L 32 75 L 34 76 L 34 78 L 31 81 L 25 81 L 21 77 L 22 74 L 24 72 L 24 70 L 22 67 Z M 138 74 L 136 78 L 137 80 L 137 84 L 134 87 L 130 87 L 129 90 L 127 92 L 124 93 L 121 86 L 119 85 L 119 87 L 121 89 L 121 94 L 118 96 L 112 96 L 107 94 L 107 95 L 111 97 L 115 97 L 117 99 L 114 102 L 110 103 L 110 105 L 106 109 L 99 109 L 97 108 L 94 110 L 92 110 L 90 108 L 90 106 L 86 108 L 84 108 L 79 104 L 80 100 L 76 102 L 72 100 L 70 97 L 70 93 L 72 89 L 80 82 L 81 83 L 79 87 L 79 92 L 80 94 L 82 95 L 86 95 L 90 93 L 94 96 L 93 98 L 96 102 L 102 102 L 105 99 L 105 97 L 102 93 L 104 90 L 104 87 L 106 84 L 108 83 L 114 83 L 117 81 L 120 83 L 127 83 L 129 81 L 129 78 L 126 75 L 121 75 L 118 72 L 120 68 L 120 66 L 118 64 L 116 64 L 115 63 L 107 64 L 106 63 L 112 59 L 114 59 L 115 58 L 124 58 L 128 61 L 126 65 L 128 64 L 133 65 L 135 68 L 135 70 L 133 73 L 136 72 Z M 108 59 L 102 64 L 100 67 L 99 71 L 95 76 L 90 78 L 83 79 L 77 82 L 73 86 L 71 85 L 72 79 L 75 76 L 79 76 L 82 74 L 83 72 L 83 66 L 84 65 L 86 66 L 92 66 L 96 63 L 97 60 L 100 58 L 107 58 Z M 35 59 L 36 58 L 43 58 L 46 61 L 46 64 L 49 66 L 55 66 L 56 65 L 58 65 L 59 66 L 58 67 L 57 72 L 59 75 L 61 76 L 65 76 L 67 78 L 67 85 L 66 86 L 61 81 L 57 79 L 50 78 L 47 76 L 45 76 L 41 69 L 40 64 Z M 2 73 L 3 72 L 7 72 L 5 68 L 9 64 L 15 64 L 14 62 L 14 60 L 19 57 L 29 58 L 33 60 L 36 63 L 35 64 L 33 63 L 25 63 L 23 64 L 21 67 L 22 72 L 20 74 L 13 75 L 11 77 L 10 81 L 12 83 L 17 83 L 20 81 L 22 81 L 26 83 L 31 83 L 34 86 L 34 91 L 35 92 L 35 95 L 32 97 L 32 100 L 34 102 L 39 102 L 43 99 L 43 96 L 47 93 L 51 95 L 55 95 L 57 94 L 59 91 L 59 85 L 58 84 L 59 83 L 62 84 L 66 89 L 66 91 L 67 92 L 67 97 L 61 102 L 57 100 L 57 104 L 54 107 L 52 107 L 51 108 L 45 105 L 45 108 L 43 110 L 41 110 L 39 108 L 37 108 L 36 109 L 30 109 L 26 106 L 26 103 L 25 102 L 23 102 L 20 100 L 20 98 L 21 97 L 28 96 L 29 94 L 24 96 L 20 96 L 16 93 L 17 88 L 16 88 L 14 92 L 11 92 L 9 90 L 8 87 L 5 87 L 1 83 L 1 81 L 3 78 Z M 129 53 L 133 56 L 133 58 L 130 60 L 126 57 Z M 12 53 L 14 53 L 17 56 L 14 59 L 11 59 L 9 56 Z M 86 48 L 93 48 L 95 50 L 93 53 L 97 54 L 98 55 L 98 57 L 94 60 L 95 62 L 92 65 L 87 65 L 86 64 L 84 64 L 80 60 L 82 58 L 82 56 L 83 55 L 85 55 L 86 56 L 85 58 L 87 57 L 87 55 L 86 54 L 82 54 L 81 53 L 81 51 Z M 50 48 L 58 48 L 63 52 L 62 54 L 58 54 L 58 55 L 56 56 L 56 57 L 57 57 L 58 55 L 60 55 L 61 56 L 62 61 L 60 63 L 55 65 L 51 65 L 47 62 L 48 61 L 48 59 L 45 57 L 45 55 L 47 53 L 49 53 L 49 49 Z M 137 46 L 138 47 L 138 50 L 141 51 L 145 55 L 144 60 L 142 62 L 138 63 L 139 65 L 138 67 L 132 63 L 134 59 L 134 53 L 132 50 Z M 39 38 L 42 40 L 40 43 L 37 41 Z M 75 37 L 77 40 L 82 39 L 84 42 L 84 44 L 83 46 L 78 50 L 75 48 L 75 46 L 74 46 L 72 49 L 71 48 L 69 48 L 69 50 L 76 50 L 80 54 L 80 59 L 77 61 L 76 63 L 79 64 L 82 68 L 82 72 L 78 75 L 75 73 L 72 77 L 69 77 L 67 76 L 66 74 L 61 74 L 59 72 L 59 68 L 64 63 L 67 63 L 69 68 L 72 68 L 72 67 L 70 67 L 69 66 L 70 64 L 74 65 L 74 63 L 68 63 L 63 59 L 63 54 L 67 51 L 67 50 L 62 46 L 61 42 L 64 39 L 68 40 L 70 37 Z M 109 33 L 115 33 L 119 37 L 119 39 L 117 41 L 117 43 L 119 46 L 117 48 L 109 48 L 106 46 L 106 43 L 104 43 L 103 42 L 103 40 L 104 39 L 107 39 L 108 40 L 108 42 L 109 42 L 109 39 L 106 37 Z M 120 36 L 120 34 L 123 32 L 125 32 L 128 35 L 125 38 L 122 38 Z M 32 32 L 36 32 L 38 34 L 39 37 L 36 39 L 36 42 L 38 43 L 39 45 L 37 47 L 35 47 L 34 48 L 28 48 L 25 45 L 29 42 L 27 39 L 27 36 Z M 19 34 L 21 32 L 23 32 L 25 33 L 26 35 L 24 37 L 21 37 Z M 107 33 L 107 34 L 103 37 L 100 37 L 99 36 L 99 34 L 102 31 L 105 31 Z M 39 32 L 40 31 L 45 31 L 47 33 L 47 35 L 44 37 L 42 36 Z M 91 31 L 92 30 L 95 30 L 96 32 L 93 34 Z M 75 30 L 77 29 L 83 34 L 97 38 L 100 42 L 101 47 L 108 54 L 107 55 L 101 55 L 97 52 L 96 48 L 94 47 L 85 47 L 84 46 L 85 44 L 84 39 L 77 37 L 75 34 Z M 105 26 L 105 28 L 99 32 L 98 32 L 96 29 L 92 29 L 91 31 L 88 32 L 84 28 L 84 25 L 86 23 L 94 24 L 98 22 L 103 24 Z M 42 28 L 42 26 L 45 23 L 47 23 L 48 22 L 51 22 L 54 24 L 56 24 L 58 22 L 61 22 L 64 25 L 63 28 L 59 32 L 56 31 L 55 29 L 54 29 L 54 30 L 56 31 L 55 33 L 52 33 L 50 31 L 47 31 Z M 43 18 L 45 16 L 48 16 L 50 18 L 50 20 L 49 21 L 45 21 Z M 75 20 L 79 16 L 82 16 L 85 18 L 84 14 L 88 11 L 91 11 L 95 13 L 95 11 L 96 10 L 99 10 L 100 11 L 102 10 L 108 10 L 112 14 L 112 15 L 114 15 L 117 17 L 117 19 L 116 20 L 112 20 L 110 21 L 110 22 L 112 21 L 120 21 L 122 24 L 120 29 L 121 29 L 124 24 L 126 24 L 128 25 L 130 28 L 132 28 L 136 31 L 137 33 L 136 35 L 137 40 L 136 41 L 133 41 L 135 44 L 135 46 L 131 49 L 126 48 L 128 52 L 125 55 L 116 55 L 109 52 L 107 50 L 108 49 L 113 50 L 114 49 L 119 48 L 120 46 L 120 44 L 118 42 L 120 39 L 125 39 L 127 38 L 129 34 L 128 32 L 126 31 L 123 31 L 119 33 L 117 33 L 116 32 L 110 32 L 106 29 L 106 25 L 105 24 L 107 17 L 104 15 L 102 15 L 102 16 L 105 18 L 105 20 L 103 22 L 101 22 L 98 20 L 100 16 L 97 18 L 97 20 L 94 23 L 90 21 L 86 21 L 83 24 L 83 30 L 82 31 L 81 31 L 77 27 L 75 23 Z M 72 18 L 73 22 L 71 26 L 68 29 L 68 30 L 70 29 L 72 30 L 71 35 L 67 38 L 63 38 L 60 41 L 60 46 L 59 47 L 50 47 L 50 48 L 48 49 L 44 54 L 36 54 L 35 53 L 42 48 L 48 38 L 55 35 L 60 35 L 66 32 L 66 31 L 64 32 L 63 31 L 65 27 L 64 22 L 62 21 L 53 22 L 51 20 L 51 17 L 49 15 L 44 15 L 41 18 L 41 20 L 43 23 L 41 26 L 41 28 L 38 31 L 32 31 L 28 33 L 26 31 L 21 30 L 17 33 L 17 37 L 21 39 L 25 39 L 26 40 L 26 42 L 24 45 L 25 48 L 27 49 L 35 49 L 37 48 L 38 49 L 36 51 L 30 54 L 20 55 L 15 51 L 17 48 L 12 48 L 9 45 L 12 41 L 12 40 L 10 41 L 8 40 L 10 30 L 12 28 L 17 28 L 21 23 L 23 23 L 25 28 L 27 29 L 26 27 L 26 22 L 29 20 L 35 20 L 39 22 L 38 20 L 32 19 L 31 17 L 33 15 L 36 15 L 40 10 L 50 10 L 51 9 L 53 9 L 55 12 L 62 11 L 65 14 L 64 17 L 66 16 L 70 16 Z M 63 10 L 64 9 L 67 9 L 67 8 L 71 5 L 79 5 L 81 6 L 83 9 L 86 9 L 87 10 L 83 13 L 76 12 L 78 15 L 75 18 L 71 15 L 73 12 L 67 13 Z" fill="currentColor" fill-rule="evenodd" clip-rule="evenodd"/>
</svg>