<svg xmlns="http://www.w3.org/2000/svg" viewBox="0 0 101 155" fill="none">
  <path d="M 19 125 L 16 125 L 16 128 L 15 129 L 15 132 L 13 135 L 13 138 L 15 138 L 17 135 Z M 90 2 L 86 2 L 84 4 L 78 7 L 71 8 L 70 9 L 59 9 L 55 4 L 52 4 L 49 6 L 46 6 L 43 4 L 40 4 L 39 5 L 37 10 L 37 13 L 35 17 L 34 24 L 31 31 L 30 39 L 29 40 L 30 42 L 30 52 L 32 52 L 34 54 L 33 55 L 31 63 L 29 66 L 24 83 L 20 91 L 17 103 L 15 106 L 7 132 L 5 135 L 5 137 L 2 144 L 2 147 L 6 153 L 8 154 L 14 154 L 16 153 L 19 149 L 19 145 L 20 144 L 22 134 L 24 130 L 27 115 L 29 111 L 29 107 L 33 96 L 33 92 L 37 81 L 37 77 L 41 66 L 43 56 L 44 55 L 47 55 L 57 60 L 59 62 L 68 67 L 74 73 L 77 72 L 89 58 L 94 48 L 94 46 L 96 42 L 96 39 L 97 38 L 97 32 L 98 31 L 98 22 L 97 21 L 96 12 Z M 6 148 L 8 147 L 9 145 L 12 145 L 13 146 L 12 148 L 15 148 L 16 149 L 12 153 L 9 152 Z M 19 107 L 22 111 L 25 111 L 26 112 L 25 113 L 24 118 L 23 119 L 20 119 L 23 123 L 22 124 L 21 131 L 19 134 L 18 142 L 16 144 L 14 144 L 13 145 L 11 142 L 9 142 L 8 143 L 9 145 L 8 146 L 6 146 L 5 145 L 5 143 L 6 142 L 7 137 L 9 134 L 9 131 L 12 126 L 13 120 L 16 115 L 17 116 L 19 116 L 20 115 L 20 114 L 17 114 L 16 113 L 17 109 Z M 24 91 L 26 91 L 28 93 L 26 96 L 24 96 L 26 99 L 25 100 L 25 102 L 27 102 L 28 103 L 28 105 L 26 108 L 20 103 L 20 101 L 22 97 L 22 94 Z M 33 70 L 35 74 L 34 81 L 31 83 L 29 87 L 26 87 L 25 85 L 27 82 L 27 80 L 29 77 L 31 77 L 29 74 L 30 72 Z M 34 70 L 34 68 L 36 67 L 37 69 L 35 71 Z M 34 61 L 35 60 L 37 61 L 38 63 L 37 64 L 35 64 L 34 63 Z M 35 59 L 38 57 L 40 58 L 38 60 L 36 60 Z M 38 52 L 38 50 L 39 49 L 42 51 L 40 53 Z M 32 43 L 34 41 L 37 43 L 41 44 L 43 46 L 52 51 L 60 58 L 58 59 L 54 56 L 47 54 L 44 51 L 44 49 L 41 47 L 37 47 L 34 50 L 32 46 Z M 42 6 L 53 10 L 72 10 L 74 14 L 80 18 L 80 23 L 73 28 L 73 35 L 76 39 L 76 44 L 72 47 L 65 47 L 59 54 L 50 47 L 33 38 L 34 30 L 36 26 L 36 23 L 38 19 L 40 9 Z M 88 4 L 92 9 L 92 11 L 94 14 L 94 18 L 95 19 L 95 34 L 94 35 L 94 40 L 93 41 L 91 49 L 86 58 L 76 68 L 73 67 L 64 58 L 63 53 L 67 48 L 75 48 L 79 46 L 80 44 L 80 38 L 76 34 L 75 31 L 78 27 L 81 27 L 84 23 L 84 19 L 82 15 L 78 14 L 76 12 L 76 10 L 79 8 L 82 8 Z" fill="currentColor" fill-rule="evenodd" clip-rule="evenodd"/>
</svg>