<svg xmlns="http://www.w3.org/2000/svg" viewBox="0 0 103 104" fill="none">
  <path d="M 84 53 L 84 54 L 88 55 L 87 53 Z M 0 15 L 0 17 L 1 17 L 7 24 L 7 27 L 4 32 L 0 34 L 0 36 L 2 36 L 8 31 L 9 29 L 9 22 L 4 16 Z M 0 2 L 0 4 L 5 5 L 11 9 L 16 14 L 18 18 L 18 26 L 16 30 L 7 39 L 3 41 L 0 41 L 0 44 L 2 44 L 6 41 L 16 40 L 17 39 L 21 39 L 28 36 L 32 36 L 65 23 L 76 22 L 77 21 L 80 21 L 81 22 L 96 21 L 97 22 L 96 36 L 93 39 L 91 38 L 93 41 L 91 44 L 92 48 L 90 53 L 91 55 L 91 62 L 88 64 L 82 64 L 81 65 L 76 65 L 75 66 L 67 67 L 66 68 L 60 69 L 56 71 L 53 71 L 52 72 L 50 72 L 49 73 L 47 73 L 25 81 L 18 82 L 17 83 L 0 88 L 0 90 L 14 85 L 16 85 L 17 86 L 16 90 L 10 96 L 4 99 L 2 99 L 0 100 L 0 101 L 4 101 L 15 95 L 15 94 L 17 93 L 19 90 L 20 85 L 24 82 L 27 82 L 28 81 L 36 79 L 39 77 L 42 77 L 43 76 L 45 76 L 52 73 L 55 73 L 59 71 L 62 71 L 66 69 L 69 69 L 74 67 L 78 67 L 79 66 L 90 65 L 94 63 L 94 60 L 96 59 L 96 57 L 93 54 L 93 52 L 94 51 L 95 42 L 97 40 L 99 35 L 99 22 L 100 21 L 100 19 L 95 19 L 94 20 L 73 20 L 72 21 L 66 21 L 62 23 L 59 23 L 56 25 L 54 25 L 51 27 L 49 27 L 44 30 L 39 31 L 36 33 L 26 35 L 25 36 L 15 38 L 14 39 L 13 37 L 17 33 L 20 28 L 20 25 L 21 24 L 21 19 L 20 18 L 20 16 L 17 11 L 13 7 L 5 3 Z" fill="currentColor" fill-rule="evenodd" clip-rule="evenodd"/>
</svg>