<svg xmlns="http://www.w3.org/2000/svg" viewBox="0 0 90 120" fill="none">
  <path d="M 89 9 L 85 9 L 80 11 L 78 14 L 73 16 L 69 21 L 64 22 L 58 27 L 54 28 L 50 33 L 50 37 L 49 38 L 50 44 L 39 54 L 39 56 L 38 57 L 39 61 L 43 65 L 43 67 L 46 69 L 46 71 L 43 74 L 43 82 L 42 83 L 43 86 L 45 88 L 48 89 L 52 94 L 56 95 L 60 99 L 61 102 L 63 104 L 66 105 L 67 106 L 67 108 L 71 111 L 81 111 L 82 112 L 86 112 L 89 110 L 89 106 L 87 106 L 88 108 L 87 110 L 83 110 L 82 109 L 74 110 L 73 109 L 71 109 L 69 107 L 69 104 L 64 102 L 63 101 L 63 99 L 64 98 L 68 98 L 72 96 L 72 95 L 70 95 L 69 96 L 61 96 L 59 94 L 59 90 L 62 86 L 58 89 L 56 93 L 54 93 L 51 90 L 51 88 L 50 87 L 47 87 L 44 84 L 45 74 L 46 73 L 50 74 L 50 72 L 48 70 L 48 68 L 51 65 L 58 65 L 56 62 L 59 59 L 61 59 L 62 58 L 68 58 L 69 59 L 74 60 L 77 63 L 76 64 L 71 63 L 70 64 L 65 65 L 64 66 L 64 71 L 65 72 L 62 75 L 57 75 L 53 78 L 53 82 L 55 84 L 60 84 L 62 82 L 65 82 L 70 84 L 74 84 L 76 86 L 76 91 L 77 92 L 77 95 L 74 98 L 74 101 L 76 103 L 81 103 L 86 99 L 86 97 L 89 93 L 87 94 L 82 94 L 78 91 L 78 87 L 80 85 L 82 85 L 85 83 L 86 85 L 89 87 L 89 85 L 87 84 L 87 83 L 89 82 L 89 77 L 84 71 L 84 67 L 83 65 L 78 60 L 79 59 L 85 59 L 88 61 L 88 64 L 89 65 L 89 59 L 87 57 L 89 54 L 89 52 L 86 55 L 79 55 L 78 54 L 86 47 L 89 41 L 89 37 L 85 37 L 82 34 L 82 33 L 85 31 L 89 34 L 89 31 L 85 29 L 86 25 L 87 24 L 89 24 L 89 22 L 85 19 L 87 17 L 89 17 L 89 16 L 86 16 L 84 18 L 85 24 L 83 27 L 83 29 L 80 32 L 73 32 L 72 33 L 70 33 L 67 31 L 68 30 L 70 30 L 68 26 L 68 24 L 71 21 L 81 22 L 81 21 L 76 20 L 74 18 L 76 16 L 80 15 L 83 11 L 85 11 L 86 10 L 88 10 L 89 11 Z M 81 95 L 84 97 L 84 99 L 82 101 L 79 102 L 76 100 L 76 98 L 78 96 Z M 76 82 L 79 78 L 84 78 L 85 79 L 85 80 L 81 84 L 78 84 Z M 54 79 L 58 76 L 60 76 L 62 78 L 62 80 L 60 82 L 56 82 Z M 75 73 L 77 71 L 80 71 L 81 72 L 79 75 L 77 75 Z M 69 65 L 74 65 L 78 68 L 78 69 L 74 72 L 74 75 L 76 76 L 77 78 L 73 82 L 68 82 L 64 78 L 65 74 L 68 72 L 65 68 Z M 54 54 L 57 54 L 59 56 L 56 60 L 52 57 Z M 50 47 L 54 51 L 52 53 L 50 58 L 52 63 L 46 67 L 45 66 L 46 63 L 43 62 L 40 59 L 40 56 L 43 52 L 47 51 L 48 50 L 48 48 Z M 79 41 L 82 39 L 84 42 L 83 43 L 81 43 Z M 78 33 L 81 36 L 81 38 L 78 40 L 78 43 L 80 44 L 81 46 L 79 48 L 76 48 L 75 49 L 70 48 L 68 46 L 68 45 L 71 43 L 71 41 L 69 39 L 70 36 L 72 34 Z M 61 35 L 63 33 L 66 33 L 68 35 L 68 37 L 67 38 L 64 38 L 62 37 Z M 63 24 L 66 24 L 67 25 L 68 30 L 67 31 L 63 31 L 60 33 L 60 38 L 62 39 L 66 39 L 69 42 L 67 44 L 67 48 L 69 50 L 77 50 L 78 49 L 79 50 L 78 52 L 71 55 L 61 55 L 58 52 L 61 48 L 55 49 L 52 46 L 52 44 L 55 42 L 55 41 L 52 41 L 51 40 L 51 38 L 52 37 L 52 32 L 55 29 L 60 28 Z M 89 2 L 28 2 L 26 5 L 26 9 L 25 10 L 25 14 L 24 15 L 24 18 L 22 23 L 22 27 L 20 32 L 20 36 L 18 41 L 16 55 L 15 56 L 15 59 L 13 64 L 13 68 L 12 69 L 12 73 L 10 78 L 10 82 L 9 83 L 9 87 L 7 92 L 7 96 L 5 101 L 5 105 L 3 110 L 2 119 L 4 119 L 5 114 L 6 113 L 6 110 L 7 109 L 9 95 L 11 90 L 11 86 L 12 85 L 12 81 L 13 80 L 13 76 L 14 75 L 14 71 L 15 70 L 16 61 L 18 56 L 18 52 L 19 51 L 19 47 L 20 46 L 20 42 L 21 41 L 21 37 L 23 32 L 23 28 L 24 27 L 24 23 L 26 18 L 26 14 L 27 13 L 28 5 L 31 3 L 33 3 L 34 4 L 89 4 Z" fill="currentColor" fill-rule="evenodd" clip-rule="evenodd"/>
</svg>