<svg xmlns="http://www.w3.org/2000/svg" viewBox="0 0 180 200" fill="none">
  <path d="M 47 171 L 47 173 L 49 174 L 52 174 L 60 177 L 64 177 L 65 178 L 68 178 L 73 180 L 77 180 L 78 181 L 88 181 L 88 180 L 73 178 L 72 177 L 57 174 L 50 171 Z M 65 165 L 65 166 L 67 167 L 70 167 L 71 168 L 74 168 L 79 170 L 83 170 L 84 171 L 87 171 L 92 173 L 97 173 L 96 171 L 92 171 L 91 170 L 80 168 L 72 165 Z M 19 159 L 20 161 L 22 161 L 23 162 L 32 163 L 36 165 L 47 167 L 60 172 L 62 172 L 63 171 L 63 170 L 61 170 L 58 168 L 56 168 L 46 164 L 42 164 L 41 163 L 38 163 L 30 160 Z M 179 157 L 177 161 L 177 166 L 178 167 L 179 176 Z M 15 148 L 16 150 L 19 150 L 20 151 L 29 152 L 30 153 L 33 153 L 34 154 L 37 154 L 38 155 L 41 155 L 42 156 L 45 156 L 50 158 L 54 158 L 55 159 L 59 159 L 60 160 L 64 160 L 65 161 L 69 161 L 70 162 L 75 162 L 74 160 L 70 160 L 69 159 L 60 158 L 55 156 L 51 156 L 50 155 L 35 152 L 31 150 L 21 149 L 20 148 Z M 64 144 L 64 145 L 69 147 L 72 147 L 83 151 L 94 153 L 93 151 L 91 151 L 90 150 L 86 150 L 75 146 Z M 32 143 L 32 145 L 37 147 L 57 151 L 57 149 L 55 148 L 46 147 L 42 145 Z M 88 139 L 88 140 L 90 140 L 94 142 L 97 142 L 98 143 L 101 143 L 105 145 L 108 145 L 109 146 L 112 146 L 113 147 L 118 148 L 118 146 L 116 146 L 109 143 L 102 142 L 94 139 Z M 42 118 L 43 120 L 46 120 L 51 122 L 58 122 L 59 123 L 65 123 L 66 124 L 70 124 L 71 125 L 77 125 L 78 126 L 91 127 L 93 128 L 93 126 L 88 126 L 87 125 L 77 124 L 76 123 L 66 122 L 65 121 L 59 121 L 54 119 Z M 48 112 L 48 113 L 50 114 L 61 114 L 62 115 L 65 115 L 65 113 Z M 84 97 L 84 98 L 87 98 L 88 99 L 94 99 L 95 100 L 100 100 L 101 101 L 126 102 L 126 101 L 118 101 L 117 100 L 111 100 L 110 99 L 104 99 L 103 98 Z M 57 94 L 58 96 L 72 97 L 72 95 Z M 167 91 L 157 91 L 156 92 L 154 92 L 148 96 L 144 100 L 139 109 L 139 112 L 138 113 L 138 128 L 140 132 L 148 138 L 150 138 L 154 140 L 161 140 L 172 134 L 179 127 L 179 124 L 177 123 L 179 120 L 179 106 L 177 103 L 167 98 L 155 98 L 153 99 L 148 104 L 145 110 L 145 112 L 144 113 L 144 123 L 145 124 L 146 129 L 150 134 L 149 135 L 146 134 L 140 127 L 140 124 L 139 123 L 140 113 L 143 105 L 150 97 L 158 93 L 166 93 L 167 94 L 173 95 L 179 99 L 179 96 L 178 95 Z M 167 134 L 165 136 L 160 138 L 156 138 L 151 136 L 152 135 L 159 135 L 164 133 L 166 133 Z M 161 115 L 166 116 L 168 119 L 168 122 L 165 126 L 164 125 L 164 122 L 162 120 L 160 120 L 159 121 L 157 120 L 157 118 Z M 171 112 L 173 116 L 171 120 L 170 119 L 170 117 L 166 113 L 160 113 L 157 115 L 155 119 L 156 128 L 155 129 L 152 126 L 152 118 L 157 112 L 162 110 L 167 110 Z M 177 107 L 179 111 L 179 115 L 177 118 L 176 122 L 173 125 L 172 123 L 174 120 L 174 117 L 175 116 L 174 112 L 169 108 L 160 108 L 156 110 L 152 114 L 150 118 L 150 127 L 149 128 L 147 126 L 147 124 L 146 123 L 146 113 L 147 112 L 148 107 L 153 102 L 155 101 L 159 101 L 160 100 L 166 100 L 169 102 L 171 102 Z M 52 86 L 52 87 L 54 88 L 58 88 L 59 89 L 62 89 L 63 88 L 63 87 L 61 87 L 60 86 Z M 74 85 L 74 86 L 77 86 L 78 87 L 87 87 L 88 88 L 97 88 L 98 89 L 110 89 L 111 90 L 131 91 L 131 90 L 129 89 L 121 89 L 120 88 L 111 88 L 110 87 L 101 87 L 100 86 L 84 86 L 83 85 Z M 83 49 L 80 51 L 80 53 L 81 54 L 83 54 L 85 52 Z M 82 35 L 81 36 L 81 39 L 84 39 L 85 36 L 84 35 Z M 82 22 L 80 25 L 81 26 L 84 26 L 85 23 L 84 22 Z M 13 15 L 12 16 L 12 29 L 16 31 L 15 32 L 8 32 L 6 33 L 6 39 L 5 40 L 5 45 L 6 46 L 6 48 L 3 53 L 3 56 L 2 57 L 2 59 L 5 62 L 6 67 L 12 67 L 13 66 L 25 65 L 26 64 L 75 63 L 76 64 L 76 76 L 75 77 L 62 77 L 61 76 L 56 77 L 53 80 L 49 82 L 39 92 L 36 97 L 35 103 L 34 104 L 34 112 L 33 113 L 33 116 L 35 121 L 34 122 L 33 121 L 27 121 L 26 122 L 24 122 L 16 128 L 10 136 L 10 138 L 9 139 L 9 158 L 10 159 L 10 164 L 9 165 L 8 172 L 10 174 L 12 174 L 17 177 L 26 178 L 27 179 L 32 179 L 33 180 L 42 181 L 47 183 L 51 183 L 52 184 L 67 187 L 71 189 L 74 189 L 82 192 L 85 192 L 88 194 L 90 194 L 103 199 L 113 199 L 110 199 L 104 196 L 102 196 L 80 188 L 77 188 L 73 186 L 70 186 L 69 185 L 54 182 L 46 179 L 41 179 L 40 178 L 36 178 L 35 177 L 30 177 L 29 176 L 19 175 L 16 173 L 12 172 L 11 171 L 11 166 L 12 165 L 12 157 L 11 156 L 11 140 L 12 139 L 12 137 L 14 134 L 24 125 L 28 123 L 30 123 L 36 126 L 42 127 L 43 128 L 47 128 L 48 129 L 53 129 L 54 130 L 59 130 L 60 131 L 66 131 L 67 132 L 75 132 L 76 133 L 91 134 L 95 136 L 113 137 L 114 138 L 119 138 L 120 139 L 123 139 L 124 140 L 134 142 L 135 143 L 134 145 L 129 146 L 123 149 L 120 152 L 117 157 L 116 163 L 114 167 L 114 180 L 118 189 L 123 194 L 122 196 L 120 196 L 109 190 L 107 190 L 97 185 L 91 184 L 91 185 L 95 187 L 97 187 L 117 197 L 119 199 L 143 199 L 144 198 L 149 197 L 158 189 L 164 179 L 164 176 L 165 175 L 165 166 L 162 160 L 159 157 L 150 153 L 136 153 L 126 157 L 122 161 L 119 168 L 119 179 L 122 187 L 121 188 L 118 185 L 117 180 L 116 179 L 116 167 L 118 163 L 119 157 L 124 151 L 132 147 L 136 147 L 137 146 L 147 146 L 158 151 L 167 160 L 170 168 L 170 180 L 168 185 L 157 197 L 153 199 L 151 199 L 158 199 L 161 197 L 168 189 L 173 189 L 179 193 L 179 182 L 175 173 L 175 162 L 174 161 L 175 159 L 175 154 L 179 151 L 179 149 L 176 149 L 173 153 L 173 163 L 172 164 L 169 160 L 169 156 L 170 155 L 171 149 L 173 145 L 179 139 L 179 137 L 172 142 L 168 144 L 164 144 L 163 145 L 154 145 L 153 144 L 148 143 L 142 139 L 135 132 L 132 126 L 132 120 L 131 119 L 132 110 L 135 103 L 137 100 L 148 90 L 156 87 L 159 87 L 160 86 L 169 86 L 170 87 L 175 88 L 178 90 L 179 90 L 179 88 L 174 85 L 171 85 L 170 84 L 160 84 L 159 83 L 141 83 L 140 82 L 135 82 L 134 81 L 114 80 L 113 79 L 99 79 L 98 78 L 88 78 L 87 77 L 87 64 L 88 63 L 148 63 L 149 62 L 149 59 L 151 57 L 157 57 L 159 56 L 160 54 L 160 42 L 156 38 L 157 37 L 157 30 L 156 29 L 160 27 L 160 22 L 161 20 L 160 19 L 153 19 L 149 11 L 147 9 L 145 9 L 144 8 L 137 8 L 136 7 L 91 7 L 84 2 L 80 3 L 77 6 L 45 6 L 44 5 L 33 5 L 31 4 L 30 5 L 26 5 L 23 9 L 23 14 L 24 15 L 23 16 Z M 142 180 L 143 181 L 143 183 L 141 184 L 140 182 Z M 142 173 L 146 176 L 148 180 L 148 182 L 146 184 L 145 183 L 145 180 L 141 174 Z M 134 172 L 135 171 L 140 171 L 142 173 L 141 174 L 139 174 L 138 173 L 136 173 L 135 174 Z M 129 169 L 135 164 L 142 165 L 145 167 L 150 168 L 152 171 L 152 174 L 153 175 L 153 181 L 152 182 L 152 184 L 150 186 L 149 185 L 150 179 L 147 173 L 145 171 L 139 168 L 137 168 L 136 169 L 134 169 L 129 175 L 128 174 Z M 157 159 L 163 167 L 163 176 L 160 183 L 150 194 L 142 197 L 133 198 L 129 194 L 130 193 L 140 194 L 146 191 L 148 191 L 153 186 L 155 182 L 154 170 L 152 166 L 150 166 L 140 162 L 134 162 L 132 163 L 126 170 L 126 181 L 127 182 L 127 188 L 126 189 L 123 185 L 122 178 L 121 177 L 121 168 L 123 163 L 129 158 L 133 156 L 137 156 L 138 155 L 148 155 Z M 170 146 L 170 148 L 168 150 L 161 150 L 160 149 L 161 147 L 164 147 L 169 145 Z M 39 97 L 44 90 L 49 85 L 58 79 L 61 79 L 62 80 L 91 80 L 92 81 L 103 81 L 104 82 L 119 82 L 120 83 L 129 83 L 130 84 L 149 85 L 150 86 L 149 88 L 144 90 L 136 98 L 129 112 L 112 111 L 111 110 L 106 110 L 105 109 L 99 109 L 98 108 L 92 108 L 91 107 L 79 106 L 78 105 L 74 105 L 69 103 L 60 102 L 49 98 L 43 98 L 42 99 L 42 101 L 48 100 L 56 103 L 60 103 L 61 104 L 69 105 L 70 106 L 74 106 L 75 107 L 79 107 L 80 108 L 92 109 L 93 110 L 98 110 L 99 111 L 106 111 L 107 112 L 112 112 L 113 113 L 128 114 L 129 115 L 129 122 L 130 123 L 129 125 L 125 125 L 124 124 L 120 124 L 119 123 L 115 123 L 114 122 L 108 122 L 107 121 L 103 121 L 102 120 L 98 120 L 97 119 L 79 118 L 78 117 L 77 117 L 76 119 L 92 120 L 93 121 L 101 122 L 102 123 L 108 123 L 109 124 L 114 124 L 115 125 L 129 127 L 132 130 L 135 136 L 139 140 L 138 141 L 136 141 L 132 139 L 129 139 L 128 138 L 125 138 L 124 137 L 121 137 L 120 136 L 116 136 L 115 135 L 103 134 L 102 133 L 97 133 L 96 132 L 80 131 L 79 130 L 62 129 L 57 127 L 42 125 L 36 117 L 36 107 L 37 106 L 37 103 L 38 102 Z M 79 63 L 84 63 L 85 64 L 85 76 L 83 78 L 80 78 L 78 76 L 78 64 Z M 158 44 L 158 53 L 154 55 L 152 55 L 151 54 L 141 54 L 140 53 L 110 53 L 109 54 L 109 55 L 134 55 L 135 56 L 146 56 L 147 57 L 147 60 L 146 61 L 142 61 L 141 60 L 94 60 L 93 61 L 92 60 L 88 60 L 87 61 L 59 60 L 58 61 L 47 61 L 46 62 L 32 61 L 31 62 L 19 62 L 18 63 L 14 63 L 13 62 L 16 60 L 27 59 L 28 58 L 30 58 L 30 57 L 26 56 L 25 57 L 19 57 L 18 58 L 13 58 L 12 59 L 6 59 L 5 58 L 5 54 L 8 50 L 10 50 L 11 49 L 32 49 L 33 48 L 41 47 L 46 45 L 108 44 L 109 43 L 115 43 L 116 42 L 152 42 L 153 43 L 157 43 Z M 155 33 L 155 38 L 153 40 L 115 40 L 114 41 L 95 42 L 94 43 L 92 42 L 80 42 L 79 43 L 23 43 L 22 44 L 12 44 L 11 45 L 9 45 L 7 43 L 7 41 L 8 40 L 14 38 L 13 36 L 14 34 L 56 34 L 57 33 L 65 33 L 66 32 L 72 32 L 73 31 L 108 31 L 109 30 L 138 30 L 139 31 L 148 31 L 149 32 L 154 32 Z M 13 26 L 15 23 L 33 23 L 34 24 L 37 24 L 38 23 L 45 23 L 45 21 L 39 21 L 38 22 L 26 21 L 23 19 L 24 18 L 45 18 L 46 19 L 54 19 L 55 20 L 80 20 L 81 19 L 93 19 L 94 20 L 127 21 L 128 22 L 153 22 L 154 21 L 157 21 L 158 22 L 158 25 L 154 27 L 152 27 L 151 26 L 149 27 L 148 26 L 146 27 L 109 27 L 108 28 L 101 28 L 100 29 L 69 29 L 68 30 L 58 30 L 57 29 L 20 29 L 19 28 L 15 28 Z M 25 9 L 27 7 L 62 8 L 63 9 L 73 9 L 74 8 L 79 8 L 80 9 L 125 9 L 126 10 L 141 10 L 142 11 L 145 11 L 149 15 L 149 16 L 146 18 L 136 18 L 135 17 L 91 17 L 90 16 L 85 16 L 84 15 L 84 11 L 81 11 L 81 15 L 80 16 L 71 16 L 70 15 L 53 15 L 52 14 L 36 14 L 35 13 L 27 13 L 25 11 Z" fill="currentColor" fill-rule="evenodd" clip-rule="evenodd"/>
</svg>