<svg xmlns="http://www.w3.org/2000/svg" viewBox="0 0 148 147" fill="none">
  <path d="M 124 118 L 122 118 L 111 123 L 109 123 L 104 126 L 102 126 L 102 127 L 104 127 L 109 124 L 111 124 L 119 120 L 124 119 Z M 117 82 L 118 85 L 120 86 L 120 83 L 119 82 Z M 124 78 L 123 79 L 124 81 L 124 85 L 126 86 L 126 80 L 125 78 Z M 143 2 L 126 11 L 118 13 L 111 17 L 109 17 L 104 20 L 102 20 L 96 23 L 79 35 L 72 42 L 71 42 L 58 56 L 54 62 L 49 74 L 49 80 L 48 81 L 48 92 L 49 93 L 49 97 L 53 102 L 58 102 L 60 100 L 62 103 L 60 105 L 50 105 L 49 104 L 47 104 L 43 102 L 32 91 L 28 85 L 20 68 L 20 65 L 18 60 L 18 50 L 17 49 L 17 43 L 18 42 L 18 40 L 16 40 L 15 42 L 15 56 L 16 57 L 16 63 L 17 64 L 17 67 L 19 70 L 20 75 L 22 78 L 22 80 L 24 82 L 26 87 L 33 97 L 38 102 L 44 106 L 46 106 L 50 108 L 61 108 L 62 109 L 62 113 L 60 115 L 41 115 L 40 114 L 28 114 L 27 115 L 25 115 L 3 131 L 2 133 L 2 144 L 3 145 L 36 145 L 37 146 L 139 146 L 147 139 L 147 136 L 139 143 L 137 142 L 139 136 L 147 129 L 147 125 L 139 132 L 137 131 L 133 131 L 132 130 L 123 130 L 122 129 L 114 129 L 113 130 L 100 130 L 99 129 L 97 129 L 94 131 L 39 131 L 37 130 L 32 132 L 21 132 L 20 133 L 8 133 L 7 132 L 15 125 L 27 117 L 61 117 L 63 119 L 63 123 L 66 125 L 67 127 L 70 125 L 84 125 L 87 127 L 93 122 L 94 117 L 95 116 L 106 116 L 107 115 L 139 115 L 140 114 L 147 114 L 147 112 L 136 112 L 135 113 L 102 113 L 101 114 L 96 114 L 94 112 L 94 107 L 98 104 L 109 99 L 113 99 L 114 98 L 120 97 L 130 92 L 134 88 L 147 79 L 147 77 L 146 77 L 140 82 L 136 84 L 132 88 L 121 94 L 111 96 L 110 97 L 105 98 L 102 100 L 100 100 L 99 99 L 97 94 L 95 92 L 91 92 L 88 94 L 87 93 L 88 90 L 93 85 L 97 83 L 99 83 L 102 81 L 104 81 L 106 80 L 107 78 L 117 74 L 117 72 L 115 71 L 115 69 L 117 66 L 117 59 L 116 58 L 116 56 L 110 49 L 102 45 L 100 45 L 100 46 L 104 50 L 94 55 L 91 55 L 90 56 L 83 57 L 82 58 L 77 58 L 72 56 L 72 58 L 74 59 L 76 62 L 71 69 L 65 69 L 63 70 L 61 73 L 61 77 L 60 78 L 61 97 L 60 98 L 58 96 L 58 90 L 57 89 L 57 87 L 51 82 L 52 72 L 55 64 L 63 53 L 73 43 L 80 38 L 86 32 L 95 26 L 98 25 L 100 23 L 105 22 L 116 16 L 129 12 L 141 6 L 143 4 Z M 136 135 L 136 141 L 134 145 L 64 144 L 63 143 L 21 143 L 20 142 L 5 142 L 4 141 L 4 137 L 5 136 L 16 136 L 17 135 L 25 135 L 26 134 L 76 134 L 77 133 L 123 132 L 124 133 L 133 133 Z M 87 103 L 88 102 L 90 105 L 89 106 Z M 91 94 L 93 94 L 97 100 L 97 103 L 94 105 L 89 98 L 89 96 Z M 52 88 L 54 88 L 56 92 L 56 98 L 55 99 L 52 97 L 52 95 L 51 94 L 51 89 Z M 89 73 L 91 75 L 91 83 L 90 84 L 88 83 L 88 74 Z M 65 71 L 67 71 L 68 72 L 71 72 L 72 71 L 84 71 L 86 74 L 86 85 L 87 86 L 87 88 L 84 92 L 84 94 L 82 98 L 82 105 L 86 110 L 85 112 L 86 118 L 88 117 L 88 110 L 89 109 L 91 110 L 91 119 L 87 123 L 72 123 L 71 122 L 69 123 L 65 121 L 65 108 L 70 105 L 70 104 L 65 104 L 64 103 L 64 94 L 63 93 L 63 73 Z M 113 67 L 113 69 L 111 73 L 107 76 L 97 81 L 94 81 L 93 80 L 93 72 L 95 70 L 102 67 L 110 67 L 111 66 Z M 103 63 L 102 65 L 96 67 L 92 71 L 89 69 L 92 65 L 99 61 L 101 61 Z M 105 61 L 107 59 L 112 59 L 114 61 L 113 62 L 106 62 Z M 97 58 L 95 61 L 92 62 L 86 68 L 76 68 L 75 67 L 75 66 L 81 60 L 86 60 L 94 57 L 96 57 Z M 100 55 L 101 54 L 109 52 L 112 56 L 111 57 L 105 57 L 104 58 L 102 58 Z" fill="currentColor" fill-rule="evenodd" clip-rule="evenodd"/>
</svg>