<svg xmlns="http://www.w3.org/2000/svg" viewBox="0 0 151 239" fill="none">
  <path d="M 54 229 L 54 231 L 56 231 L 57 232 L 56 233 L 56 235 L 61 234 L 61 233 L 59 233 L 58 232 L 60 229 Z M 73 225 L 72 225 L 70 228 L 71 230 L 73 229 Z M 63 223 L 63 226 L 66 225 L 67 226 L 66 227 L 66 229 L 67 229 L 67 227 L 69 226 L 69 224 Z M 138 219 L 137 218 L 134 219 L 134 222 L 137 222 L 138 221 Z M 70 217 L 71 223 L 73 223 L 74 222 L 75 224 L 80 224 L 83 227 L 85 226 L 86 227 L 85 230 L 89 229 L 89 227 L 86 227 L 85 226 L 85 224 L 82 224 L 79 220 L 82 218 L 83 214 L 82 214 L 78 220 L 75 222 L 72 218 Z M 67 215 L 65 214 L 63 216 L 62 215 L 61 215 L 61 216 L 63 217 L 64 216 L 67 216 Z M 49 214 L 48 215 L 48 217 L 49 218 L 51 218 L 52 217 L 52 215 L 51 214 Z M 148 212 L 147 212 L 147 214 L 146 215 L 143 215 L 142 217 L 143 218 L 146 218 L 146 215 L 148 214 Z M 73 211 L 73 213 L 76 211 L 77 213 L 79 213 L 79 212 L 77 212 L 76 210 Z M 65 209 L 62 210 L 61 212 L 63 212 Z M 56 208 L 55 209 L 55 211 L 56 213 L 57 213 L 57 208 Z M 48 207 L 48 210 L 50 210 L 51 209 L 51 207 Z M 64 203 L 64 204 L 71 209 L 67 203 Z M 28 202 L 27 204 L 29 205 L 30 203 Z M 65 188 L 65 190 L 70 192 L 69 194 L 67 194 L 67 197 L 69 197 L 72 194 L 72 192 L 70 192 L 69 191 L 69 189 Z M 38 188 L 36 191 L 39 193 L 41 190 Z M 44 93 L 44 97 L 46 98 L 45 93 Z M 24 80 L 24 81 L 28 83 L 33 88 L 34 91 L 33 92 L 30 89 L 29 89 L 29 90 L 33 94 L 37 94 L 35 89 L 35 82 L 33 81 L 32 83 L 30 79 L 29 79 L 29 81 L 28 82 Z M 78 76 L 77 76 L 77 91 L 76 92 L 74 92 L 71 99 L 72 99 L 78 92 Z M 15 68 L 15 71 L 16 72 L 15 73 L 13 73 L 13 74 L 16 76 L 15 79 L 17 81 L 18 89 L 19 90 L 19 92 L 20 92 L 19 86 L 18 85 L 18 79 L 19 78 L 22 79 L 22 78 L 18 76 L 17 74 L 17 70 L 16 68 Z M 4 67 L 5 69 L 8 70 L 7 68 Z M 91 48 L 87 51 L 84 55 L 84 57 L 86 56 Z M 88 30 L 87 30 L 87 34 L 83 45 L 83 48 L 82 49 L 80 59 L 81 59 L 82 57 L 83 49 L 85 45 L 85 42 L 87 39 Z M 19 25 L 19 30 L 21 33 L 24 35 L 20 29 L 20 25 Z M 78 17 L 76 17 L 75 18 L 75 22 L 74 23 L 73 21 L 72 21 L 72 24 L 73 25 L 73 31 L 72 33 L 78 30 L 78 28 L 76 29 L 74 28 L 77 22 Z M 4 0 L 4 5 L 3 6 L 0 6 L 0 13 L 50 13 L 52 15 L 41 37 L 41 40 L 40 41 L 38 51 L 36 52 L 34 49 L 34 47 L 32 48 L 32 50 L 39 64 L 39 67 L 40 68 L 39 75 L 40 76 L 40 78 L 43 84 L 53 99 L 53 110 L 52 111 L 51 111 L 46 104 L 45 104 L 49 112 L 53 115 L 53 121 L 52 122 L 52 129 L 50 132 L 46 128 L 46 127 L 42 124 L 42 125 L 49 133 L 51 137 L 50 138 L 49 148 L 48 149 L 48 161 L 47 162 L 43 160 L 22 137 L 20 132 L 21 126 L 19 126 L 17 124 L 16 118 L 12 110 L 12 99 L 11 97 L 8 95 L 8 97 L 9 98 L 9 101 L 8 102 L 5 99 L 5 95 L 2 90 L 0 89 L 0 96 L 2 96 L 4 98 L 5 101 L 9 105 L 10 112 L 14 118 L 15 124 L 16 125 L 13 127 L 8 122 L 7 122 L 7 123 L 12 128 L 16 128 L 18 130 L 18 135 L 21 138 L 22 142 L 26 147 L 29 148 L 31 150 L 31 152 L 40 162 L 40 163 L 43 166 L 47 168 L 47 178 L 51 175 L 52 176 L 52 179 L 48 182 L 44 182 L 43 180 L 38 183 L 37 182 L 35 182 L 32 184 L 29 184 L 24 188 L 22 188 L 19 194 L 15 199 L 15 201 L 9 204 L 4 213 L 2 215 L 0 215 L 0 218 L 2 218 L 4 216 L 6 216 L 7 215 L 7 211 L 10 207 L 11 208 L 13 208 L 18 197 L 23 191 L 31 192 L 33 191 L 34 185 L 35 184 L 37 185 L 39 185 L 41 183 L 43 184 L 49 184 L 53 181 L 54 182 L 56 182 L 58 180 L 61 182 L 61 184 L 63 184 L 64 183 L 65 183 L 66 185 L 69 184 L 70 185 L 70 187 L 75 186 L 79 189 L 78 190 L 76 190 L 78 193 L 78 195 L 77 196 L 74 196 L 73 197 L 73 199 L 71 200 L 71 201 L 73 201 L 74 200 L 77 203 L 80 203 L 82 206 L 82 209 L 83 210 L 85 210 L 87 213 L 88 213 L 90 210 L 92 211 L 92 214 L 90 216 L 90 219 L 89 220 L 87 220 L 86 219 L 87 216 L 84 218 L 84 221 L 86 220 L 88 225 L 89 225 L 89 222 L 92 220 L 93 221 L 93 223 L 91 224 L 91 226 L 95 229 L 97 228 L 100 229 L 101 228 L 104 228 L 106 225 L 108 225 L 111 222 L 117 223 L 118 222 L 118 219 L 116 217 L 112 218 L 110 214 L 104 212 L 101 209 L 100 204 L 99 203 L 99 197 L 98 195 L 97 195 L 93 191 L 94 189 L 91 189 L 90 190 L 83 189 L 81 188 L 77 183 L 70 183 L 67 181 L 63 181 L 57 177 L 59 176 L 64 170 L 70 161 L 71 158 L 73 156 L 78 145 L 80 143 L 84 135 L 84 133 L 86 130 L 88 123 L 92 118 L 93 118 L 97 114 L 101 114 L 102 113 L 105 113 L 106 114 L 120 114 L 123 112 L 125 112 L 126 114 L 131 114 L 131 113 L 127 110 L 124 110 L 120 112 L 116 112 L 115 110 L 110 112 L 107 112 L 103 110 L 113 103 L 120 103 L 121 101 L 118 101 L 117 100 L 121 96 L 128 95 L 132 93 L 133 91 L 133 86 L 131 86 L 130 87 L 130 89 L 132 90 L 130 92 L 124 92 L 123 93 L 121 93 L 119 94 L 116 98 L 115 97 L 117 93 L 117 90 L 116 90 L 112 100 L 108 104 L 101 108 L 98 106 L 100 100 L 99 100 L 95 108 L 93 110 L 92 109 L 92 102 L 93 101 L 93 92 L 94 91 L 94 89 L 96 87 L 99 86 L 107 78 L 112 70 L 113 65 L 114 64 L 119 65 L 122 61 L 119 63 L 118 62 L 117 54 L 115 53 L 114 55 L 112 56 L 111 68 L 109 72 L 104 79 L 96 85 L 95 84 L 95 66 L 96 65 L 96 62 L 97 61 L 98 56 L 101 51 L 101 50 L 100 50 L 95 60 L 94 66 L 93 67 L 94 72 L 93 73 L 92 92 L 91 93 L 90 103 L 86 114 L 86 117 L 84 120 L 83 125 L 81 128 L 81 130 L 79 133 L 79 135 L 75 145 L 73 147 L 70 154 L 66 159 L 65 162 L 55 173 L 54 172 L 54 161 L 55 160 L 56 136 L 59 134 L 60 131 L 62 129 L 63 130 L 63 133 L 64 134 L 64 137 L 65 138 L 66 143 L 70 146 L 69 142 L 67 141 L 65 136 L 64 123 L 66 120 L 69 119 L 73 115 L 73 114 L 72 114 L 68 117 L 67 116 L 67 110 L 64 108 L 65 106 L 64 104 L 64 97 L 68 90 L 68 89 L 66 90 L 65 89 L 65 84 L 64 82 L 62 82 L 64 85 L 63 97 L 59 102 L 57 107 L 55 109 L 54 108 L 54 95 L 55 94 L 55 87 L 57 82 L 57 76 L 64 64 L 68 60 L 67 55 L 65 54 L 66 56 L 66 60 L 60 67 L 59 66 L 59 59 L 61 55 L 62 48 L 66 39 L 69 35 L 69 34 L 68 34 L 63 41 L 61 46 L 61 49 L 59 52 L 57 49 L 56 40 L 58 35 L 65 30 L 65 29 L 62 31 L 60 30 L 62 28 L 61 26 L 61 21 L 57 22 L 59 26 L 59 29 L 58 30 L 56 38 L 55 39 L 53 37 L 52 34 L 51 34 L 54 40 L 54 45 L 56 47 L 57 57 L 58 58 L 58 65 L 57 66 L 57 71 L 56 72 L 56 79 L 54 81 L 52 79 L 51 76 L 49 75 L 51 80 L 55 83 L 54 92 L 52 94 L 49 89 L 49 87 L 46 82 L 46 80 L 42 72 L 42 69 L 39 61 L 39 52 L 40 51 L 40 45 L 42 41 L 42 38 L 45 31 L 48 29 L 47 27 L 51 21 L 53 14 L 54 13 L 94 13 L 94 0 L 82 0 L 82 3 L 80 5 L 78 4 L 78 0 L 71 0 L 71 4 L 69 6 L 53 6 L 50 4 L 50 0 L 44 0 L 44 3 L 42 5 L 27 5 L 24 3 L 23 0 L 17 0 L 17 1 L 14 3 L 14 5 L 11 7 L 7 4 L 7 0 Z M 96 219 L 98 218 L 100 220 L 98 222 Z M 99 211 L 100 212 L 99 213 L 97 213 L 97 215 L 94 217 L 93 216 L 94 213 L 96 211 Z M 93 208 L 94 207 L 96 207 L 97 208 L 96 209 L 94 209 Z M 81 191 L 82 191 L 88 198 L 89 198 L 90 196 L 93 198 L 92 200 L 92 205 L 91 206 L 89 205 L 89 201 L 88 200 L 86 201 L 87 205 L 89 206 L 89 209 L 86 211 L 85 210 L 85 208 L 83 206 L 83 198 L 81 198 L 81 201 L 80 202 L 77 200 L 77 197 L 81 195 L 80 193 Z M 51 166 L 53 167 L 53 170 L 52 171 L 50 167 Z M 51 154 L 54 156 L 52 158 L 53 160 L 53 162 L 52 163 L 49 161 L 49 159 L 50 158 L 49 156 Z M 54 126 L 55 127 L 55 134 L 53 139 L 52 138 L 52 132 L 53 131 L 53 127 Z M 61 103 L 62 104 L 62 109 L 64 112 L 64 116 L 63 117 L 61 117 L 63 121 L 63 123 L 60 129 L 57 132 L 56 131 L 56 116 L 55 114 L 59 105 Z M 92 7 L 93 8 L 93 10 L 90 12 L 89 10 Z" fill="currentColor" fill-rule="evenodd" clip-rule="evenodd"/>
</svg>