<svg xmlns="http://www.w3.org/2000/svg" viewBox="0 0 237 219" fill="none">
  <path d="M 72 215 L 72 218 L 75 218 L 79 213 L 80 214 L 79 218 L 87 218 L 85 218 L 84 217 L 86 215 L 90 216 L 91 218 L 95 218 L 94 214 L 90 211 L 84 211 L 83 212 L 81 211 L 76 211 Z M 118 210 L 116 209 L 113 210 L 110 213 L 109 218 L 115 218 L 116 217 L 121 218 L 120 216 L 117 214 L 114 215 L 112 217 L 111 216 L 111 214 L 114 211 L 116 210 L 118 211 Z M 47 218 L 49 218 L 50 216 L 51 218 L 54 218 L 59 214 L 61 215 L 64 214 L 65 215 L 63 218 L 67 218 L 75 209 L 83 206 L 87 206 L 95 210 L 97 212 L 100 218 L 105 218 L 106 213 L 110 209 L 114 207 L 122 207 L 127 210 L 126 218 L 130 218 L 130 216 L 132 214 L 134 218 L 147 218 L 147 215 L 144 213 L 140 214 L 137 218 L 136 217 L 137 212 L 139 210 L 141 210 L 141 208 L 139 207 L 140 206 L 145 206 L 150 208 L 154 212 L 155 218 L 159 218 L 160 216 L 161 218 L 167 218 L 166 217 L 164 217 L 156 208 L 158 206 L 162 206 L 168 209 L 170 214 L 170 218 L 178 218 L 172 206 L 158 193 L 149 188 L 147 188 L 141 185 L 138 185 L 133 183 L 129 183 L 128 182 L 120 182 L 119 181 L 101 182 L 100 183 L 91 184 L 74 191 L 60 202 L 53 212 L 52 216 L 51 217 L 50 216 L 50 213 L 56 202 L 60 198 L 60 197 L 68 190 L 74 186 L 87 180 L 97 178 L 98 177 L 103 177 L 104 176 L 128 176 L 129 177 L 138 178 L 139 179 L 145 180 L 148 182 L 153 183 L 164 189 L 172 195 L 182 206 L 188 218 L 191 218 L 191 216 L 189 213 L 189 211 L 183 201 L 174 192 L 166 186 L 152 179 L 150 179 L 143 176 L 140 176 L 139 175 L 128 174 L 127 173 L 106 173 L 105 174 L 95 175 L 94 176 L 88 177 L 82 180 L 80 180 L 64 190 L 54 201 L 53 204 L 50 208 L 50 210 L 48 213 L 48 217 Z M 161 202 L 155 206 L 146 202 L 141 202 L 140 203 L 135 204 L 131 207 L 123 203 L 113 203 L 106 207 L 102 212 L 101 210 L 93 203 L 93 202 L 96 198 L 98 200 L 100 200 L 103 197 L 111 194 L 112 193 L 112 191 L 110 190 L 107 194 L 102 196 L 100 198 L 97 196 L 94 197 L 90 203 L 83 202 L 72 206 L 71 205 L 72 203 L 76 200 L 76 199 L 74 199 L 71 201 L 61 212 L 60 211 L 62 207 L 75 195 L 85 190 L 87 190 L 91 188 L 94 188 L 95 187 L 100 187 L 101 186 L 113 186 L 114 185 L 117 185 L 118 186 L 127 186 L 128 187 L 136 188 L 137 189 L 145 191 L 153 195 Z M 54 133 L 54 134 L 65 134 L 65 133 Z M 90 133 L 90 134 L 92 135 L 94 134 L 138 134 L 138 133 L 126 133 L 125 132 L 123 132 L 122 133 L 96 133 L 95 131 L 92 133 Z M 162 128 L 163 130 L 162 133 L 164 134 L 168 133 L 168 132 L 165 132 L 163 128 Z M 195 111 L 195 113 L 196 114 L 196 119 L 197 119 L 197 113 L 196 111 Z M 191 103 L 191 111 L 192 112 L 192 116 L 193 116 L 192 103 Z M 154 78 L 161 90 L 164 106 L 165 106 L 164 96 L 163 95 L 163 91 L 164 90 L 167 96 L 168 107 L 169 107 L 169 97 L 168 96 L 167 90 L 163 84 L 161 85 L 158 81 Z M 181 72 L 188 85 L 189 85 L 185 76 L 183 73 Z M 208 68 L 206 71 L 207 81 L 213 87 L 212 89 L 213 91 L 213 96 L 217 98 L 220 95 L 220 93 L 219 92 L 220 88 L 216 82 L 216 78 L 214 76 L 214 74 L 212 71 Z M 146 47 L 149 52 L 151 53 L 150 50 Z M 103 45 L 104 47 L 103 49 L 107 49 L 108 48 L 117 48 L 118 47 L 135 49 L 135 48 L 131 47 L 128 45 L 129 44 L 136 44 L 136 43 L 134 43 L 133 42 L 128 42 L 127 41 L 122 41 L 121 40 L 115 40 L 115 41 L 117 41 L 118 42 L 117 43 L 109 43 L 108 44 L 104 44 Z M 55 37 L 55 39 L 56 40 L 58 40 L 59 39 L 59 37 Z M 117 18 L 117 23 L 120 23 L 121 22 L 121 18 Z M 18 57 L 16 61 L 16 66 L 17 68 L 11 73 L 10 77 L 8 80 L 6 91 L 4 95 L 4 100 L 5 101 L 5 103 L 3 105 L 3 107 L 2 108 L 2 118 L 3 119 L 3 136 L 5 139 L 5 141 L 3 143 L 3 152 L 4 153 L 5 160 L 9 166 L 27 166 L 28 167 L 35 167 L 36 168 L 53 168 L 54 167 L 86 166 L 89 160 L 93 165 L 100 166 L 101 167 L 106 167 L 107 168 L 130 168 L 131 167 L 140 167 L 141 166 L 169 167 L 173 164 L 175 164 L 178 166 L 180 166 L 184 168 L 189 168 L 190 169 L 212 169 L 213 168 L 222 168 L 227 166 L 228 165 L 228 162 L 233 157 L 233 155 L 234 154 L 234 148 L 233 147 L 233 144 L 229 141 L 231 137 L 231 134 L 230 133 L 230 108 L 226 102 L 227 100 L 227 89 L 226 88 L 226 83 L 225 82 L 225 78 L 224 77 L 223 71 L 219 63 L 214 60 L 214 56 L 205 42 L 200 37 L 196 35 L 189 34 L 187 30 L 177 20 L 171 17 L 165 16 L 164 15 L 158 15 L 153 9 L 149 7 L 146 7 L 143 5 L 139 5 L 131 2 L 117 2 L 112 5 L 108 3 L 103 3 L 102 4 L 97 4 L 96 5 L 86 6 L 83 8 L 79 9 L 76 12 L 68 12 L 60 16 L 58 16 L 56 18 L 51 20 L 45 24 L 40 29 L 40 31 L 39 32 L 35 33 L 28 40 L 27 43 L 23 48 L 20 55 Z M 9 159 L 10 158 L 11 159 L 16 159 L 18 161 L 17 162 L 11 162 Z M 175 159 L 175 156 L 177 153 L 177 146 L 179 144 L 182 144 L 183 143 L 195 143 L 196 144 L 224 144 L 225 145 L 228 145 L 230 147 L 230 149 L 229 150 L 225 149 L 221 152 L 218 150 L 215 150 L 214 151 L 212 150 L 202 150 L 199 152 L 195 152 L 194 153 L 194 157 L 198 157 L 201 155 L 204 157 L 206 156 L 213 156 L 217 154 L 219 154 L 222 157 L 224 157 L 227 155 L 228 157 L 221 164 L 219 164 L 218 165 L 189 165 L 188 164 L 180 163 Z M 92 147 L 95 143 L 100 141 L 145 141 L 146 142 L 154 142 L 155 143 L 168 143 L 173 148 L 173 155 L 167 162 L 158 162 L 157 161 L 139 161 L 138 162 L 131 162 L 130 163 L 111 163 L 110 164 L 103 164 L 102 163 L 95 163 L 92 161 Z M 6 146 L 10 141 L 16 141 L 17 142 L 28 142 L 29 141 L 33 141 L 38 143 L 45 142 L 46 143 L 62 143 L 63 144 L 82 144 L 87 148 L 88 155 L 85 158 L 85 161 L 84 162 L 79 162 L 74 156 L 71 156 L 70 157 L 65 156 L 63 161 L 57 161 L 56 162 L 23 162 L 22 161 L 24 159 L 31 159 L 37 155 L 40 158 L 43 158 L 43 156 L 39 153 L 37 153 L 31 156 L 27 154 L 23 154 L 21 155 L 18 152 L 12 152 L 11 151 L 7 152 L 6 151 Z M 8 129 L 10 130 L 10 134 L 9 135 L 7 132 L 7 130 Z M 36 137 L 50 125 L 95 125 L 96 126 L 95 129 L 96 129 L 99 125 L 123 125 L 124 126 L 126 126 L 127 125 L 178 125 L 196 137 L 197 139 L 196 140 L 181 140 L 180 141 L 174 142 L 170 139 L 168 139 L 166 136 L 165 136 L 165 138 L 164 139 L 155 139 L 154 138 L 113 138 L 112 137 L 102 137 L 101 138 L 94 139 L 90 143 L 89 143 L 84 140 L 68 140 L 67 139 L 37 138 Z M 221 104 L 225 107 L 227 111 L 227 135 L 225 137 L 224 136 L 224 134 L 223 133 L 223 118 L 222 117 L 222 112 L 221 110 L 218 110 L 216 113 L 216 122 L 215 123 L 216 125 L 216 132 L 217 133 L 218 139 L 217 140 L 207 141 L 204 139 L 204 136 L 205 135 L 205 118 L 203 114 L 203 111 L 206 106 Z M 10 103 L 21 108 L 26 109 L 29 112 L 29 114 L 30 115 L 30 120 L 31 121 L 31 133 L 28 136 L 26 136 L 25 137 L 15 137 L 14 136 L 15 131 L 12 129 L 13 109 L 12 108 L 9 108 L 8 109 L 6 108 L 6 107 Z M 15 72 L 21 72 L 22 73 L 16 76 L 14 78 L 14 82 L 11 86 L 11 97 L 13 99 L 15 99 L 16 97 L 17 88 L 19 86 L 20 81 L 22 78 L 22 75 L 21 74 L 22 73 L 31 75 L 36 79 L 36 86 L 35 87 L 35 94 L 34 95 L 34 98 L 32 103 L 29 106 L 18 104 L 17 103 L 12 102 L 7 99 L 7 93 L 8 92 L 10 81 L 11 80 L 12 75 Z M 25 70 L 27 68 L 29 68 L 30 69 L 29 71 L 26 71 Z M 213 64 L 216 67 L 216 69 L 219 74 L 219 76 L 221 80 L 223 95 L 222 96 L 222 99 L 219 101 L 208 102 L 202 99 L 199 95 L 198 84 L 197 83 L 197 80 L 195 77 L 195 74 L 198 71 L 204 68 L 206 66 Z M 54 114 L 55 113 L 55 105 L 57 101 L 57 98 L 62 87 L 67 80 L 79 69 L 85 66 L 87 64 L 89 64 L 97 60 L 101 60 L 106 58 L 126 58 L 127 59 L 131 59 L 132 60 L 138 61 L 149 66 L 155 70 L 168 83 L 171 89 L 173 91 L 177 101 L 178 111 L 179 112 L 179 120 L 177 123 L 62 123 L 61 124 L 57 124 L 55 122 L 55 116 Z M 29 47 L 30 48 L 29 49 L 29 51 L 25 56 L 25 59 L 23 61 L 23 64 L 21 68 L 18 65 L 18 62 L 24 53 L 25 50 Z M 191 39 L 194 39 L 201 45 L 206 52 L 210 60 L 209 62 L 206 63 L 205 62 L 205 56 L 201 53 L 201 52 L 197 48 L 197 46 L 194 44 L 192 44 L 190 50 L 192 53 L 196 56 L 197 59 L 199 60 L 202 64 L 201 66 L 198 67 L 194 70 L 192 69 L 178 54 L 179 49 L 186 42 Z M 39 35 L 44 37 L 47 40 L 48 43 L 53 49 L 53 51 L 42 72 L 39 75 L 36 75 L 35 74 L 35 67 L 30 68 L 28 63 L 30 61 L 33 54 L 37 49 L 37 46 L 41 43 L 41 41 L 40 40 L 36 40 L 35 41 L 33 40 L 36 36 L 38 36 Z M 38 82 L 43 77 L 44 74 L 49 67 L 55 54 L 58 51 L 63 50 L 74 41 L 83 36 L 95 35 L 96 34 L 99 34 L 109 30 L 113 30 L 115 32 L 123 35 L 148 36 L 150 40 L 155 45 L 172 53 L 174 58 L 179 63 L 179 64 L 190 75 L 192 76 L 194 81 L 194 84 L 195 85 L 195 93 L 196 94 L 196 98 L 197 100 L 202 104 L 202 106 L 200 110 L 200 117 L 202 120 L 202 133 L 201 134 L 201 136 L 199 137 L 187 128 L 187 115 L 186 114 L 186 101 L 185 100 L 185 95 L 184 94 L 184 90 L 183 89 L 182 84 L 178 76 L 176 75 L 177 78 L 180 82 L 180 84 L 183 91 L 183 95 L 184 96 L 184 103 L 185 104 L 185 119 L 186 120 L 186 126 L 185 127 L 182 126 L 180 123 L 181 122 L 181 109 L 180 108 L 180 104 L 179 103 L 179 100 L 178 99 L 177 94 L 171 83 L 168 79 L 156 68 L 150 64 L 136 58 L 132 58 L 131 57 L 127 57 L 126 56 L 107 56 L 106 57 L 97 58 L 94 60 L 87 62 L 77 68 L 66 78 L 57 93 L 57 95 L 55 99 L 55 102 L 54 103 L 54 109 L 53 110 L 53 118 L 54 119 L 54 121 L 49 123 L 40 131 L 37 132 L 36 131 L 35 120 L 34 119 L 34 115 L 33 114 L 33 110 L 32 109 L 36 103 L 38 104 L 39 98 L 43 89 L 42 89 L 40 93 L 40 95 L 38 98 L 37 97 Z M 158 18 L 162 19 L 165 21 L 164 26 L 168 29 L 168 35 L 169 36 L 179 37 L 179 33 L 175 29 L 173 29 L 171 27 L 168 27 L 166 25 L 166 22 L 167 21 L 169 21 L 174 24 L 185 36 L 181 42 L 174 49 L 160 42 L 158 42 L 152 37 L 152 33 L 156 25 L 156 20 Z M 72 16 L 74 18 L 74 24 L 75 25 L 75 28 L 76 29 L 77 34 L 65 42 L 60 47 L 56 48 L 48 36 L 43 32 L 43 30 L 48 26 L 49 27 L 48 29 L 49 32 L 53 34 L 54 32 L 63 23 L 66 23 L 68 20 L 67 18 L 69 16 Z M 114 25 L 114 13 L 115 12 L 117 14 L 120 14 L 121 15 L 130 15 L 131 14 L 135 14 L 139 18 L 143 18 L 144 19 L 148 19 L 150 16 L 152 17 L 150 26 L 146 32 L 145 31 L 125 31 L 117 28 Z M 107 7 L 110 11 L 110 24 L 108 26 L 106 26 L 101 29 L 95 30 L 87 33 L 83 33 L 79 27 L 79 23 L 78 22 L 79 20 L 86 21 L 92 18 L 94 16 L 97 16 L 101 14 L 106 14 L 106 11 L 97 11 L 96 12 L 92 12 L 88 14 L 84 14 L 81 16 L 78 16 L 77 15 L 80 12 L 88 9 L 94 9 L 95 8 Z M 114 9 L 118 6 L 131 6 L 135 8 L 142 9 L 143 11 L 142 12 L 135 12 L 134 11 L 130 11 L 129 10 L 125 10 L 124 9 L 119 9 L 115 11 Z" fill="currentColor" fill-rule="evenodd" clip-rule="evenodd"/>
</svg>