<svg xmlns="http://www.w3.org/2000/svg" viewBox="0 0 191 191" fill="none">
  <path d="M 55 23 L 53 24 L 53 26 L 54 27 L 54 33 L 53 35 L 55 34 L 55 27 L 56 26 Z M 52 2 L 2 52 L 2 138 L 52 188 L 138 188 L 188 138 L 188 52 L 138 2 Z M 136 175 L 136 166 L 137 165 L 146 165 L 147 166 L 147 167 L 139 175 L 137 176 Z M 97 166 L 98 165 L 134 165 L 135 166 L 135 178 L 133 180 L 99 180 L 97 178 Z M 55 166 L 56 165 L 92 165 L 93 166 L 93 179 L 92 180 L 57 180 L 55 178 Z M 43 166 L 44 165 L 53 165 L 54 166 L 54 175 L 52 176 L 43 167 Z M 136 163 L 136 157 L 138 155 L 153 155 L 154 156 L 154 160 L 150 164 L 137 164 Z M 36 156 L 37 155 L 53 155 L 54 156 L 54 163 L 53 164 L 40 164 L 36 160 Z M 97 147 L 98 146 L 101 149 L 107 152 L 115 152 L 119 150 L 120 151 L 120 163 L 119 164 L 98 164 L 97 163 Z M 97 141 L 98 140 L 103 141 L 109 146 L 111 150 L 110 151 L 108 151 L 103 149 L 99 145 Z M 124 137 L 125 138 L 124 143 L 120 148 L 116 150 L 115 149 L 116 145 L 118 142 L 123 137 Z M 165 146 L 165 137 L 166 136 L 175 136 L 176 137 L 176 138 L 167 147 Z M 157 136 L 163 136 L 164 137 L 164 150 L 160 154 L 157 154 L 155 152 L 155 138 Z M 27 136 L 33 136 L 35 138 L 35 152 L 33 154 L 30 154 L 26 150 L 26 137 Z M 14 137 L 15 136 L 23 136 L 25 138 L 25 146 L 23 147 L 14 138 Z M 112 123 L 113 122 L 117 123 L 122 127 L 124 131 L 123 132 L 119 131 L 112 125 Z M 78 123 L 77 126 L 69 132 L 67 132 L 66 131 L 66 129 L 71 124 L 76 122 Z M 163 121 L 164 122 L 164 134 L 163 135 L 155 135 L 154 136 L 154 153 L 153 154 L 135 154 L 135 163 L 134 164 L 123 164 L 121 162 L 121 149 L 123 147 L 124 144 L 125 143 L 128 143 L 133 146 L 136 146 L 137 147 L 143 147 L 145 146 L 147 143 L 147 137 L 146 136 L 145 130 L 143 128 L 143 126 L 149 121 Z M 26 122 L 27 121 L 41 121 L 47 126 L 43 136 L 43 143 L 45 146 L 47 146 L 48 147 L 56 146 L 62 143 L 66 144 L 65 139 L 64 138 L 65 137 L 67 137 L 71 141 L 75 148 L 75 149 L 73 150 L 67 146 L 69 149 L 69 151 L 71 150 L 75 152 L 83 152 L 87 150 L 88 148 L 85 150 L 80 151 L 79 150 L 80 147 L 87 141 L 91 140 L 92 141 L 92 143 L 90 146 L 92 146 L 93 147 L 93 163 L 92 164 L 71 164 L 70 162 L 69 162 L 67 164 L 56 164 L 55 163 L 55 155 L 54 154 L 37 154 L 36 153 L 36 136 L 35 135 L 27 135 L 26 134 Z M 150 116 L 148 120 L 145 123 L 141 125 L 138 125 L 137 124 L 137 123 L 145 116 L 147 115 L 149 115 Z M 40 116 L 41 115 L 45 116 L 48 118 L 53 123 L 53 124 L 52 125 L 49 125 L 45 123 L 41 119 Z M 123 112 L 125 112 L 130 117 L 132 120 L 132 123 L 131 124 L 125 120 L 123 117 L 123 114 L 122 113 Z M 104 112 L 106 117 L 108 119 L 108 121 L 103 123 L 102 125 L 105 123 L 107 123 L 108 124 L 108 126 L 106 130 L 101 135 L 98 136 L 97 135 L 97 132 L 99 129 L 99 127 L 97 126 L 97 113 L 98 112 Z M 91 111 L 93 113 L 93 126 L 91 127 L 91 129 L 93 132 L 93 135 L 92 136 L 90 136 L 82 127 L 82 124 L 83 123 L 85 123 L 88 125 L 87 123 L 83 122 L 82 121 L 82 119 L 86 112 L 90 112 Z M 66 111 L 68 113 L 66 118 L 60 124 L 58 124 L 57 122 L 59 118 Z M 108 98 L 109 99 L 109 106 L 106 109 L 99 109 L 98 107 L 99 106 L 100 101 L 102 99 Z M 81 99 L 82 98 L 88 99 L 90 101 L 90 103 L 92 107 L 90 109 L 84 109 L 81 106 L 81 104 L 80 103 Z M 141 97 L 144 98 L 149 103 L 151 107 L 151 110 L 150 111 L 146 109 L 140 101 L 140 98 Z M 167 96 L 178 96 L 180 98 L 180 133 L 178 135 L 166 135 L 165 134 L 165 98 Z M 147 96 L 162 96 L 164 98 L 164 119 L 163 120 L 151 120 L 150 119 L 152 115 L 152 107 L 149 101 L 146 98 Z M 112 104 L 112 97 L 113 96 L 126 96 L 127 98 L 125 101 L 131 97 L 133 97 L 134 96 L 136 97 L 136 100 L 130 106 L 126 108 L 124 108 L 123 107 L 124 103 L 123 103 L 122 106 L 120 108 Z M 53 98 L 55 96 L 60 98 L 62 98 L 63 96 L 76 96 L 78 98 L 78 104 L 69 108 L 67 103 L 65 102 L 67 105 L 67 107 L 66 108 L 64 108 L 60 106 Z M 27 96 L 43 96 L 44 98 L 41 102 L 48 97 L 50 98 L 50 100 L 48 104 L 41 111 L 39 110 L 39 107 L 38 107 L 38 115 L 39 116 L 39 119 L 38 120 L 27 120 L 26 119 L 26 97 Z M 12 96 L 23 96 L 25 98 L 25 134 L 24 135 L 11 135 L 10 134 L 10 98 Z M 62 92 L 66 88 L 69 82 L 71 82 L 73 84 L 75 84 L 78 86 L 78 92 L 77 93 L 63 93 Z M 112 86 L 119 82 L 121 82 L 123 87 L 125 88 L 123 85 L 123 82 L 124 81 L 132 85 L 135 88 L 136 92 L 135 93 L 132 93 L 127 90 L 127 92 L 126 93 L 113 93 L 112 92 Z M 67 83 L 66 86 L 60 92 L 58 92 L 57 93 L 54 93 L 53 92 L 55 88 L 59 84 L 65 81 Z M 98 82 L 101 80 L 106 81 L 109 84 L 109 90 L 108 91 L 101 90 Z M 91 81 L 92 83 L 90 86 L 90 89 L 89 90 L 86 90 L 83 92 L 80 88 L 81 84 L 86 80 Z M 152 69 L 162 69 L 164 71 L 164 92 L 163 93 L 147 93 L 146 91 L 144 91 L 143 92 L 141 92 L 140 91 L 141 87 L 148 79 L 150 79 L 151 80 L 151 82 L 152 82 L 152 75 L 150 71 Z M 131 65 L 133 67 L 131 71 L 125 78 L 123 78 L 122 76 L 124 71 Z M 58 65 L 61 66 L 66 71 L 68 76 L 67 78 L 65 78 L 60 73 L 57 67 Z M 137 65 L 139 64 L 144 66 L 150 72 L 150 74 L 148 75 L 141 71 L 137 67 Z M 98 62 L 100 63 L 102 66 L 108 69 L 104 78 L 98 78 L 97 77 L 97 63 Z M 92 62 L 93 63 L 93 77 L 92 78 L 87 78 L 85 76 L 82 69 L 88 66 Z M 124 58 L 124 60 L 118 66 L 116 67 L 112 67 L 111 66 L 118 59 L 122 57 Z M 66 58 L 67 57 L 70 58 L 79 66 L 77 68 L 70 65 L 67 62 Z M 166 55 L 178 55 L 180 57 L 180 92 L 179 93 L 166 93 L 165 92 L 165 56 Z M 98 53 L 99 53 L 107 61 L 108 63 L 108 66 L 107 67 L 101 64 L 97 58 L 97 54 Z M 92 53 L 93 54 L 93 58 L 92 60 L 86 66 L 83 67 L 82 66 L 83 61 L 87 56 Z M 165 44 L 167 43 L 176 52 L 174 54 L 167 54 L 165 52 Z M 116 40 L 118 40 L 124 46 L 125 48 L 125 52 L 124 53 L 123 53 L 118 48 L 117 45 L 115 43 L 115 41 Z M 74 40 L 75 42 L 71 49 L 67 53 L 65 53 L 64 51 L 66 46 L 72 40 Z M 111 40 L 111 41 L 104 48 L 100 50 L 98 50 L 97 49 L 98 46 L 104 40 L 106 39 L 110 39 Z M 156 36 L 160 36 L 164 40 L 164 53 L 163 54 L 157 54 L 155 52 L 155 37 Z M 137 14 L 138 14 L 147 23 L 146 25 L 150 26 L 154 30 L 154 33 L 153 34 L 137 34 L 136 33 L 136 27 L 137 26 L 137 24 L 136 23 L 136 15 Z M 96 12 L 98 10 L 134 10 L 135 11 L 135 23 L 134 24 L 134 26 L 135 27 L 135 35 L 152 35 L 154 37 L 154 54 L 156 55 L 163 55 L 164 56 L 164 67 L 163 68 L 148 68 L 143 64 L 143 62 L 146 57 L 146 54 L 147 53 L 147 46 L 146 44 L 144 43 L 135 43 L 132 45 L 130 45 L 126 47 L 121 41 L 121 27 L 122 25 L 119 25 L 120 27 L 120 39 L 119 40 L 115 38 L 106 38 L 102 40 L 98 44 L 96 41 L 96 28 L 97 27 L 97 23 L 96 22 Z M 92 10 L 93 11 L 93 43 L 92 44 L 90 42 L 89 42 L 89 43 L 92 46 L 93 49 L 92 50 L 90 50 L 81 44 L 79 40 L 80 39 L 83 39 L 83 38 L 74 38 L 71 40 L 69 39 L 69 41 L 64 47 L 62 47 L 54 43 L 46 43 L 44 44 L 43 46 L 43 53 L 44 54 L 44 57 L 47 62 L 47 65 L 52 64 L 53 65 L 53 67 L 46 73 L 42 75 L 40 74 L 40 72 L 42 68 L 40 68 L 39 69 L 38 68 L 36 68 L 36 69 L 38 69 L 40 71 L 38 75 L 38 83 L 39 84 L 39 86 L 41 87 L 39 83 L 39 80 L 41 79 L 47 84 L 50 89 L 50 91 L 49 92 L 47 92 L 42 89 L 44 92 L 43 93 L 27 93 L 26 92 L 26 71 L 28 69 L 31 69 L 31 68 L 27 68 L 26 67 L 26 56 L 27 54 L 26 53 L 26 51 L 25 51 L 23 54 L 23 55 L 25 56 L 25 92 L 24 93 L 11 93 L 10 92 L 10 56 L 11 55 L 14 55 L 14 52 L 18 48 L 18 47 L 23 43 L 26 43 L 26 40 L 31 35 L 33 35 L 35 37 L 35 49 L 36 49 L 36 36 L 37 35 L 36 30 L 39 26 L 43 25 L 43 22 L 46 20 L 52 13 L 54 14 L 54 19 L 55 19 L 55 11 L 56 10 Z" fill="currentColor" fill-rule="evenodd" clip-rule="evenodd"/>
</svg>