<svg xmlns="http://www.w3.org/2000/svg" viewBox="0 0 89 151" fill="none">
  <path d="M 84 5 L 78 5 L 77 4 L 72 4 L 71 3 L 66 3 L 65 2 L 61 4 L 61 6 L 56 17 L 53 28 L 51 31 L 49 39 L 47 42 L 46 47 L 44 50 L 43 55 L 38 66 L 38 72 L 42 76 L 42 79 L 43 80 L 42 81 L 42 83 L 39 85 L 37 85 L 35 87 L 35 91 L 30 96 L 29 96 L 24 102 L 21 108 L 21 110 L 14 123 L 14 125 L 11 130 L 11 132 L 9 134 L 8 139 L 2 150 L 5 150 L 8 145 L 8 143 L 10 141 L 11 142 L 11 144 L 8 150 L 11 150 L 12 149 L 12 147 L 14 144 L 14 142 L 16 139 L 18 132 L 21 127 L 21 125 L 26 118 L 28 113 L 35 105 L 37 104 L 41 104 L 43 106 L 43 108 L 44 109 L 44 111 L 43 112 L 43 118 L 42 119 L 40 129 L 38 132 L 38 134 L 36 137 L 36 139 L 31 150 L 34 150 L 35 149 L 37 142 L 43 129 L 44 124 L 47 119 L 48 114 L 50 111 L 50 100 L 53 94 L 53 88 L 51 86 L 51 83 L 54 80 L 61 78 L 62 76 L 62 74 L 65 68 L 66 63 L 68 60 L 71 49 L 73 46 L 75 38 L 77 35 L 78 30 L 80 27 L 82 19 L 85 13 L 86 8 Z M 13 135 L 14 137 L 11 142 L 10 141 L 10 139 Z M 27 105 L 29 108 L 22 117 L 21 115 L 23 112 L 23 110 L 25 106 Z M 29 102 L 29 100 L 32 97 L 36 98 L 39 101 L 34 103 L 32 105 L 31 105 Z M 37 95 L 38 94 L 40 95 L 46 95 L 48 98 L 46 100 L 44 100 L 43 99 L 41 99 Z M 80 12 L 82 15 L 80 18 L 78 26 L 76 29 L 75 34 L 73 37 L 72 42 L 70 45 L 69 50 L 67 53 L 66 58 L 64 61 L 62 69 L 58 76 L 54 76 L 53 75 L 49 75 L 48 74 L 43 73 L 42 72 L 42 70 L 44 67 L 49 50 L 51 47 L 51 45 L 53 41 L 53 38 L 55 35 L 55 33 L 63 11 L 64 10 L 67 10 L 68 11 Z M 64 6 L 66 4 L 81 6 L 83 8 L 83 10 L 82 11 L 70 10 L 69 9 L 66 9 Z" fill="currentColor" fill-rule="evenodd" clip-rule="evenodd"/>
</svg>