<svg xmlns="http://www.w3.org/2000/svg" viewBox="0 0 223 212" fill="none">
  <path d="M 157 157 L 156 155 L 149 149 L 143 149 L 142 150 L 134 149 L 132 150 L 129 154 L 129 157 L 125 162 L 126 167 L 130 171 L 136 171 L 139 169 L 140 167 L 140 163 L 141 162 L 142 162 L 145 166 L 145 170 L 140 175 L 135 177 L 121 176 L 118 174 L 114 173 L 109 169 L 108 169 L 108 170 L 113 175 L 115 175 L 125 179 L 128 179 L 129 180 L 141 180 L 142 179 L 145 179 L 149 177 L 155 170 L 157 166 Z M 13 145 L 14 148 L 28 161 L 34 164 L 46 167 L 46 166 L 45 166 L 43 163 L 40 161 L 37 163 L 29 159 L 14 145 Z M 19 144 L 19 146 L 27 154 L 37 160 L 34 156 L 33 156 L 20 144 Z M 149 138 L 151 139 L 158 135 L 165 135 L 166 136 L 167 136 L 167 135 L 165 134 L 157 134 L 151 137 L 149 137 Z M 23 133 L 22 134 L 21 139 L 22 140 L 25 140 L 25 139 L 27 138 L 28 140 L 29 140 L 29 138 L 27 137 L 24 133 Z M 18 131 L 17 131 L 17 133 L 16 134 L 16 139 L 18 138 L 18 136 L 19 135 L 19 132 Z M 10 127 L 10 137 L 12 137 L 13 136 L 13 130 L 12 128 Z M 5 124 L 5 133 L 7 134 L 7 125 Z M 13 123 L 16 127 L 21 130 L 23 130 L 23 129 L 20 128 Z M 154 122 L 153 122 L 153 125 L 151 126 L 151 127 L 154 126 Z M 168 120 L 169 123 L 171 124 L 171 122 Z M 2 115 L 2 119 L 3 121 L 4 121 L 4 118 L 7 114 L 11 114 L 13 115 L 22 124 L 24 124 L 24 123 L 20 120 L 18 116 L 11 111 L 6 111 L 4 112 Z M 182 97 L 182 98 L 188 102 L 188 100 L 187 99 Z M 39 97 L 34 98 L 33 100 L 35 100 L 39 98 Z M 58 66 L 55 64 L 52 64 L 50 65 L 50 68 L 52 68 L 54 70 L 51 73 L 40 72 L 36 75 L 32 76 L 29 79 L 29 85 L 30 86 L 33 85 L 36 81 L 42 76 L 44 76 L 45 75 L 51 75 L 55 73 L 58 69 Z M 105 60 L 104 60 L 104 62 L 105 63 L 105 78 L 104 79 L 103 85 L 101 88 L 101 90 L 96 100 L 87 110 L 79 115 L 75 119 L 73 127 L 67 135 L 66 134 L 67 131 L 64 127 L 60 125 L 55 125 L 54 124 L 57 121 L 61 119 L 63 119 L 68 116 L 74 107 L 74 100 L 73 99 L 73 97 L 65 88 L 54 83 L 44 83 L 34 87 L 33 89 L 35 92 L 34 93 L 30 93 L 23 96 L 23 97 L 25 96 L 31 96 L 32 95 L 34 95 L 34 93 L 35 92 L 37 92 L 43 96 L 44 98 L 47 100 L 52 99 L 53 101 L 56 101 L 60 98 L 63 101 L 63 103 L 57 108 L 53 108 L 52 109 L 44 109 L 43 110 L 36 111 L 31 116 L 29 120 L 29 132 L 36 147 L 40 153 L 39 154 L 32 147 L 32 146 L 30 146 L 28 144 L 26 144 L 26 145 L 34 154 L 38 157 L 40 157 L 41 155 L 57 170 L 57 173 L 61 182 L 69 191 L 70 191 L 78 198 L 78 200 L 75 204 L 76 204 L 81 198 L 81 192 L 80 191 L 78 183 L 81 181 L 82 179 L 83 179 L 84 181 L 85 181 L 93 188 L 97 189 L 102 192 L 108 193 L 109 195 L 115 193 L 115 190 L 116 189 L 119 189 L 123 191 L 153 191 L 154 190 L 154 189 L 146 189 L 145 188 L 137 187 L 136 186 L 133 186 L 132 185 L 124 183 L 122 181 L 112 177 L 100 169 L 103 165 L 106 165 L 106 164 L 100 164 L 99 163 L 97 163 L 91 160 L 89 158 L 90 157 L 92 157 L 96 159 L 112 160 L 112 159 L 108 159 L 107 158 L 109 157 L 109 156 L 104 156 L 103 158 L 100 158 L 94 154 L 95 153 L 99 153 L 100 154 L 102 154 L 103 153 L 109 153 L 114 151 L 114 150 L 111 150 L 110 151 L 99 151 L 98 149 L 99 148 L 109 147 L 113 145 L 114 143 L 112 143 L 109 145 L 105 145 L 104 146 L 102 146 L 101 144 L 102 143 L 105 143 L 106 142 L 111 141 L 116 138 L 117 136 L 112 139 L 105 140 L 104 141 L 100 141 L 99 142 L 97 141 L 95 142 L 94 140 L 95 139 L 105 138 L 115 134 L 119 131 L 119 130 L 109 135 L 106 135 L 105 136 L 100 136 L 99 135 L 102 132 L 106 130 L 108 130 L 120 124 L 125 120 L 125 119 L 124 119 L 117 124 L 113 125 L 110 127 L 108 126 L 117 120 L 126 111 L 126 110 L 125 110 L 120 115 L 109 123 L 105 125 L 103 124 L 103 123 L 109 119 L 120 107 L 126 99 L 129 92 L 129 87 L 128 87 L 128 90 L 123 100 L 116 108 L 116 109 L 107 118 L 105 119 L 103 117 L 104 115 L 115 103 L 123 88 L 124 81 L 123 81 L 122 83 L 122 86 L 118 93 L 117 92 L 117 90 L 118 89 L 118 75 L 116 70 L 115 70 L 116 72 L 116 85 L 115 86 L 115 89 L 104 108 L 101 111 L 99 111 L 98 110 L 98 108 L 105 100 L 110 90 L 110 88 L 112 84 L 112 81 L 113 80 L 113 73 L 112 72 L 112 69 L 111 69 L 111 79 L 110 80 L 108 88 L 103 98 L 99 103 L 98 101 L 103 92 L 103 90 L 105 86 L 105 83 L 106 82 L 106 79 L 107 78 L 107 67 L 106 66 Z M 70 158 L 71 157 L 73 157 L 74 159 L 78 162 L 76 163 Z M 76 155 L 78 154 L 90 162 L 97 164 L 99 166 L 97 167 L 96 166 L 93 166 L 87 163 L 85 163 L 78 159 L 76 157 Z M 61 148 L 63 147 L 66 151 L 64 152 Z M 66 146 L 67 145 L 70 147 L 72 151 L 71 152 L 69 152 L 66 148 Z M 78 141 L 79 140 L 81 140 L 83 143 L 81 144 Z M 72 138 L 73 138 L 77 142 L 75 145 L 72 145 L 71 144 L 71 142 L 69 141 Z M 66 136 L 63 139 L 61 139 L 60 140 L 58 140 L 57 139 L 57 138 L 60 136 L 63 136 L 64 135 Z M 79 135 L 81 134 L 83 135 L 85 138 L 83 139 L 81 138 Z M 70 135 L 72 134 L 73 136 L 71 137 Z M 76 130 L 77 131 L 77 133 L 75 135 L 74 133 Z M 80 129 L 81 128 L 83 128 L 87 133 L 86 134 L 82 133 L 80 131 Z M 87 126 L 89 128 L 88 130 L 85 128 Z M 83 119 L 85 121 L 85 125 L 84 126 L 80 125 L 78 128 L 77 127 L 77 125 L 79 121 Z M 94 108 L 95 109 L 94 110 L 94 114 L 89 118 L 85 118 L 84 117 L 84 115 L 91 109 Z M 141 53 L 141 59 L 145 63 L 150 65 L 150 75 L 158 82 L 162 84 L 166 84 L 166 83 L 159 81 L 152 75 L 151 73 L 151 67 L 153 65 L 155 67 L 156 67 L 156 66 L 154 64 L 146 60 L 144 58 L 142 53 Z M 175 41 L 168 41 L 163 43 L 162 45 L 162 49 L 166 51 L 160 56 L 158 60 L 158 65 L 159 67 L 165 72 L 168 72 L 169 73 L 173 72 L 174 73 L 174 77 L 176 81 L 182 84 L 187 84 L 191 79 L 192 75 L 188 69 L 189 68 L 193 68 L 195 69 L 200 74 L 203 80 L 203 84 L 204 85 L 204 100 L 205 101 L 204 102 L 196 102 L 189 105 L 189 109 L 190 110 L 189 111 L 184 112 L 181 114 L 179 117 L 179 123 L 178 124 L 174 122 L 174 123 L 177 124 L 180 127 L 183 135 L 183 138 L 184 138 L 184 133 L 182 130 L 182 128 L 183 127 L 185 128 L 189 128 L 191 130 L 190 131 L 190 139 L 193 143 L 191 146 L 188 146 L 186 144 L 180 143 L 183 147 L 182 149 L 177 145 L 175 145 L 174 144 L 167 144 L 162 147 L 160 151 L 160 157 L 163 160 L 160 165 L 160 171 L 162 175 L 155 181 L 153 181 L 152 182 L 146 182 L 146 183 L 153 183 L 154 182 L 156 182 L 160 180 L 163 177 L 172 177 L 176 172 L 176 170 L 175 169 L 176 167 L 178 169 L 178 174 L 169 182 L 165 184 L 163 184 L 159 186 L 159 187 L 167 186 L 168 185 L 173 184 L 177 181 L 180 180 L 186 175 L 186 174 L 190 170 L 193 164 L 194 165 L 194 167 L 197 167 L 202 164 L 213 152 L 218 142 L 219 136 L 220 135 L 220 118 L 218 115 L 217 111 L 208 103 L 208 102 L 211 100 L 212 95 L 213 94 L 213 81 L 212 80 L 210 70 L 203 58 L 195 50 L 183 43 L 176 42 Z M 172 166 L 174 165 L 176 167 L 174 168 Z M 206 140 L 207 142 L 205 146 L 199 154 L 194 163 L 193 162 L 193 154 L 192 153 L 192 150 L 197 144 L 201 144 Z M 200 129 L 201 128 L 204 128 L 207 132 L 206 133 L 203 130 L 201 130 Z M 142 0 L 136 8 L 136 10 L 135 11 L 135 18 L 137 22 L 143 26 L 143 30 L 147 36 L 155 41 L 162 41 L 168 38 L 168 36 L 167 35 L 165 35 L 154 29 L 145 20 L 142 13 L 142 6 L 145 0 Z" fill="currentColor" fill-rule="evenodd" clip-rule="evenodd"/>
</svg>