<svg xmlns="http://www.w3.org/2000/svg" viewBox="0 0 162 100" fill="none">
  <path d="M 71 8 L 71 9 L 77 9 L 77 8 Z M 2 73 L 2 75 L 8 80 L 14 80 L 16 83 L 16 85 L 13 87 L 11 86 L 8 86 L 7 87 L 5 86 L 6 92 L 7 93 L 14 93 L 15 91 L 23 91 L 24 92 L 27 92 L 28 91 L 29 92 L 33 92 L 34 91 L 50 91 L 52 88 L 56 91 L 61 93 L 65 93 L 68 91 L 71 91 L 75 94 L 100 93 L 103 95 L 105 95 L 106 94 L 110 97 L 112 97 L 113 95 L 119 95 L 121 92 L 123 95 L 125 95 L 126 96 L 132 96 L 133 95 L 134 96 L 137 96 L 139 95 L 140 93 L 142 93 L 144 91 L 146 91 L 146 88 L 147 87 L 149 89 L 155 86 L 161 87 L 161 83 L 157 79 L 156 79 L 155 77 L 153 78 L 146 78 L 144 81 L 139 79 L 142 73 L 142 66 L 141 64 L 137 60 L 132 60 L 131 59 L 132 54 L 130 49 L 125 46 L 122 46 L 120 44 L 124 41 L 125 36 L 124 34 L 122 33 L 123 24 L 118 18 L 120 15 L 118 8 L 116 7 L 109 8 L 106 3 L 104 2 L 50 2 L 48 3 L 45 7 L 45 12 L 48 16 L 44 19 L 44 23 L 39 27 L 37 32 L 35 34 L 34 33 L 32 33 L 28 36 L 28 41 L 29 43 L 31 44 L 35 43 L 36 44 L 36 46 L 34 48 L 31 46 L 24 46 L 22 47 L 18 52 L 18 58 L 16 61 L 12 61 L 8 65 L 7 70 L 5 72 L 3 72 Z M 49 80 L 51 85 L 50 87 L 45 83 Z M 41 79 L 42 78 L 44 78 L 45 79 L 44 80 L 42 80 Z M 74 77 L 78 77 L 82 81 L 84 86 L 83 90 L 79 93 L 73 91 L 69 85 L 69 82 Z M 21 75 L 23 76 L 22 77 L 22 81 L 23 82 L 23 84 L 22 85 L 21 85 L 19 82 L 16 80 L 16 79 L 20 77 Z M 31 73 L 35 73 L 38 77 L 38 82 L 35 84 L 27 84 L 25 81 L 25 79 Z M 54 73 L 58 72 L 64 77 L 66 81 L 66 87 L 64 90 L 60 90 L 58 89 L 53 84 L 53 82 L 52 81 L 52 76 Z M 24 71 L 25 72 L 23 75 L 22 74 L 22 72 Z M 56 68 L 60 66 L 64 66 L 65 67 L 66 72 L 71 75 L 69 77 L 67 77 L 62 71 L 57 70 Z M 36 66 L 37 67 L 37 70 L 36 71 L 34 69 Z M 52 64 L 54 63 L 55 64 L 55 66 L 54 67 Z M 15 63 L 19 66 L 19 68 L 20 69 L 20 72 L 17 75 L 13 75 L 10 72 L 10 70 L 9 69 L 10 66 L 12 64 L 14 64 Z M 140 66 L 140 73 L 137 77 L 132 79 L 129 79 L 122 82 L 119 82 L 112 85 L 106 85 L 105 83 L 103 83 L 103 84 L 97 90 L 91 91 L 90 92 L 86 92 L 85 91 L 86 84 L 83 78 L 79 74 L 82 72 L 89 71 L 93 69 L 96 69 L 103 66 L 106 66 L 107 65 L 117 63 L 118 62 L 134 61 L 138 63 Z M 41 60 L 47 61 L 49 64 L 49 68 L 46 72 L 41 72 L 39 69 L 39 63 Z M 71 59 L 73 59 L 78 64 L 78 70 L 75 73 L 72 73 L 68 71 L 66 67 L 67 62 Z M 54 49 L 58 50 L 64 57 L 64 61 L 59 65 L 57 63 L 57 58 L 52 54 L 52 52 Z M 22 50 L 24 50 L 25 49 L 31 49 L 34 53 L 34 56 L 35 57 L 34 64 L 30 69 L 25 69 L 23 68 L 20 63 L 19 56 L 20 55 L 20 52 Z M 130 53 L 130 56 L 127 58 L 123 58 L 119 60 L 116 60 L 109 63 L 99 65 L 98 66 L 96 66 L 92 68 L 89 68 L 82 71 L 80 70 L 80 64 L 79 63 L 79 61 L 77 59 L 78 57 L 88 55 L 91 53 L 97 52 L 98 51 L 100 51 L 104 49 L 107 49 L 111 47 L 123 47 Z M 65 48 L 66 47 L 72 47 L 74 51 L 70 55 L 68 55 L 65 52 Z M 37 47 L 39 45 L 44 45 L 46 46 L 49 50 L 46 54 L 41 55 L 37 51 Z M 40 41 L 41 39 L 43 39 L 44 40 L 41 42 Z M 48 38 L 50 36 L 54 36 L 58 41 L 56 44 L 52 45 L 48 41 Z M 31 36 L 35 36 L 36 37 L 36 39 L 33 42 L 31 42 L 29 39 Z M 123 36 L 123 39 L 120 43 L 114 44 L 107 47 L 104 47 L 94 51 L 91 51 L 78 56 L 75 56 L 74 55 L 76 50 L 74 45 L 77 43 L 85 42 L 86 41 L 94 40 L 95 39 L 100 39 L 101 38 L 110 37 L 111 36 L 118 35 L 119 34 L 121 34 Z M 61 29 L 62 29 L 67 35 L 67 41 L 65 43 L 58 35 L 59 31 Z M 44 28 L 45 29 L 45 35 L 42 37 L 40 37 L 38 35 L 38 32 L 41 28 Z M 121 24 L 121 28 L 119 32 L 116 34 L 112 34 L 107 36 L 93 38 L 92 39 L 84 40 L 83 41 L 75 42 L 74 43 L 69 43 L 68 42 L 69 41 L 69 34 L 66 30 L 66 28 L 67 27 L 71 27 L 72 26 L 76 26 L 77 25 L 83 25 L 84 24 L 90 24 L 91 23 L 97 23 L 98 22 L 103 22 L 104 21 L 110 21 L 111 20 L 117 20 Z M 48 18 L 56 25 L 54 27 L 49 28 L 46 25 L 46 20 Z M 60 17 L 62 17 L 64 20 L 64 22 L 62 24 L 59 24 L 57 22 L 57 20 Z M 118 12 L 117 16 L 115 18 L 113 18 L 112 19 L 101 20 L 100 18 L 91 22 L 81 23 L 80 24 L 74 24 L 73 25 L 67 25 L 66 26 L 64 25 L 66 21 L 64 17 L 65 15 L 72 15 L 73 14 L 94 14 L 95 16 L 97 16 L 98 15 L 103 15 L 104 16 L 102 17 L 102 18 L 103 18 L 104 17 L 107 17 L 107 16 L 105 16 L 104 15 L 109 9 L 116 9 Z M 51 4 L 53 4 L 56 9 L 55 12 L 53 14 L 51 14 L 47 9 Z M 56 4 L 57 3 L 68 3 L 69 4 L 105 4 L 106 5 L 106 10 L 105 11 L 97 11 L 96 12 L 89 12 L 88 13 L 58 13 L 57 12 L 57 7 L 56 6 Z" fill="currentColor" fill-rule="evenodd" clip-rule="evenodd"/>
</svg>