<svg xmlns="http://www.w3.org/2000/svg" viewBox="0 0 219 137" fill="none">
  <path d="M 137 69 L 132 70 L 131 71 L 131 74 L 136 74 L 137 73 Z M 92 70 L 92 73 L 93 74 L 98 74 L 98 71 L 96 69 L 93 69 Z M 114 55 L 113 56 L 113 58 L 114 59 L 117 59 L 118 58 L 118 56 L 117 55 Z M 134 40 L 133 41 L 133 44 L 134 45 L 138 45 L 138 41 Z M 101 41 L 100 40 L 95 41 L 95 45 L 100 44 L 101 43 Z M 28 3 L 27 9 L 26 10 L 26 14 L 25 15 L 25 19 L 23 24 L 23 28 L 21 33 L 21 37 L 19 42 L 18 51 L 16 56 L 16 60 L 15 61 L 15 64 L 13 69 L 11 83 L 10 84 L 10 87 L 8 92 L 7 102 L 6 103 L 6 106 L 4 111 L 4 115 L 3 116 L 3 120 L 2 121 L 2 132 L 3 133 L 213 134 L 216 132 L 216 109 L 215 108 L 215 91 L 214 90 L 214 78 L 213 77 L 213 59 L 212 58 L 211 24 L 210 23 L 210 15 L 208 10 L 208 6 L 206 3 L 146 3 L 145 2 L 29 2 Z M 212 128 L 210 130 L 6 130 L 5 129 L 5 125 L 6 124 L 208 124 L 209 123 L 211 125 L 211 127 Z M 98 110 L 101 108 L 103 105 L 108 108 L 116 108 L 119 106 L 121 106 L 126 110 L 125 111 L 121 110 L 120 113 L 118 115 L 113 117 L 109 117 L 105 115 L 103 111 L 99 111 Z M 108 103 L 113 100 L 116 104 L 114 106 L 110 106 Z M 139 97 L 143 95 L 147 98 L 147 100 L 145 102 L 143 102 L 139 99 Z M 83 95 L 85 96 L 86 98 L 81 102 L 78 100 L 78 98 L 81 95 Z M 125 87 L 129 83 L 130 83 L 133 87 L 137 87 L 141 84 L 144 86 L 146 86 L 147 87 L 147 90 L 142 94 L 138 94 L 134 91 L 130 94 L 127 94 L 125 92 Z M 79 88 L 82 85 L 84 85 L 86 83 L 89 87 L 93 87 L 97 83 L 98 83 L 101 86 L 102 91 L 99 94 L 96 94 L 93 92 L 91 92 L 88 94 L 84 94 L 80 91 Z M 164 84 L 163 85 L 163 87 L 165 90 L 165 94 L 163 96 L 155 96 L 151 94 L 151 96 L 155 98 L 159 98 L 161 100 L 159 102 L 155 103 L 154 104 L 154 106 L 149 110 L 144 110 L 143 109 L 136 110 L 134 108 L 135 106 L 131 108 L 127 108 L 125 107 L 123 104 L 125 100 L 123 100 L 121 102 L 118 102 L 114 97 L 116 90 L 122 84 L 123 84 L 124 85 L 123 87 L 123 93 L 126 96 L 130 96 L 134 94 L 138 97 L 137 98 L 138 101 L 140 103 L 144 104 L 145 103 L 147 103 L 149 101 L 149 97 L 147 94 L 149 90 L 149 87 L 152 84 L 158 84 L 161 82 Z M 133 82 L 135 81 L 137 82 L 138 84 L 137 85 L 134 85 L 133 84 Z M 89 84 L 91 81 L 93 81 L 95 83 L 93 85 L 90 85 Z M 142 79 L 143 78 L 146 78 L 148 79 L 150 82 L 148 84 L 145 84 L 142 81 Z M 86 79 L 86 81 L 82 84 L 79 84 L 78 83 L 78 81 L 81 78 L 85 78 Z M 164 78 L 165 77 L 169 77 L 172 80 L 168 83 L 164 80 Z M 56 81 L 56 79 L 60 76 L 64 78 L 61 82 L 57 82 Z M 146 73 L 148 71 L 150 71 L 152 74 L 151 75 L 148 75 Z M 77 73 L 79 71 L 81 71 L 82 72 L 82 74 L 81 75 L 79 75 Z M 156 65 L 161 66 L 163 68 L 163 69 L 160 71 L 160 73 L 162 75 L 162 79 L 158 82 L 153 82 L 150 78 L 153 75 L 153 72 L 149 69 L 152 66 L 155 66 Z M 70 65 L 75 65 L 76 66 L 78 66 L 80 68 L 80 69 L 76 71 L 75 73 L 76 76 L 77 76 L 78 78 L 74 82 L 70 82 L 66 79 L 66 75 L 69 72 L 67 69 L 67 67 Z M 103 69 L 108 64 L 111 64 L 113 69 L 116 69 L 118 67 L 118 65 L 119 64 L 121 64 L 125 67 L 126 72 L 123 75 L 119 74 L 117 77 L 112 77 L 110 74 L 106 75 L 103 72 Z M 158 59 L 169 59 L 172 62 L 170 66 L 175 65 L 179 68 L 179 71 L 176 73 L 176 74 L 180 73 L 182 75 L 181 77 L 181 81 L 182 82 L 181 85 L 177 88 L 174 88 L 173 91 L 170 93 L 168 93 L 167 92 L 167 89 L 164 85 L 165 84 L 171 84 L 173 82 L 173 78 L 169 75 L 165 75 L 163 73 L 163 71 L 164 70 L 164 66 L 161 64 L 152 64 L 151 63 Z M 151 60 L 145 66 L 143 70 L 143 72 L 138 77 L 125 80 L 117 86 L 116 85 L 116 81 L 119 77 L 125 76 L 128 72 L 128 69 L 127 68 L 129 66 L 130 67 L 136 67 L 140 65 L 141 62 L 144 59 L 150 59 Z M 80 60 L 81 59 L 87 59 L 90 62 L 90 65 L 94 67 L 102 66 L 103 67 L 101 71 L 102 75 L 106 77 L 109 77 L 111 79 L 111 85 L 110 86 L 103 80 L 101 80 L 97 78 L 93 78 L 89 76 L 86 71 L 86 68 L 84 64 Z M 46 75 L 48 73 L 52 73 L 52 72 L 50 71 L 50 68 L 53 65 L 60 65 L 58 62 L 59 60 L 63 58 L 70 58 L 71 59 L 73 59 L 79 63 L 78 64 L 76 64 L 75 63 L 68 64 L 65 67 L 66 73 L 64 75 L 58 75 L 55 77 L 54 82 L 56 84 L 61 84 L 64 82 L 66 82 L 70 84 L 75 84 L 77 86 L 77 90 L 79 93 L 76 97 L 76 102 L 78 103 L 83 103 L 87 100 L 88 96 L 91 94 L 95 96 L 99 96 L 101 95 L 104 90 L 104 87 L 103 86 L 104 84 L 105 84 L 111 92 L 111 98 L 107 102 L 104 102 L 102 100 L 100 100 L 101 105 L 97 108 L 93 108 L 89 105 L 89 109 L 88 110 L 84 110 L 83 109 L 75 110 L 70 106 L 70 103 L 67 103 L 64 100 L 65 98 L 69 98 L 72 96 L 74 96 L 75 94 L 73 94 L 70 96 L 63 96 L 60 92 L 64 85 L 63 85 L 60 88 L 59 91 L 56 93 L 53 90 L 52 87 L 48 87 L 46 85 L 46 83 L 45 82 L 47 79 Z M 174 54 L 177 57 L 175 60 L 173 60 L 170 57 Z M 56 54 L 58 54 L 60 56 L 58 59 L 55 59 L 54 58 L 54 56 Z M 107 57 L 108 56 L 108 54 L 112 51 L 120 51 L 121 53 L 124 55 L 124 59 L 119 63 L 112 63 L 107 59 Z M 128 50 L 130 49 L 137 49 L 139 51 L 138 52 L 138 54 L 140 54 L 142 56 L 142 58 L 140 60 L 137 60 L 139 63 L 137 65 L 130 65 L 125 62 L 125 60 L 126 59 L 130 59 L 131 58 L 131 56 L 130 55 L 127 55 L 125 53 Z M 94 49 L 102 49 L 107 53 L 105 55 L 101 55 L 100 56 L 100 58 L 101 59 L 105 59 L 106 60 L 103 64 L 101 64 L 100 65 L 94 65 L 92 63 L 94 60 L 90 59 L 89 58 L 89 56 L 91 54 L 93 54 L 94 53 L 93 51 Z M 181 47 L 182 48 L 182 51 L 187 53 L 189 56 L 189 59 L 185 63 L 183 63 L 182 64 L 183 66 L 182 67 L 181 67 L 177 63 L 179 59 L 179 55 L 177 51 Z M 51 47 L 54 49 L 55 51 L 52 55 L 52 60 L 53 61 L 53 63 L 48 67 L 47 66 L 47 63 L 42 59 L 42 55 L 46 51 L 50 50 L 49 48 Z M 115 47 L 117 46 L 118 48 L 116 49 Z M 147 42 L 149 40 L 151 40 L 152 41 L 151 43 L 148 43 Z M 81 41 L 84 39 L 86 42 L 85 43 L 83 43 Z M 106 41 L 107 40 L 112 41 L 114 38 L 119 38 L 121 41 L 126 40 L 128 44 L 123 50 L 121 50 L 119 48 L 119 46 L 118 45 L 115 45 L 112 50 L 110 50 L 106 46 Z M 164 35 L 167 33 L 169 33 L 172 36 L 170 38 L 166 38 Z M 156 33 L 161 35 L 163 38 L 160 42 L 163 46 L 160 49 L 155 49 L 150 46 L 154 42 L 154 40 L 151 37 Z M 76 33 L 80 33 L 83 37 L 80 39 L 79 41 L 82 46 L 79 48 L 72 48 L 70 46 L 70 45 L 73 43 L 73 41 L 71 39 L 71 37 Z M 63 34 L 64 33 L 68 33 L 70 36 L 68 38 L 66 38 L 63 36 Z M 143 36 L 146 32 L 150 32 L 151 33 L 148 37 L 144 37 Z M 83 33 L 87 31 L 91 34 L 91 36 L 90 37 L 87 37 L 85 36 Z M 135 32 L 138 30 L 140 33 L 139 34 L 137 34 Z M 120 31 L 121 30 L 124 33 L 130 36 L 137 37 L 141 39 L 144 43 L 145 48 L 151 54 L 150 55 L 144 55 L 141 52 L 141 50 L 137 47 L 131 47 L 129 48 L 128 47 L 129 46 L 129 40 L 126 38 L 122 38 L 120 36 Z M 116 31 L 115 32 L 115 35 L 112 38 L 108 38 L 105 40 L 104 42 L 104 47 L 103 48 L 102 47 L 95 47 L 91 50 L 90 53 L 87 55 L 81 55 L 80 54 L 87 48 L 89 43 L 92 39 L 99 36 L 104 36 L 114 30 Z M 95 31 L 96 30 L 98 30 L 100 32 L 97 34 Z M 65 24 L 67 24 L 68 25 L 68 27 L 70 30 L 69 31 L 64 31 L 62 32 L 61 37 L 63 39 L 68 39 L 70 41 L 70 43 L 68 45 L 68 48 L 71 50 L 78 50 L 80 49 L 81 50 L 79 52 L 72 55 L 63 55 L 60 53 L 60 51 L 62 48 L 57 49 L 54 46 L 54 43 L 56 42 L 57 40 L 55 41 L 53 41 L 52 40 L 54 37 L 54 35 L 53 34 L 54 31 L 58 28 L 61 28 Z M 128 26 L 131 23 L 133 23 L 136 25 L 143 23 L 144 24 L 146 24 L 149 27 L 149 29 L 144 32 L 140 29 L 137 29 L 133 32 L 131 32 L 129 30 Z M 86 28 L 87 26 L 91 23 L 95 23 L 98 25 L 100 25 L 102 23 L 105 23 L 107 25 L 107 29 L 103 32 L 99 29 L 95 29 L 92 32 Z M 145 17 L 148 17 L 149 18 L 149 20 L 147 22 L 144 22 L 143 21 L 143 19 Z M 87 18 L 88 17 L 92 17 L 94 20 L 92 22 L 90 22 Z M 115 15 L 117 13 L 120 13 L 122 15 L 119 18 Z M 120 20 L 123 17 L 129 18 L 129 14 L 132 12 L 136 12 L 139 14 L 139 12 L 141 10 L 142 11 L 152 11 L 155 13 L 156 16 L 158 16 L 161 18 L 160 20 L 157 20 L 153 22 L 153 23 L 161 21 L 162 22 L 164 22 L 166 24 L 166 26 L 164 30 L 166 29 L 167 26 L 169 24 L 171 25 L 174 29 L 179 30 L 181 33 L 181 35 L 180 36 L 181 41 L 180 42 L 176 41 L 179 45 L 176 49 L 172 49 L 170 48 L 170 50 L 172 51 L 172 53 L 170 55 L 168 55 L 167 56 L 158 55 L 152 51 L 153 50 L 162 50 L 164 48 L 164 44 L 163 42 L 165 40 L 170 40 L 173 37 L 173 33 L 169 31 L 164 33 L 154 32 L 151 30 L 151 27 L 149 24 L 151 21 L 151 17 L 150 16 L 144 16 L 141 18 L 141 20 L 138 23 L 136 23 L 135 22 L 129 22 L 127 24 L 127 26 L 126 27 L 127 30 L 126 31 L 125 31 L 120 25 Z M 70 27 L 70 23 L 72 21 L 79 21 L 83 23 L 83 21 L 75 18 L 77 16 L 81 15 L 84 11 L 86 11 L 87 10 L 90 10 L 91 11 L 98 10 L 99 11 L 99 13 L 101 12 L 106 12 L 109 15 L 108 16 L 108 18 L 112 16 L 114 17 L 117 21 L 116 25 L 110 31 L 109 31 L 108 30 L 109 28 L 109 24 L 107 22 L 104 21 L 99 23 L 96 21 L 96 18 L 94 16 L 89 15 L 85 18 L 85 20 L 87 24 L 85 26 L 85 28 L 82 31 L 76 31 L 72 33 L 71 32 L 72 29 Z M 109 11 L 111 10 L 114 6 L 118 6 L 119 5 L 125 7 L 127 10 L 129 10 L 130 11 L 127 14 L 123 12 L 115 12 L 112 14 Z M 29 6 L 32 3 L 53 3 L 54 4 L 111 4 L 112 5 L 111 7 L 106 8 L 104 10 L 101 10 L 98 8 L 96 8 L 95 9 L 85 9 L 79 14 L 74 16 L 70 21 L 65 22 L 60 26 L 56 27 L 52 31 L 52 36 L 50 38 L 50 41 L 52 43 L 41 53 L 40 55 L 40 61 L 44 64 L 45 68 L 48 70 L 44 75 L 44 77 L 45 78 L 44 80 L 44 86 L 47 89 L 49 89 L 53 94 L 59 96 L 61 98 L 62 102 L 67 105 L 69 107 L 70 110 L 75 111 L 76 112 L 78 112 L 79 111 L 88 112 L 91 110 L 94 110 L 97 113 L 100 113 L 106 118 L 113 119 L 118 117 L 123 113 L 126 113 L 129 110 L 132 110 L 134 112 L 140 112 L 141 111 L 148 112 L 153 110 L 157 105 L 162 102 L 163 99 L 166 96 L 172 94 L 177 89 L 179 89 L 183 85 L 183 77 L 184 76 L 184 74 L 181 70 L 185 67 L 185 65 L 187 64 L 191 59 L 191 55 L 190 53 L 181 45 L 181 43 L 183 41 L 182 31 L 181 29 L 176 27 L 172 23 L 167 22 L 161 15 L 159 15 L 156 11 L 152 9 L 147 9 L 146 10 L 144 9 L 139 9 L 138 10 L 134 10 L 132 8 L 129 8 L 127 6 L 129 4 L 141 4 L 142 5 L 203 5 L 205 7 L 206 45 L 207 46 L 207 64 L 208 65 L 208 84 L 209 85 L 210 117 L 211 119 L 209 121 L 7 121 L 6 120 L 6 115 L 7 114 L 7 110 L 9 105 L 10 96 L 11 95 L 11 92 L 13 87 L 13 82 L 15 77 L 15 73 L 16 72 L 18 58 L 20 53 L 22 39 L 24 34 L 25 25 L 27 20 Z" fill="currentColor" fill-rule="evenodd" clip-rule="evenodd"/>
</svg>