<svg xmlns="http://www.w3.org/2000/svg" viewBox="0 0 177 140" fill="none">
  <path d="M 2 15 L 2 122 L 7 128 L 11 130 L 13 130 L 20 133 L 23 133 L 24 134 L 29 134 L 30 135 L 36 135 L 37 136 L 53 136 L 54 137 L 56 136 L 73 136 L 74 135 L 80 135 L 81 134 L 89 133 L 99 129 L 103 125 L 104 123 L 104 105 L 105 104 L 120 120 L 126 124 L 140 124 L 147 120 L 149 116 L 155 112 L 163 104 L 168 102 L 172 98 L 176 92 L 176 82 L 166 67 L 166 65 L 171 61 L 174 60 L 176 58 L 176 56 L 172 59 L 167 61 L 165 63 L 163 63 L 156 56 L 156 52 L 159 49 L 171 31 L 176 26 L 176 24 L 169 31 L 160 45 L 154 52 L 151 50 L 151 49 L 139 35 L 134 34 L 133 35 L 131 35 L 125 41 L 122 47 L 122 49 L 116 55 L 112 57 L 109 60 L 106 60 L 104 57 L 104 33 L 105 32 L 105 18 L 104 17 L 104 15 L 100 11 L 94 8 L 92 8 L 88 6 L 85 6 L 84 5 L 73 4 L 72 3 L 59 3 L 58 2 L 56 3 L 35 3 L 34 4 L 28 4 L 27 5 L 23 5 L 22 6 L 19 6 L 18 7 L 13 8 L 10 10 L 8 10 Z M 90 67 L 95 63 L 106 62 L 108 63 L 110 66 L 110 74 L 113 76 L 116 76 L 117 77 L 124 77 L 126 78 L 129 81 L 129 83 L 130 84 L 129 94 L 132 101 L 136 105 L 145 109 L 148 113 L 147 117 L 142 121 L 140 121 L 139 122 L 130 122 L 123 119 L 108 104 L 102 94 L 99 91 L 96 84 L 92 78 L 92 75 L 90 71 Z M 119 55 L 120 57 L 112 64 L 110 61 Z M 123 51 L 128 56 L 133 64 L 138 69 L 162 101 L 160 105 L 151 112 L 150 110 L 157 103 L 158 100 L 157 100 L 149 108 L 147 108 L 145 106 L 152 100 L 153 97 L 152 97 L 143 105 L 141 105 L 139 103 L 143 99 L 144 99 L 146 96 L 147 96 L 148 92 L 147 92 L 147 93 L 138 101 L 135 101 L 134 100 L 134 98 L 143 90 L 144 87 L 143 87 L 135 95 L 133 96 L 131 94 L 131 92 L 140 83 L 140 81 L 139 81 L 139 82 L 135 86 L 133 87 L 131 86 L 131 83 L 136 78 L 136 76 L 135 76 L 133 79 L 130 79 L 129 78 L 129 76 L 133 70 L 132 70 L 126 76 L 124 75 L 123 73 L 128 68 L 128 66 L 127 66 L 124 70 L 117 75 L 115 73 L 125 64 L 126 61 L 125 61 L 121 65 L 121 66 L 115 71 L 113 71 L 112 70 L 112 67 L 117 62 L 118 62 L 118 61 L 122 57 L 122 56 L 120 56 L 119 55 Z M 130 38 L 134 36 L 136 36 L 139 38 L 147 49 L 160 63 L 172 79 L 175 86 L 175 89 L 174 90 L 174 92 L 166 101 L 164 100 L 165 96 L 162 91 L 155 83 L 153 79 L 136 58 L 130 49 L 128 48 L 126 50 L 124 48 L 125 44 Z M 87 10 L 88 9 L 90 9 L 91 10 L 90 11 L 88 11 Z M 5 14 L 12 10 L 14 10 L 18 8 L 22 8 L 27 6 L 34 6 L 35 5 L 43 5 L 44 4 L 61 4 L 62 5 L 71 5 L 72 6 L 84 7 L 88 9 L 87 10 L 83 10 L 82 9 L 65 8 L 64 7 L 44 7 L 43 8 L 32 8 L 31 9 L 20 10 L 13 13 L 11 15 L 11 19 L 16 23 L 22 24 L 23 25 L 28 25 L 29 26 L 37 26 L 38 27 L 69 27 L 70 26 L 78 26 L 79 25 L 87 24 L 92 22 L 96 18 L 96 16 L 90 11 L 91 10 L 93 10 L 99 13 L 102 16 L 103 18 L 103 59 L 100 61 L 93 62 L 89 65 L 89 75 L 90 76 L 90 78 L 89 79 L 84 76 L 76 68 L 68 57 L 62 45 L 62 42 L 64 40 L 63 37 L 61 35 L 58 35 L 56 36 L 55 38 L 55 42 L 61 46 L 65 56 L 74 69 L 84 79 L 88 81 L 90 81 L 93 83 L 95 88 L 97 90 L 102 99 L 102 123 L 97 128 L 95 128 L 92 130 L 90 130 L 86 132 L 73 133 L 72 134 L 37 134 L 36 133 L 25 132 L 17 129 L 14 129 L 8 126 L 4 122 L 4 95 L 3 94 L 3 16 Z" fill="currentColor" fill-rule="evenodd" clip-rule="evenodd"/>
</svg>