<svg xmlns="http://www.w3.org/2000/svg" viewBox="0 0 33 144" fill="none">
  <path d="M 15 2 L 12 8 L 12 17 L 15 23 L 15 90 L 9 95 L 9 110 L 8 111 L 8 115 L 6 120 L 6 124 L 5 125 L 5 128 L 3 133 L 2 143 L 11 143 L 11 133 L 12 132 L 12 125 L 13 124 L 13 116 L 11 113 L 11 104 L 13 102 L 14 103 L 21 103 L 22 104 L 22 115 L 19 121 L 19 139 L 20 140 L 20 143 L 30 143 L 30 141 L 29 140 L 29 131 L 28 130 L 27 120 L 26 119 L 26 115 L 25 114 L 25 105 L 24 104 L 24 102 L 25 101 L 25 94 L 20 89 L 20 22 L 23 15 L 23 7 L 21 2 Z M 11 96 L 13 94 L 15 96 L 19 96 L 21 95 L 22 96 L 22 99 L 21 100 L 13 100 L 11 98 Z M 18 24 L 19 25 L 19 29 L 18 30 L 17 29 L 17 25 Z M 16 11 L 20 11 L 21 12 L 20 17 L 19 18 L 19 21 L 18 22 L 16 20 L 16 15 L 14 14 Z M 15 5 L 16 4 L 18 4 L 20 7 L 19 8 L 16 8 L 15 7 Z" fill="currentColor" fill-rule="evenodd" clip-rule="evenodd"/>
</svg>