<svg xmlns="http://www.w3.org/2000/svg" viewBox="0 0 190 124" fill="none">
  <path d="M 0 34 L 0 35 L 6 39 L 6 38 L 2 34 Z M 189 42 L 169 38 L 146 6 L 144 5 L 150 15 L 166 37 L 165 38 L 160 39 L 159 40 L 151 41 L 150 42 L 145 42 L 140 44 L 136 44 L 135 45 L 126 46 L 121 48 L 117 48 L 112 50 L 103 51 L 98 53 L 89 54 L 84 56 L 70 58 L 69 59 L 61 60 L 56 62 L 47 63 L 46 64 L 38 65 L 37 66 L 33 66 L 17 50 L 16 50 L 16 51 L 30 65 L 31 67 L 30 122 L 31 123 L 37 123 L 35 123 L 32 121 L 32 70 L 33 69 L 37 70 L 40 72 L 42 72 L 45 74 L 50 75 L 53 77 L 58 78 L 66 82 L 74 84 L 82 88 L 87 89 L 89 91 L 89 123 L 91 123 L 90 93 L 92 91 L 102 89 L 106 87 L 113 86 L 117 84 L 128 82 L 132 80 L 139 79 L 143 77 L 154 75 L 158 73 L 169 71 L 173 69 L 176 69 L 177 68 L 180 68 L 181 67 L 184 67 L 189 65 Z M 143 2 L 138 2 L 137 3 L 127 4 L 126 5 L 122 5 L 121 6 L 117 6 L 116 7 L 112 7 L 111 8 L 107 8 L 106 9 L 102 9 L 101 10 L 96 10 L 95 11 L 85 12 L 84 13 L 80 13 L 79 14 L 75 14 L 74 15 L 70 15 L 69 16 L 64 16 L 59 18 L 55 18 L 54 19 L 50 19 L 49 20 L 45 20 L 44 21 L 40 21 L 39 22 L 34 22 L 33 23 L 29 23 L 28 24 L 24 24 L 23 25 L 19 25 L 18 26 L 4 28 L 4 29 L 8 29 L 9 28 L 13 28 L 14 27 L 19 27 L 20 26 L 24 26 L 25 25 L 30 25 L 31 24 L 35 24 L 36 23 L 40 23 L 41 22 L 46 22 L 47 21 L 51 21 L 52 20 L 56 20 L 57 19 L 61 19 L 62 18 L 66 18 L 67 17 L 71 17 L 72 16 L 76 16 L 77 15 L 82 15 L 83 14 L 87 14 L 88 13 L 92 13 L 93 12 L 97 12 L 98 11 L 102 11 L 103 10 L 108 10 L 109 9 L 113 9 L 114 8 L 118 8 L 119 7 L 124 7 L 125 6 L 129 6 L 130 5 L 134 5 L 135 4 L 143 3 Z" fill="currentColor" fill-rule="evenodd" clip-rule="evenodd"/>
</svg>