<svg xmlns="http://www.w3.org/2000/svg" viewBox="0 0 244 197" fill="none">
  <path d="M 198 187 L 198 188 L 205 194 L 212 193 L 220 189 L 219 187 L 210 187 L 206 185 L 201 185 Z M 231 153 L 230 155 L 231 157 L 235 160 L 237 165 L 239 167 L 243 168 L 243 155 L 238 153 Z M 119 116 L 119 118 L 124 118 L 125 114 L 121 114 Z M 80 114 L 80 118 L 85 118 L 86 117 L 84 114 Z M 101 100 L 101 102 L 102 103 L 105 103 L 105 99 Z M 120 85 L 120 87 L 122 89 L 125 89 L 126 88 L 126 86 L 125 85 Z M 83 89 L 87 88 L 88 87 L 88 85 L 84 85 L 83 86 Z M 6 92 L 6 95 L 4 100 L 4 104 L 2 109 L 2 122 L 3 124 L 4 124 L 5 126 L 56 177 L 58 178 L 63 178 L 64 177 L 71 177 L 72 178 L 201 178 L 204 176 L 204 170 L 203 169 L 204 167 L 203 165 L 203 157 L 204 156 L 207 159 L 208 162 L 211 166 L 215 169 L 222 169 L 224 167 L 225 160 L 223 155 L 214 147 L 209 144 L 202 137 L 202 131 L 201 130 L 201 114 L 200 113 L 200 95 L 199 94 L 199 92 L 198 92 L 196 89 L 172 65 L 171 65 L 155 48 L 153 47 L 73 47 Z M 199 169 L 199 174 L 198 175 L 61 175 L 60 174 L 60 170 L 62 168 L 174 168 L 175 167 L 197 167 Z M 155 155 L 157 153 L 159 153 L 160 154 L 165 153 L 166 154 L 166 156 L 163 158 L 156 157 Z M 85 154 L 91 149 L 93 151 L 95 151 L 96 152 L 104 152 L 108 149 L 113 154 L 113 155 L 112 156 L 109 155 L 108 157 L 103 161 L 96 161 L 92 159 L 90 155 L 86 156 Z M 165 147 L 167 145 L 169 145 L 172 147 L 175 147 L 177 150 L 174 152 L 171 152 Z M 99 144 L 100 144 L 104 148 L 104 149 L 101 151 L 99 151 L 96 149 L 96 147 Z M 127 141 L 131 139 L 135 142 L 135 144 L 133 146 L 130 146 L 127 144 Z M 65 142 L 69 139 L 72 140 L 74 142 L 73 144 L 70 146 L 67 146 L 65 144 Z M 167 135 L 169 133 L 171 133 L 172 134 L 176 133 L 177 134 L 177 135 L 172 139 Z M 112 136 L 112 132 L 114 129 L 117 127 L 118 127 L 121 131 L 125 131 L 126 129 L 129 128 L 135 132 L 134 136 L 131 138 L 124 138 L 121 136 L 119 138 L 116 139 Z M 120 127 L 123 125 L 126 127 L 126 129 L 125 130 L 122 130 Z M 90 133 L 90 135 L 87 138 L 83 138 L 81 136 L 79 136 L 77 138 L 71 138 L 67 135 L 67 131 L 70 129 L 72 129 L 74 127 L 77 131 L 80 131 L 80 130 L 78 130 L 76 128 L 79 125 L 81 125 L 83 128 L 86 127 L 89 130 L 89 132 Z M 185 123 L 191 130 L 195 129 L 201 138 L 221 157 L 223 161 L 223 164 L 220 167 L 217 167 L 212 163 L 207 154 L 198 142 L 193 139 L 188 134 L 188 130 L 184 125 Z M 129 123 L 130 122 L 134 122 L 136 123 L 138 126 L 134 129 L 129 125 Z M 151 123 L 153 121 L 157 121 L 160 125 L 158 127 L 154 127 Z M 74 123 L 74 125 L 71 128 L 66 128 L 65 127 L 65 125 L 68 122 L 71 122 L 72 121 Z M 49 120 L 52 123 L 50 126 L 46 127 L 43 124 L 46 121 Z M 179 115 L 185 122 L 184 124 L 178 117 Z M 5 115 L 6 115 L 14 123 L 15 123 L 59 167 L 58 172 L 57 173 L 56 173 L 5 122 L 4 120 L 4 116 Z M 190 115 L 192 114 L 197 116 L 194 118 L 192 118 Z M 174 112 L 176 111 L 178 114 L 176 115 Z M 140 110 L 148 110 L 151 113 L 148 116 L 150 120 L 150 123 L 145 127 L 140 126 L 137 122 L 138 120 L 134 118 L 134 116 L 135 115 L 137 115 L 141 118 L 141 117 L 137 114 L 137 112 Z M 58 109 L 62 109 L 67 111 L 68 112 L 67 115 L 69 115 L 70 116 L 70 118 L 69 119 L 66 119 L 63 117 L 63 119 L 66 121 L 63 126 L 57 126 L 53 123 L 53 120 L 54 118 L 56 117 L 56 115 L 54 112 Z M 140 104 L 133 110 L 131 114 L 131 116 L 127 121 L 125 121 L 122 123 L 114 124 L 109 127 L 105 131 L 103 130 L 104 123 L 107 121 L 112 120 L 112 119 L 107 118 L 105 121 L 101 122 L 99 121 L 97 118 L 95 119 L 92 119 L 91 118 L 91 113 L 92 111 L 96 108 L 103 109 L 104 110 L 107 108 L 109 108 L 113 111 L 114 113 L 114 117 L 115 117 L 115 111 L 116 110 L 118 111 L 124 111 L 128 108 L 128 106 L 132 103 L 139 103 Z M 66 104 L 67 103 L 75 103 L 78 106 L 78 109 L 81 111 L 87 111 L 88 110 L 90 110 L 91 111 L 90 112 L 89 117 L 91 120 L 95 120 L 99 123 L 99 130 L 98 131 L 93 126 L 89 124 L 82 123 L 79 121 L 77 121 L 73 115 L 73 111 L 72 109 Z M 167 112 L 166 117 L 168 117 L 170 119 L 168 123 L 170 127 L 169 129 L 166 132 L 162 132 L 161 135 L 157 138 L 155 137 L 153 131 L 151 130 L 151 132 L 153 135 L 153 139 L 150 141 L 145 141 L 144 140 L 139 139 L 139 140 L 143 142 L 147 142 L 149 144 L 146 147 L 142 148 L 142 150 L 138 154 L 131 154 L 129 153 L 126 155 L 124 155 L 122 153 L 122 151 L 116 153 L 111 150 L 111 146 L 107 147 L 105 146 L 102 142 L 102 137 L 103 135 L 110 128 L 111 128 L 112 129 L 111 131 L 111 138 L 112 139 L 117 140 L 122 138 L 125 140 L 125 143 L 128 147 L 130 147 L 131 148 L 135 147 L 137 142 L 134 138 L 136 135 L 136 132 L 138 129 L 140 128 L 146 128 L 149 126 L 152 128 L 159 128 L 161 126 L 161 123 L 158 120 L 156 120 L 155 119 L 153 120 L 150 117 L 152 113 L 150 109 L 148 109 L 147 108 L 142 108 L 138 110 L 136 109 L 143 104 L 153 102 L 158 104 L 160 106 L 158 110 L 163 109 Z M 34 118 L 35 117 L 39 117 L 37 114 L 37 112 L 41 109 L 47 109 L 45 106 L 48 103 L 50 103 L 51 102 L 61 103 L 65 105 L 68 108 L 67 109 L 65 108 L 57 108 L 53 111 L 53 115 L 54 117 L 52 119 L 47 119 L 45 120 L 42 123 L 42 126 L 44 128 L 49 128 L 52 126 L 54 126 L 57 128 L 63 128 L 65 130 L 65 135 L 67 138 L 64 141 L 64 146 L 65 147 L 71 147 L 73 146 L 75 143 L 75 141 L 79 138 L 83 140 L 88 139 L 91 136 L 91 130 L 90 129 L 91 127 L 97 133 L 99 137 L 99 142 L 93 147 L 88 144 L 89 149 L 86 152 L 84 152 L 83 153 L 77 150 L 77 153 L 75 155 L 73 155 L 70 153 L 68 154 L 62 154 L 58 151 L 58 149 L 56 147 L 54 147 L 51 144 L 53 142 L 57 142 L 61 140 L 61 139 L 56 140 L 55 141 L 51 141 L 48 138 L 48 135 L 51 130 L 48 132 L 47 135 L 45 137 L 43 137 L 40 134 L 40 132 L 35 131 L 33 129 Z M 161 98 L 165 101 L 162 105 L 158 102 Z M 41 102 L 41 100 L 43 98 L 46 98 L 49 101 L 45 104 L 43 104 Z M 114 95 L 118 93 L 125 93 L 127 95 L 126 98 L 127 98 L 130 102 L 127 105 L 125 105 L 125 106 L 127 107 L 124 110 L 119 110 L 114 108 L 112 106 L 114 103 L 114 99 L 112 97 Z M 82 93 L 90 93 L 95 97 L 92 99 L 93 101 L 92 103 L 94 104 L 94 106 L 93 107 L 86 110 L 83 110 L 79 108 L 80 104 L 77 102 L 77 100 L 79 98 L 81 98 L 81 96 L 80 95 Z M 169 91 L 171 93 L 170 95 L 173 96 L 177 100 L 176 105 L 174 107 L 170 108 L 171 110 L 170 112 L 169 112 L 164 107 L 166 104 L 166 98 L 164 95 Z M 39 91 L 43 95 L 40 99 L 40 105 L 41 107 L 35 111 L 34 110 L 35 107 L 33 107 L 30 105 L 29 100 L 32 96 L 36 95 L 37 94 L 37 92 Z M 141 78 L 147 78 L 151 82 L 150 85 L 148 86 L 151 90 L 149 93 L 141 93 L 138 91 L 138 88 L 136 88 L 135 87 L 135 85 L 136 84 L 139 84 L 140 85 L 140 87 L 141 87 L 141 84 L 139 82 L 139 80 Z M 152 79 L 155 77 L 157 77 L 159 79 L 159 81 L 157 83 L 154 83 L 152 81 Z M 50 78 L 51 77 L 56 77 L 58 80 L 56 82 L 52 82 L 50 80 Z M 131 81 L 131 78 L 134 76 L 138 76 L 139 77 L 139 79 L 135 82 L 132 82 Z M 73 75 L 75 75 L 79 78 L 79 80 L 77 82 L 71 79 L 71 77 Z M 107 75 L 109 74 L 115 79 L 125 81 L 129 83 L 132 87 L 133 92 L 139 98 L 139 99 L 138 100 L 131 99 L 128 96 L 128 94 L 126 92 L 124 92 L 123 91 L 121 92 L 117 92 L 116 91 L 116 89 L 117 88 L 116 84 L 115 83 L 111 83 L 107 80 Z M 116 88 L 115 90 L 109 95 L 112 99 L 112 103 L 107 107 L 102 107 L 100 108 L 98 106 L 96 106 L 95 105 L 95 99 L 96 97 L 100 95 L 107 95 L 107 93 L 105 93 L 104 94 L 101 92 L 99 95 L 94 91 L 93 86 L 92 86 L 92 91 L 91 92 L 88 92 L 87 91 L 81 92 L 79 96 L 76 99 L 68 99 L 67 98 L 76 90 L 77 86 L 81 82 L 94 79 L 98 77 L 101 74 L 103 75 L 103 79 L 100 82 L 95 83 L 95 84 L 100 85 L 102 82 L 107 82 L 109 85 L 114 84 Z M 74 71 L 79 67 L 84 67 L 86 69 L 90 67 L 93 67 L 95 69 L 95 73 L 92 76 L 90 77 L 88 76 L 86 78 L 83 78 L 82 77 L 83 74 L 80 76 L 75 74 L 74 73 Z M 130 63 L 133 61 L 135 61 L 137 63 L 137 65 L 136 66 L 131 66 L 130 65 Z M 75 62 L 76 61 L 80 61 L 82 64 L 80 66 L 77 66 L 75 64 Z M 105 57 L 107 57 L 110 59 L 108 63 L 106 63 L 103 60 Z M 108 63 L 111 61 L 117 62 L 116 59 L 119 56 L 123 56 L 127 58 L 126 56 L 128 54 L 130 55 L 140 55 L 143 57 L 144 60 L 146 60 L 149 62 L 148 65 L 153 67 L 154 70 L 152 74 L 153 74 L 154 71 L 157 68 L 159 69 L 162 73 L 165 73 L 169 77 L 169 79 L 168 80 L 169 85 L 168 86 L 165 86 L 167 89 L 167 91 L 163 94 L 158 93 L 160 97 L 156 100 L 148 100 L 147 99 L 144 99 L 139 95 L 140 94 L 143 94 L 144 95 L 146 94 L 150 94 L 152 91 L 151 85 L 152 84 L 157 84 L 159 83 L 161 80 L 160 77 L 158 76 L 154 76 L 151 78 L 149 78 L 145 76 L 141 76 L 138 74 L 138 70 L 137 69 L 139 62 L 136 60 L 133 60 L 129 63 L 129 65 L 127 67 L 119 66 L 119 67 L 121 67 L 124 69 L 131 67 L 132 68 L 134 68 L 137 71 L 137 73 L 131 77 L 127 74 L 128 77 L 125 79 L 123 76 L 121 76 L 120 77 L 117 75 L 116 73 L 116 69 L 115 69 L 114 71 L 115 75 L 114 76 L 112 75 L 109 72 L 107 68 Z M 104 63 L 104 69 L 102 72 L 97 76 L 95 75 L 96 73 L 96 68 L 94 66 L 85 67 L 83 65 L 83 62 L 81 60 L 76 60 L 74 61 L 73 65 L 75 68 L 73 70 L 73 72 L 71 75 L 69 76 L 63 76 L 62 77 L 58 77 L 55 75 L 51 76 L 51 77 L 49 78 L 49 81 L 51 83 L 56 83 L 58 85 L 58 87 L 60 87 L 60 85 L 58 83 L 59 80 L 61 78 L 63 78 L 64 77 L 68 77 L 71 81 L 70 83 L 72 83 L 74 85 L 72 88 L 69 87 L 68 85 L 67 85 L 67 86 L 68 86 L 71 90 L 65 93 L 60 93 L 57 89 L 56 89 L 56 92 L 59 94 L 66 94 L 67 93 L 69 93 L 70 94 L 64 98 L 58 99 L 57 100 L 52 100 L 47 96 L 49 93 L 44 93 L 41 90 L 42 86 L 41 86 L 39 83 L 41 81 L 41 76 L 44 73 L 49 72 L 52 68 L 55 68 L 57 73 L 59 74 L 57 70 L 57 68 L 60 65 L 67 65 L 68 66 L 70 66 L 70 65 L 64 64 L 63 62 L 65 60 L 69 59 L 72 55 L 74 55 L 75 54 L 78 54 L 79 55 L 85 54 L 87 57 L 89 56 L 94 56 L 97 59 L 96 62 L 99 60 L 100 61 L 102 61 Z M 95 54 L 96 53 L 99 53 L 102 50 L 108 49 L 113 51 L 115 54 L 117 54 L 118 55 L 115 58 L 113 58 L 109 56 L 104 56 L 99 58 L 96 56 Z" fill="currentColor" fill-rule="evenodd" clip-rule="evenodd"/>
</svg>