<svg xmlns="http://www.w3.org/2000/svg" viewBox="0 0 213 192" fill="none">
  <path d="M 145 167 L 140 169 L 138 171 L 138 173 L 140 173 L 143 176 L 143 178 L 144 179 L 142 186 L 140 189 L 140 191 L 151 191 L 159 184 L 159 182 L 160 181 L 160 174 L 156 169 L 152 167 Z M 48 173 L 46 178 L 46 181 L 48 186 L 54 191 L 75 191 L 71 189 L 68 186 L 68 183 L 72 178 L 81 176 L 81 174 L 78 171 L 70 167 L 57 167 L 51 170 Z M 177 163 L 172 166 L 171 168 L 178 174 L 178 180 L 176 183 L 176 185 L 177 186 L 183 186 L 188 184 L 192 180 L 194 175 L 194 172 L 192 167 L 187 163 Z M 207 142 L 205 138 L 202 135 L 197 133 L 190 133 L 189 134 L 184 135 L 181 137 L 173 146 L 170 145 L 167 142 L 163 140 L 161 140 L 160 139 L 152 139 L 133 146 L 119 145 L 117 146 L 117 148 L 118 148 L 127 157 L 135 161 L 143 162 L 144 163 L 157 163 L 158 162 L 166 162 L 167 161 L 174 160 L 178 158 L 180 156 L 180 154 L 174 148 L 174 147 L 179 145 L 187 145 L 188 146 L 190 146 L 195 151 L 195 154 L 196 155 L 195 157 L 195 163 L 196 163 L 199 161 L 205 154 L 207 149 Z M 9 142 L 9 149 L 12 156 L 20 163 L 21 163 L 21 157 L 20 156 L 21 151 L 26 146 L 28 146 L 29 145 L 37 145 L 42 147 L 42 148 L 36 154 L 36 156 L 38 158 L 46 161 L 58 162 L 59 163 L 72 163 L 73 162 L 77 162 L 81 160 L 84 160 L 86 158 L 92 155 L 92 154 L 99 148 L 99 146 L 97 145 L 82 146 L 71 141 L 65 140 L 64 139 L 56 139 L 51 141 L 46 145 L 43 146 L 35 137 L 26 133 L 19 133 L 14 135 L 11 138 Z M 212 104 L 206 103 L 205 102 L 195 102 L 194 103 L 191 103 L 184 107 L 169 123 L 162 127 L 162 128 L 173 128 L 174 129 L 179 129 L 180 130 L 182 130 L 183 129 L 186 129 L 187 128 L 192 127 L 201 121 L 212 110 Z M 2 106 L 2 108 L 15 121 L 27 128 L 29 128 L 30 129 L 54 128 L 54 127 L 48 124 L 32 107 L 27 104 L 25 104 L 21 102 L 11 102 L 10 103 L 4 104 Z M 40 59 L 37 64 L 37 70 L 39 74 L 45 80 L 49 80 L 50 81 L 59 81 L 60 80 L 60 78 L 55 71 L 55 65 L 58 62 L 62 61 L 62 58 L 56 55 L 51 55 Z M 176 59 L 166 55 L 160 55 L 155 57 L 154 56 L 154 53 L 155 52 L 155 44 L 152 37 L 144 30 L 142 30 L 141 29 L 130 29 L 125 31 L 118 37 L 114 47 L 111 49 L 110 54 L 108 56 L 106 54 L 105 49 L 103 49 L 98 55 L 89 61 L 77 72 L 72 82 L 72 94 L 74 98 L 73 100 L 71 97 L 59 86 L 51 83 L 47 83 L 46 82 L 42 82 L 41 81 L 39 81 L 37 83 L 37 91 L 38 92 L 38 96 L 40 99 L 43 109 L 51 121 L 56 126 L 67 132 L 69 132 L 82 137 L 86 137 L 87 138 L 96 138 L 102 142 L 106 142 L 107 143 L 114 142 L 120 138 L 129 138 L 130 137 L 134 137 L 135 136 L 152 131 L 161 125 L 165 121 L 173 109 L 173 107 L 175 104 L 175 102 L 177 99 L 177 97 L 179 93 L 179 83 L 177 81 L 175 81 L 174 82 L 169 82 L 168 83 L 165 83 L 164 84 L 159 85 L 154 88 L 143 100 L 142 98 L 144 94 L 144 90 L 145 88 L 144 87 L 144 82 L 141 75 L 133 66 L 122 58 L 116 52 L 116 51 L 124 44 L 137 44 L 143 47 L 148 52 L 150 57 L 150 61 L 152 61 L 153 60 L 158 62 L 162 68 L 160 73 L 156 78 L 156 80 L 157 81 L 167 81 L 168 80 L 171 80 L 175 77 L 179 71 L 179 63 Z M 108 83 L 110 85 L 111 89 L 114 94 L 131 111 L 133 115 L 134 121 L 135 122 L 133 126 L 126 133 L 125 132 L 125 128 L 126 127 L 126 119 L 125 118 L 125 116 L 122 110 L 113 99 L 109 92 L 107 92 L 103 99 L 96 107 L 90 118 L 90 128 L 91 129 L 91 131 L 90 132 L 88 131 L 83 126 L 82 120 L 83 119 L 83 115 L 85 111 L 95 101 L 96 101 L 98 98 L 99 98 L 104 91 L 106 87 L 106 85 Z M 75 25 L 70 27 L 67 30 L 65 34 L 65 42 L 69 50 L 75 56 L 79 58 L 82 58 L 82 56 L 81 55 L 81 48 L 84 44 L 88 42 L 95 42 L 97 44 L 100 45 L 100 42 L 97 36 L 90 29 L 84 26 Z M 103 2 L 98 4 L 95 7 L 93 11 L 93 20 L 98 31 L 106 38 L 110 40 L 112 40 L 108 34 L 106 24 L 109 20 L 113 20 L 115 22 L 115 26 L 117 26 L 120 20 L 120 13 L 116 5 L 111 2 Z" fill="currentColor" fill-rule="evenodd" clip-rule="evenodd"/>
</svg>