<svg xmlns="http://www.w3.org/2000/svg" viewBox="0 0 53 146" fill="none">
  <path d="M 27 66 L 23 66 L 22 67 L 10 67 L 10 68 L 12 68 L 14 71 L 15 71 L 14 69 L 15 68 L 19 70 L 20 68 L 27 68 Z M 3 2 L 2 3 L 0 3 L 0 5 L 2 4 L 7 4 L 8 5 L 10 5 L 11 6 L 11 8 L 15 10 L 17 10 L 18 9 L 18 8 L 16 7 L 16 6 L 18 5 L 21 8 L 21 10 L 19 11 L 20 13 L 25 13 L 26 11 L 26 6 L 28 4 L 34 5 L 35 6 L 35 12 L 34 13 L 35 15 L 36 15 L 36 13 L 37 12 L 37 6 L 39 4 L 46 4 L 48 6 L 47 13 L 46 14 L 45 35 L 44 36 L 44 45 L 43 46 L 4 46 L 3 45 L 3 21 L 2 20 L 2 12 L 1 10 L 0 10 L 0 71 L 1 71 L 10 80 L 11 80 L 14 83 L 16 87 L 16 105 L 15 106 L 15 112 L 14 113 L 14 118 L 13 119 L 13 126 L 12 127 L 12 134 L 11 135 L 11 145 L 14 145 L 15 129 L 16 128 L 16 121 L 17 120 L 17 112 L 18 111 L 18 106 L 19 105 L 19 87 L 18 86 L 18 84 L 15 80 L 16 79 L 29 79 L 30 78 L 34 80 L 31 87 L 31 90 L 30 91 L 29 98 L 28 99 L 29 120 L 30 121 L 30 126 L 31 127 L 31 133 L 32 134 L 33 143 L 32 144 L 28 141 L 26 138 L 25 138 L 23 141 L 20 142 L 20 143 L 17 145 L 23 145 L 24 144 L 27 144 L 28 145 L 37 145 L 36 144 L 35 132 L 34 131 L 34 124 L 33 123 L 33 118 L 32 117 L 32 107 L 31 106 L 31 101 L 32 100 L 32 95 L 33 94 L 33 91 L 34 90 L 34 87 L 36 82 L 46 72 L 47 70 L 47 58 L 46 57 L 46 29 L 47 28 L 47 22 L 48 21 L 48 15 L 49 14 L 49 9 L 50 8 L 50 6 L 49 4 L 46 2 L 43 2 L 42 3 L 7 3 L 6 2 Z M 2 63 L 3 62 L 7 62 L 8 61 L 43 61 L 45 63 L 45 65 L 44 66 L 31 66 L 30 67 L 30 68 L 32 68 L 33 69 L 37 68 L 40 72 L 38 74 L 33 73 L 32 75 L 23 75 L 22 73 L 23 72 L 26 73 L 27 71 L 22 70 L 21 71 L 21 73 L 19 75 L 16 75 L 15 74 L 11 75 L 10 74 L 8 74 L 3 69 Z M 2 55 L 4 53 L 16 53 L 16 52 L 4 52 L 3 51 L 3 49 L 5 47 L 43 47 L 45 49 L 43 52 L 18 52 L 18 53 L 23 55 L 27 55 L 28 54 L 43 54 L 45 56 L 45 58 L 44 59 L 5 59 L 4 60 L 2 58 Z" fill="currentColor" fill-rule="evenodd" clip-rule="evenodd"/>
</svg>