<svg xmlns="http://www.w3.org/2000/svg" viewBox="0 0 144 123" fill="none">
  <path d="M 90 85 L 93 89 L 96 90 L 96 89 L 92 85 Z M 80 62 L 82 65 L 83 65 L 94 75 L 105 83 L 105 82 L 91 69 L 83 63 Z M 90 59 L 90 60 L 95 65 L 102 70 L 108 76 L 111 78 L 113 78 L 113 77 L 102 67 L 97 64 L 93 60 Z M 58 59 L 60 62 L 80 77 L 80 76 L 75 71 L 74 71 L 60 59 Z M 2 27 L 2 36 L 3 38 L 15 47 L 28 59 L 35 64 L 41 70 L 42 70 L 101 120 L 105 120 L 140 94 L 140 92 L 141 91 L 141 84 L 140 83 L 140 79 L 137 76 L 133 74 L 125 67 L 121 65 L 117 61 L 113 59 L 109 55 L 101 50 L 97 46 L 69 25 L 54 15 L 49 5 L 46 2 L 32 2 L 26 5 L 24 5 L 18 10 L 15 15 L 14 20 Z M 98 104 L 100 103 L 102 106 L 101 107 Z M 94 101 L 96 100 L 99 103 L 97 104 Z M 137 83 L 139 85 L 138 92 L 125 102 L 121 101 L 122 104 L 106 116 L 104 114 L 104 107 L 112 100 Z M 4 31 L 6 30 L 32 51 L 37 54 L 42 59 L 51 65 L 56 70 L 65 76 L 87 94 L 91 96 L 95 100 L 94 101 L 92 101 L 92 103 L 94 105 L 93 106 L 88 106 L 74 94 L 68 90 L 61 83 L 50 75 L 42 67 L 32 60 L 26 54 L 21 51 L 8 39 L 7 39 L 4 36 Z M 6 27 L 12 23 L 15 23 L 19 31 L 20 35 L 23 38 L 27 38 L 29 37 L 48 53 L 50 53 L 74 40 L 74 39 L 69 34 L 64 31 L 56 24 L 56 20 L 58 19 L 66 26 L 87 41 L 91 45 L 99 50 L 111 60 L 115 62 L 128 73 L 136 78 L 137 80 L 121 92 L 117 94 L 114 97 L 105 103 L 103 103 L 75 82 L 71 78 L 66 75 L 57 67 L 48 61 L 44 57 L 40 55 L 28 45 L 15 36 L 10 31 L 9 31 Z M 25 7 L 33 4 L 44 4 L 48 7 L 50 14 L 54 20 L 54 25 L 55 26 L 59 40 L 61 43 L 59 46 L 49 51 L 30 36 L 26 36 L 25 37 L 22 34 L 20 30 L 20 28 L 16 21 L 16 18 L 19 12 Z" fill="currentColor" fill-rule="evenodd" clip-rule="evenodd"/>
</svg>