<svg xmlns="http://www.w3.org/2000/svg" viewBox="0 0 70 102" fill="none">
  <path d="M 59 2 L 56 2 L 54 4 L 48 7 L 41 8 L 40 9 L 28 9 L 27 7 L 23 4 L 21 4 L 17 7 L 12 4 L 9 4 L 8 5 L 8 7 L 6 11 L 6 14 L 5 15 L 5 18 L 3 22 L 3 25 L 2 27 L 0 28 L 0 53 L 2 53 L 3 54 L 2 57 L 0 58 L 0 70 L 2 70 L 3 71 L 3 73 L 5 75 L 4 76 L 3 82 L 2 83 L 0 83 L 0 99 L 1 99 L 2 97 L 2 94 L 5 86 L 5 82 L 7 78 L 9 67 L 12 60 L 12 57 L 14 55 L 18 56 L 28 61 L 43 72 L 49 69 L 58 59 L 63 49 L 63 47 L 65 43 L 65 40 L 66 39 L 66 35 L 67 34 L 67 20 L 66 19 L 66 15 L 63 7 Z M 3 68 L 5 67 L 6 68 L 6 70 L 4 71 L 3 70 Z M 3 62 L 4 61 L 6 61 L 8 63 L 6 65 L 4 64 Z M 5 59 L 7 57 L 9 58 L 8 60 L 6 60 Z M 7 50 L 9 49 L 11 52 L 10 53 L 8 53 L 7 52 Z M 1 43 L 2 42 L 6 42 L 8 44 L 15 47 L 24 53 L 29 58 L 27 59 L 25 57 L 23 57 L 20 55 L 16 54 L 14 52 L 13 49 L 9 47 L 5 48 L 3 51 L 2 50 Z M 11 7 L 14 7 L 21 10 L 31 10 L 32 11 L 41 10 L 42 12 L 50 19 L 50 23 L 48 25 L 44 26 L 42 29 L 42 34 L 46 41 L 46 43 L 42 47 L 34 47 L 31 50 L 30 53 L 28 54 L 22 49 L 19 48 L 12 43 L 4 40 L 2 38 L 2 35 L 3 34 L 3 31 L 7 20 L 7 17 L 9 13 L 9 10 Z M 58 5 L 62 11 L 63 17 L 64 18 L 64 37 L 63 38 L 63 41 L 62 42 L 61 47 L 57 53 L 54 60 L 45 69 L 44 69 L 41 65 L 40 65 L 38 62 L 34 59 L 33 57 L 33 51 L 37 48 L 44 48 L 48 44 L 48 39 L 45 35 L 45 29 L 47 27 L 52 25 L 53 23 L 53 19 L 50 15 L 47 14 L 45 12 L 45 10 L 53 6 Z" fill="currentColor" fill-rule="evenodd" clip-rule="evenodd"/>
</svg>