<svg xmlns="http://www.w3.org/2000/svg" viewBox="0 0 55 156" fill="none">
  <path d="M 24 70 L 24 72 L 26 71 L 29 72 L 28 70 Z M 3 2 L 2 3 L 2 16 L 3 17 L 3 32 L 4 33 L 4 35 L 3 36 L 2 67 L 3 68 L 3 70 L 17 83 L 19 87 L 19 102 L 18 103 L 18 109 L 17 110 L 16 123 L 15 124 L 14 142 L 13 143 L 13 152 L 14 153 L 14 155 L 18 155 L 16 153 L 16 141 L 17 140 L 17 131 L 18 130 L 19 116 L 20 115 L 20 108 L 21 107 L 21 100 L 22 99 L 21 85 L 17 79 L 18 78 L 35 78 L 36 79 L 36 81 L 34 85 L 34 88 L 33 89 L 32 96 L 31 97 L 31 112 L 32 113 L 33 129 L 34 130 L 34 135 L 35 136 L 36 144 L 35 145 L 32 141 L 27 139 L 20 144 L 20 146 L 21 147 L 21 151 L 23 154 L 25 155 L 38 155 L 40 153 L 40 146 L 38 142 L 38 136 L 37 135 L 36 123 L 35 122 L 35 117 L 34 116 L 34 95 L 36 91 L 36 88 L 37 87 L 38 82 L 49 71 L 49 69 L 50 68 L 48 38 L 49 37 L 49 25 L 50 24 L 50 18 L 51 17 L 51 12 L 52 11 L 52 4 L 49 2 L 39 2 L 38 3 L 35 3 L 34 2 L 32 2 L 31 3 L 25 3 L 24 2 L 12 2 L 11 3 L 10 2 Z M 36 149 L 37 150 L 37 152 L 33 155 L 32 154 Z M 28 143 L 30 144 L 32 147 L 32 149 L 30 152 L 26 152 L 24 150 L 24 146 Z M 6 68 L 8 67 L 9 69 L 10 69 L 11 67 L 13 67 L 14 68 L 19 67 L 20 69 L 21 69 L 22 67 L 32 67 L 36 69 L 40 68 L 41 70 L 42 70 L 43 68 L 45 71 L 43 73 L 41 73 L 40 74 L 39 72 L 36 72 L 34 75 L 25 75 L 24 74 L 22 75 L 19 75 L 18 74 L 14 75 L 9 73 L 7 71 Z M 4 65 L 4 63 L 6 61 L 46 61 L 48 63 L 46 66 L 5 66 Z M 5 49 L 7 47 L 46 47 L 47 48 L 47 50 L 46 51 L 22 51 L 21 53 L 23 54 L 46 54 L 48 57 L 46 59 L 6 59 L 5 58 L 5 53 L 6 52 Z M 50 5 L 50 8 L 48 9 L 49 11 L 49 14 L 48 15 L 46 13 L 46 11 L 45 11 L 46 15 L 48 16 L 48 26 L 47 27 L 47 44 L 45 46 L 7 46 L 6 45 L 5 17 L 4 16 L 4 9 L 3 8 L 3 6 L 5 4 L 10 4 L 13 6 L 14 8 L 13 10 L 14 14 L 15 14 L 14 10 L 16 8 L 18 10 L 21 9 L 21 8 L 18 6 L 20 4 L 23 6 L 22 13 L 28 13 L 28 9 L 30 4 L 34 4 L 38 7 L 37 8 L 38 11 L 36 14 L 39 14 L 39 9 L 41 4 L 46 4 L 47 3 Z" fill="currentColor" fill-rule="evenodd" clip-rule="evenodd"/>
</svg>