<svg xmlns="http://www.w3.org/2000/svg" viewBox="0 0 186 158" fill="none">
  <path d="M 80 86 L 76 86 L 74 88 L 74 91 L 78 91 L 80 89 Z M 35 86 L 35 90 L 36 91 L 40 91 L 41 90 L 41 87 L 39 86 Z M 56 73 L 56 75 L 57 76 L 61 75 L 61 72 L 57 72 Z M 148 57 L 148 60 L 160 84 L 160 86 L 162 90 L 162 94 L 163 95 L 162 105 L 161 106 L 161 110 L 160 111 L 160 115 L 159 116 L 159 120 L 158 121 L 159 126 L 155 130 L 147 132 L 147 133 L 153 133 L 159 130 L 160 128 L 160 121 L 162 117 L 162 114 L 163 113 L 163 110 L 165 105 L 165 90 L 164 89 L 162 81 L 158 74 L 158 72 L 156 70 L 150 58 Z M 76 57 L 75 58 L 75 60 L 78 62 L 80 62 L 81 61 L 81 58 L 80 57 Z M 108 24 L 113 33 L 115 34 L 114 30 L 112 27 Z M 0 2 L 0 6 L 6 6 L 7 7 L 12 8 L 19 12 L 26 19 L 22 21 L 13 21 L 12 22 L 4 23 L 3 22 L 3 18 L 4 17 L 7 17 L 8 15 L 7 14 L 0 14 L 0 23 L 2 24 L 0 25 L 0 29 L 8 25 L 11 25 L 12 24 L 16 24 L 17 25 L 19 24 L 26 24 L 40 18 L 50 18 L 51 17 L 55 17 L 60 15 L 62 17 L 79 17 L 80 16 L 86 16 L 87 15 L 97 15 L 102 19 L 103 21 L 103 28 L 104 28 L 105 27 L 104 17 L 101 14 L 97 12 L 83 12 L 75 15 L 69 15 L 68 14 L 75 10 L 84 9 L 85 8 L 89 8 L 90 9 L 99 9 L 100 10 L 108 8 L 109 9 L 113 9 L 114 10 L 119 11 L 124 16 L 126 16 L 133 23 L 135 27 L 135 29 L 137 32 L 137 37 L 138 38 L 138 40 L 142 48 L 149 52 L 157 60 L 158 63 L 160 65 L 161 70 L 162 71 L 162 75 L 169 88 L 172 99 L 174 101 L 174 103 L 178 111 L 178 120 L 176 121 L 173 119 L 173 117 L 172 116 L 172 108 L 171 108 L 170 110 L 171 120 L 174 123 L 174 127 L 175 128 L 172 132 L 167 132 L 162 134 L 158 134 L 156 136 L 154 136 L 153 137 L 149 137 L 145 139 L 139 139 L 133 142 L 121 141 L 120 140 L 116 140 L 115 141 L 105 141 L 104 140 L 94 140 L 93 139 L 88 139 L 87 138 L 73 138 L 68 135 L 64 134 L 63 132 L 65 130 L 68 130 L 73 126 L 79 129 L 81 129 L 82 128 L 93 128 L 95 127 L 100 121 L 103 120 L 105 118 L 106 115 L 108 113 L 112 111 L 114 111 L 119 106 L 121 106 L 125 103 L 126 101 L 126 94 L 127 92 L 124 87 L 133 77 L 133 71 L 132 69 L 124 62 L 124 60 L 126 57 L 130 60 L 134 66 L 137 72 L 137 74 L 142 81 L 142 83 L 141 84 L 141 91 L 142 92 L 142 94 L 148 100 L 153 101 L 153 99 L 150 98 L 145 94 L 143 90 L 143 87 L 145 85 L 146 85 L 149 88 L 149 90 L 154 94 L 159 95 L 160 93 L 155 92 L 150 87 L 150 86 L 145 82 L 144 80 L 144 71 L 142 67 L 137 62 L 137 61 L 134 61 L 125 50 L 125 48 L 122 42 L 122 37 L 121 36 L 121 33 L 120 32 L 119 27 L 114 20 L 112 20 L 112 22 L 115 25 L 118 31 L 119 37 L 121 41 L 121 43 L 120 44 L 118 44 L 115 40 L 110 39 L 104 32 L 101 31 L 99 28 L 94 26 L 90 26 L 89 27 L 87 26 L 77 27 L 75 25 L 72 25 L 67 21 L 59 21 L 52 25 L 49 25 L 47 27 L 44 27 L 41 25 L 39 25 L 38 26 L 27 26 L 25 27 L 22 31 L 18 32 L 17 34 L 11 39 L 4 40 L 2 43 L 0 43 L 0 45 L 5 45 L 7 47 L 4 50 L 4 54 L 7 56 L 11 56 L 13 58 L 11 62 L 11 64 L 15 67 L 19 67 L 20 66 L 23 66 L 24 67 L 22 69 L 17 71 L 7 72 L 2 68 L 5 66 L 5 65 L 0 65 L 0 71 L 2 71 L 4 73 L 2 75 L 0 75 L 0 82 L 3 82 L 1 78 L 5 75 L 14 75 L 17 77 L 19 77 L 22 80 L 21 81 L 19 80 L 13 80 L 9 82 L 8 84 L 9 89 L 7 91 L 0 92 L 0 93 L 5 93 L 7 96 L 4 99 L 0 99 L 0 101 L 5 100 L 7 98 L 9 98 L 11 100 L 18 100 L 21 103 L 20 106 L 22 110 L 19 114 L 19 118 L 22 120 L 26 120 L 30 116 L 31 113 L 33 111 L 43 112 L 46 109 L 46 107 L 47 106 L 46 101 L 47 100 L 52 105 L 54 109 L 54 114 L 48 119 L 45 117 L 43 117 L 44 121 L 39 125 L 35 124 L 32 122 L 32 126 L 31 127 L 28 127 L 26 125 L 24 125 L 23 126 L 17 126 L 14 124 L 13 120 L 9 119 L 7 117 L 9 114 L 14 114 L 17 112 L 17 111 L 15 111 L 11 113 L 6 113 L 3 110 L 3 108 L 5 105 L 5 104 L 4 104 L 2 107 L 0 108 L 0 112 L 1 112 L 5 116 L 5 118 L 7 120 L 11 122 L 12 125 L 16 128 L 23 128 L 24 127 L 27 129 L 29 129 L 36 126 L 40 130 L 44 130 L 46 134 L 45 135 L 38 135 L 37 136 L 27 137 L 22 139 L 17 139 L 7 143 L 0 142 L 0 155 L 6 155 L 7 154 L 19 153 L 20 152 L 23 152 L 29 149 L 31 149 L 35 147 L 39 147 L 40 146 L 55 146 L 56 147 L 88 148 L 89 149 L 96 150 L 102 154 L 104 154 L 107 151 L 109 151 L 110 152 L 119 152 L 120 153 L 133 153 L 134 152 L 154 150 L 157 148 L 164 146 L 168 144 L 178 134 L 180 130 L 180 128 L 182 125 L 182 117 L 183 116 L 182 109 L 179 103 L 179 101 L 176 97 L 173 91 L 173 89 L 170 83 L 168 81 L 168 79 L 165 75 L 163 64 L 158 55 L 151 49 L 144 45 L 140 37 L 140 33 L 136 22 L 134 19 L 123 9 L 117 6 L 111 5 L 110 4 L 105 4 L 104 5 L 100 5 L 99 6 L 98 5 L 84 4 L 83 5 L 75 6 L 70 9 L 63 10 L 60 12 L 54 13 L 53 14 L 46 14 L 45 15 L 26 15 L 14 6 L 7 3 Z M 92 145 L 93 144 L 101 144 L 103 146 L 102 147 L 98 147 L 97 146 L 93 146 Z M 13 144 L 15 146 L 13 149 L 11 147 Z M 112 145 L 115 143 L 122 143 L 125 145 L 124 146 L 120 146 L 119 145 L 113 146 Z M 20 143 L 21 142 L 24 142 L 25 144 L 22 146 Z M 53 141 L 54 140 L 58 140 L 59 141 L 58 142 L 54 142 Z M 40 127 L 46 122 L 52 125 L 54 124 L 60 124 L 64 122 L 65 124 L 68 126 L 67 128 L 64 127 L 60 132 L 58 132 L 57 133 L 51 133 L 49 132 L 45 127 L 43 128 L 41 128 Z M 55 116 L 56 116 L 59 120 L 57 123 L 53 123 L 51 121 L 51 120 Z M 82 114 L 84 112 L 87 112 L 90 114 L 90 117 L 89 118 L 85 118 Z M 20 116 L 23 112 L 27 112 L 29 114 L 29 115 L 25 118 L 22 118 Z M 67 105 L 71 100 L 73 100 L 78 104 L 81 103 L 84 100 L 90 104 L 90 107 L 87 110 L 85 110 L 84 111 L 81 111 L 77 108 L 73 111 L 70 111 L 68 109 Z M 22 104 L 24 102 L 26 102 L 29 100 L 32 103 L 36 103 L 38 102 L 39 100 L 42 100 L 45 105 L 45 107 L 44 109 L 41 111 L 39 111 L 36 108 L 33 110 L 26 110 L 23 108 Z M 75 100 L 77 98 L 79 98 L 81 101 L 80 102 L 77 102 Z M 32 101 L 32 99 L 33 98 L 36 98 L 38 100 L 36 102 L 33 102 Z M 86 94 L 90 95 L 92 97 L 92 99 L 90 101 L 87 100 L 84 97 Z M 20 98 L 25 94 L 28 94 L 29 95 L 29 97 L 26 100 L 22 100 Z M 106 96 L 109 93 L 111 93 L 114 96 L 114 98 L 113 99 L 109 99 Z M 89 89 L 90 88 L 93 88 L 95 90 L 93 92 L 91 92 Z M 23 87 L 25 90 L 22 92 L 20 89 Z M 97 82 L 102 82 L 105 84 L 105 86 L 102 88 L 105 92 L 105 95 L 100 99 L 96 99 L 93 95 L 96 91 L 96 89 L 93 87 L 92 85 L 94 83 L 96 83 Z M 12 82 L 19 82 L 23 85 L 20 87 L 18 90 L 21 95 L 16 99 L 12 98 L 9 95 L 9 92 L 12 89 L 10 86 L 10 84 Z M 46 86 L 47 84 L 52 80 L 55 82 L 55 85 L 57 86 L 60 85 L 61 82 L 64 80 L 68 84 L 69 89 L 66 92 L 62 90 L 59 94 L 56 94 L 54 93 L 53 91 L 50 91 L 49 92 L 46 89 Z M 94 77 L 89 81 L 86 86 L 86 88 L 82 93 L 77 95 L 70 96 L 63 100 L 60 103 L 58 102 L 59 101 L 59 97 L 63 93 L 67 93 L 69 92 L 70 90 L 70 84 L 71 83 L 78 84 L 83 81 L 83 79 L 86 76 L 93 76 Z M 125 92 L 123 95 L 124 97 L 124 101 L 121 104 L 118 104 L 114 109 L 111 110 L 108 103 L 106 102 L 106 104 L 108 107 L 108 111 L 106 113 L 99 113 L 96 111 L 94 111 L 95 113 L 99 115 L 102 115 L 103 117 L 101 119 L 97 120 L 96 124 L 93 126 L 90 126 L 89 127 L 87 126 L 79 127 L 77 125 L 78 122 L 73 125 L 71 125 L 66 121 L 67 117 L 62 119 L 60 118 L 57 114 L 57 111 L 60 105 L 64 101 L 67 100 L 68 101 L 66 104 L 66 110 L 68 112 L 78 111 L 80 113 L 80 116 L 84 120 L 88 120 L 92 117 L 92 113 L 90 111 L 90 109 L 92 106 L 92 103 L 96 100 L 102 100 L 103 99 L 106 99 L 109 101 L 114 100 L 116 98 L 116 95 L 113 92 L 108 92 L 105 89 L 107 86 L 107 83 L 106 82 L 101 80 L 99 80 L 98 81 L 94 81 L 93 80 L 97 77 L 99 77 L 100 76 L 103 76 L 104 75 L 109 75 L 110 76 L 112 76 L 115 79 L 113 82 L 119 82 L 122 85 L 122 87 L 119 91 L 123 90 Z M 22 76 L 23 75 L 30 76 L 33 79 L 33 82 L 38 84 L 40 83 L 45 83 L 46 84 L 44 89 L 47 93 L 51 93 L 54 96 L 54 102 L 53 103 L 48 98 L 44 96 L 37 95 L 34 93 L 32 93 L 29 88 L 29 85 L 27 81 L 23 78 Z M 69 73 L 71 72 L 73 74 L 72 75 L 70 75 Z M 113 73 L 117 71 L 120 74 L 116 77 Z M 138 67 L 142 72 L 142 74 L 141 75 L 137 69 Z M 50 72 L 56 67 L 57 68 L 63 68 L 67 71 L 67 75 L 66 77 L 62 80 L 55 80 L 50 76 Z M 70 67 L 72 66 L 76 66 L 77 65 L 82 67 L 80 70 L 83 71 L 85 73 L 85 75 L 82 77 L 80 77 L 81 80 L 79 82 L 73 82 L 68 78 L 69 76 L 72 76 L 72 75 L 74 74 L 72 71 L 69 71 L 68 70 Z M 37 66 L 42 65 L 43 66 L 46 66 L 49 69 L 48 71 L 45 71 L 43 73 L 43 75 L 48 76 L 49 77 L 47 80 L 42 82 L 37 82 L 35 80 L 36 77 L 34 76 L 32 73 L 34 71 L 37 70 L 36 68 Z M 123 64 L 125 65 L 125 68 L 129 69 L 132 73 L 131 77 L 129 79 L 125 80 L 126 82 L 125 84 L 119 80 L 121 77 L 121 70 L 119 68 Z M 90 58 L 93 56 L 95 59 L 94 60 L 91 60 Z M 24 57 L 25 56 L 27 56 L 29 58 L 26 60 Z M 48 59 L 51 56 L 55 58 L 58 54 L 61 54 L 63 55 L 64 57 L 66 57 L 67 56 L 70 58 L 70 62 L 69 64 L 65 67 L 62 65 L 62 63 L 61 62 L 58 62 L 56 65 L 53 67 L 49 63 Z M 107 54 L 107 52 L 109 50 L 112 50 L 114 52 L 112 55 L 108 55 Z M 97 50 L 101 50 L 103 51 L 106 55 L 103 59 L 106 63 L 104 65 L 96 65 L 93 63 L 93 62 L 95 61 L 97 58 L 94 54 Z M 18 50 L 23 50 L 26 53 L 26 54 L 22 57 L 23 60 L 26 62 L 22 65 L 15 65 L 13 63 L 13 61 L 16 59 L 14 56 L 14 53 Z M 8 49 L 11 50 L 13 52 L 9 55 L 6 53 L 6 51 Z M 94 50 L 94 51 L 90 54 L 87 54 L 86 53 L 86 51 L 88 49 L 90 49 L 91 48 Z M 26 50 L 28 48 L 31 48 L 34 52 L 31 54 Z M 80 47 L 82 47 L 83 48 L 81 51 L 78 49 Z M 62 48 L 64 47 L 71 52 L 78 53 L 81 55 L 83 55 L 87 60 L 88 65 L 95 71 L 94 72 L 88 72 L 84 69 L 84 67 L 81 64 L 74 64 L 72 65 L 71 64 L 72 57 L 69 55 L 64 54 L 62 51 Z M 38 48 L 39 47 L 41 47 L 43 49 L 40 51 Z M 58 47 L 58 52 L 54 55 L 50 55 L 47 58 L 47 63 L 46 64 L 43 64 L 41 62 L 44 59 L 44 57 L 39 57 L 37 59 L 38 63 L 31 71 L 29 72 L 23 72 L 22 71 L 30 64 L 31 61 L 36 55 L 41 53 L 48 52 L 54 49 L 57 46 Z M 71 42 L 73 40 L 76 40 L 79 42 L 83 40 L 87 40 L 89 41 L 92 45 L 86 49 L 83 46 L 79 46 L 75 49 L 72 47 Z M 29 44 L 33 40 L 39 40 L 40 41 L 48 40 L 50 42 L 50 45 L 46 49 L 42 46 L 38 46 L 36 48 L 34 48 L 30 46 Z M 9 40 L 11 41 L 11 43 L 12 44 L 11 46 L 9 46 L 7 44 L 7 42 Z M 13 44 L 13 40 L 17 37 L 22 38 L 24 40 L 16 45 L 14 45 Z M 85 36 L 88 34 L 91 34 L 92 35 L 92 37 L 90 39 L 87 39 Z M 30 35 L 33 33 L 35 34 L 37 37 L 36 38 L 32 38 Z M 58 32 L 60 30 L 63 30 L 65 32 L 62 35 Z M 63 36 L 67 33 L 70 35 L 72 35 L 72 33 L 71 32 L 74 29 L 79 29 L 80 30 L 82 30 L 82 28 L 83 27 L 85 27 L 86 28 L 96 28 L 98 30 L 99 33 L 101 33 L 104 35 L 103 37 L 99 37 L 97 38 L 97 39 L 99 39 L 100 38 L 106 38 L 109 42 L 107 47 L 108 47 L 110 42 L 111 41 L 113 41 L 116 45 L 120 46 L 122 48 L 124 57 L 122 59 L 121 58 L 119 58 L 122 63 L 119 66 L 115 66 L 113 65 L 113 67 L 115 69 L 112 72 L 107 73 L 106 72 L 99 71 L 95 68 L 96 67 L 103 67 L 107 64 L 106 58 L 108 56 L 109 57 L 114 56 L 116 53 L 115 49 L 110 48 L 109 49 L 104 50 L 103 49 L 97 49 L 95 48 L 93 45 L 93 42 L 92 41 L 94 38 L 94 34 L 91 32 L 86 33 L 84 35 L 84 37 L 81 40 L 76 38 L 72 39 L 69 43 L 69 46 L 70 47 L 69 48 L 68 48 L 63 42 L 63 40 L 62 39 L 63 38 Z M 18 34 L 19 33 L 24 32 L 24 31 L 29 27 L 34 27 L 35 28 L 37 27 L 41 27 L 42 28 L 42 30 L 47 28 L 49 29 L 52 32 L 51 34 L 53 33 L 57 34 L 59 36 L 60 39 L 58 43 L 51 49 L 50 47 L 52 44 L 52 41 L 49 38 L 46 38 L 42 40 L 38 37 L 38 34 L 35 32 L 31 32 L 28 35 L 28 37 L 30 39 L 30 41 L 28 43 L 28 45 L 25 48 L 20 48 L 19 47 L 26 40 L 26 38 L 22 36 L 19 36 Z M 50 27 L 51 26 L 54 26 L 59 22 L 63 22 L 64 23 L 67 23 L 69 26 L 72 26 L 73 28 L 69 31 L 66 29 L 57 29 L 54 31 L 52 28 Z" fill="currentColor" fill-rule="evenodd" clip-rule="evenodd"/>
</svg>