<svg xmlns="http://www.w3.org/2000/svg" viewBox="0 0 255 166" fill="none">
  <path d="M 181 130 L 181 131 L 185 135 L 186 135 L 186 134 L 182 130 Z M 55 137 L 55 142 L 57 145 L 59 145 L 62 148 L 60 153 L 60 157 L 61 159 L 66 163 L 93 163 L 98 159 L 100 159 L 102 161 L 107 163 L 115 163 L 120 161 L 126 161 L 127 160 L 129 160 L 135 155 L 135 153 L 134 152 L 135 139 L 129 132 L 124 130 L 120 130 L 119 129 L 114 130 L 109 133 L 102 141 L 97 142 L 97 153 L 98 154 L 98 156 L 97 157 L 95 157 L 93 155 L 91 150 L 87 144 L 79 135 L 76 130 L 73 128 L 69 127 L 63 130 L 60 130 L 57 132 Z M 62 154 L 64 155 L 66 159 L 65 161 L 61 156 Z M 100 150 L 103 156 L 102 158 L 99 154 L 99 151 Z M 128 140 L 129 141 L 129 143 L 128 144 L 128 146 L 129 147 L 129 153 L 128 155 L 129 156 L 127 158 L 125 157 L 121 158 L 120 157 L 120 155 L 116 152 L 117 151 L 119 152 L 123 152 L 125 149 L 124 143 Z M 124 133 L 127 135 L 128 137 L 122 142 L 122 145 L 121 146 L 119 146 L 118 147 L 114 143 L 112 143 L 112 145 L 115 148 L 115 150 L 114 151 L 114 153 L 115 154 L 114 155 L 109 153 L 103 149 L 102 145 L 106 139 L 110 135 L 112 137 L 112 139 L 113 140 L 116 140 L 116 139 L 114 139 L 113 138 L 113 134 L 116 132 L 121 132 L 122 133 Z M 57 137 L 58 136 L 61 137 L 61 136 L 68 130 L 73 131 L 77 137 L 84 144 L 84 145 L 83 146 L 81 146 L 76 142 L 73 143 L 72 142 L 72 140 L 69 142 L 67 140 L 67 138 L 66 138 L 66 142 L 70 145 L 81 147 L 85 152 L 87 152 L 88 151 L 90 153 L 91 156 L 90 157 L 81 153 L 81 155 L 84 157 L 83 158 L 76 158 L 75 157 L 71 157 L 67 155 L 64 151 L 64 147 L 57 142 Z M 6 117 L 8 125 L 10 126 L 14 126 L 15 127 L 15 128 L 13 129 L 13 134 L 16 141 L 19 143 L 18 131 L 19 130 L 20 121 L 19 121 L 18 125 L 16 126 L 15 125 L 10 124 L 8 122 L 8 118 Z M 167 113 L 169 116 L 174 116 L 176 115 L 176 114 L 170 115 Z M 5 111 L 2 113 L 0 113 L 0 115 L 2 115 Z M 211 107 L 209 108 L 204 116 L 208 113 L 211 109 Z M 112 113 L 104 110 L 101 110 L 98 107 L 93 108 L 89 110 L 85 114 L 82 120 L 82 124 L 80 127 L 80 130 L 85 136 L 87 136 L 88 137 L 99 135 L 107 129 L 112 123 L 112 121 L 111 120 Z M 97 130 L 96 133 L 93 135 L 87 135 L 84 133 L 85 132 L 92 132 L 92 129 L 93 128 Z M 84 119 L 86 118 L 87 119 L 87 121 L 85 122 L 84 121 Z M 91 117 L 93 113 L 97 110 L 100 112 L 103 112 L 104 113 L 109 114 L 110 115 L 109 117 L 110 122 L 102 125 L 99 128 L 96 128 L 93 126 L 93 124 L 91 122 Z M 13 105 L 17 112 L 21 116 L 20 119 L 23 117 L 28 121 L 27 126 L 29 130 L 28 131 L 28 138 L 27 139 L 27 142 L 26 143 L 25 148 L 27 152 L 32 153 L 35 156 L 33 158 L 31 156 L 28 156 L 27 157 L 25 154 L 23 154 L 23 156 L 22 157 L 18 153 L 14 151 L 8 151 L 7 152 L 3 149 L 0 149 L 0 155 L 13 154 L 24 163 L 30 163 L 31 162 L 38 161 L 44 157 L 48 150 L 48 143 L 46 139 L 37 132 L 34 127 L 34 125 L 31 118 L 29 116 L 27 116 L 21 113 L 17 109 L 16 106 Z M 30 132 L 31 132 L 44 144 L 44 149 L 39 155 L 37 155 L 34 152 L 30 151 L 27 148 L 27 146 L 29 142 L 29 139 L 30 138 L 30 134 L 29 133 Z M 0 103 L 0 105 L 4 105 L 6 109 L 8 109 L 7 106 L 8 105 L 10 105 L 10 104 L 8 104 L 7 103 Z M 42 109 L 50 115 L 51 117 L 51 121 L 52 122 L 63 122 L 64 121 L 67 121 L 68 120 L 76 118 L 80 115 L 85 109 L 87 103 L 83 100 L 63 100 L 59 98 L 50 98 L 47 100 L 43 101 L 42 103 Z M 58 117 L 59 119 L 56 121 L 55 119 Z M 58 116 L 61 112 L 62 112 L 63 114 L 68 113 L 70 115 L 69 116 L 66 116 L 65 118 L 64 117 L 62 117 L 61 118 Z M 67 106 L 67 104 L 68 103 L 74 103 L 75 104 L 70 107 L 68 107 Z M 44 106 L 45 105 L 46 106 L 48 105 L 50 106 L 50 104 L 52 102 L 58 102 L 59 103 L 64 103 L 67 109 L 71 109 L 74 111 L 73 112 L 64 111 L 63 110 L 63 107 L 61 106 L 60 108 L 56 112 L 55 112 L 53 115 L 52 115 L 44 108 Z M 143 103 L 141 108 L 141 114 L 144 122 L 144 127 L 143 128 L 143 130 L 141 132 L 140 138 L 141 139 L 142 151 L 144 155 L 149 159 L 160 163 L 164 163 L 165 162 L 174 162 L 175 161 L 179 161 L 183 159 L 189 159 L 190 158 L 196 158 L 197 159 L 215 159 L 216 160 L 221 160 L 224 162 L 226 162 L 227 161 L 238 161 L 239 162 L 243 162 L 244 161 L 251 161 L 252 160 L 254 160 L 254 152 L 252 155 L 248 155 L 243 157 L 241 156 L 220 156 L 219 155 L 207 155 L 206 154 L 212 149 L 215 149 L 219 147 L 222 144 L 222 142 L 220 140 L 222 137 L 222 135 L 221 135 L 219 138 L 220 143 L 217 146 L 213 147 L 207 151 L 205 151 L 204 152 L 199 152 L 197 151 L 197 153 L 196 154 L 188 153 L 187 154 L 174 155 L 170 157 L 163 157 L 162 156 L 159 156 L 158 155 L 155 155 L 150 153 L 147 149 L 146 144 L 145 143 L 145 131 L 147 127 L 147 120 L 148 119 L 148 117 L 146 116 L 146 113 L 152 110 L 152 108 L 149 108 L 148 106 L 149 104 L 157 97 L 170 98 L 173 100 L 177 101 L 178 103 L 177 104 L 170 104 L 169 105 L 167 105 L 166 104 L 168 101 L 164 101 L 157 107 L 155 111 L 155 113 L 157 114 L 156 115 L 156 117 L 153 119 L 153 121 L 154 122 L 154 132 L 148 138 L 148 139 L 149 139 L 155 133 L 157 135 L 157 137 L 152 142 L 151 146 L 152 146 L 153 143 L 156 140 L 158 142 L 158 146 L 160 148 L 164 149 L 164 148 L 162 148 L 159 145 L 159 138 L 158 137 L 158 135 L 159 134 L 159 129 L 157 127 L 158 119 L 164 111 L 160 114 L 159 113 L 159 111 L 158 111 L 157 109 L 160 106 L 161 107 L 161 109 L 163 109 L 168 106 L 176 106 L 177 105 L 182 105 L 187 103 L 194 103 L 195 102 L 197 102 L 198 103 L 193 108 L 192 113 L 190 117 L 184 124 L 179 126 L 176 129 L 176 131 L 178 131 L 178 130 L 182 127 L 184 127 L 186 130 L 188 131 L 186 128 L 188 126 L 190 126 L 190 125 L 188 125 L 187 124 L 191 119 L 193 115 L 194 110 L 196 108 L 198 112 L 198 117 L 199 117 L 199 109 L 198 108 L 198 106 L 202 103 L 223 102 L 225 104 L 225 109 L 224 110 L 222 109 L 224 113 L 223 121 L 217 128 L 217 131 L 213 134 L 208 135 L 207 136 L 204 136 L 200 138 L 196 138 L 195 139 L 191 139 L 190 140 L 183 141 L 183 143 L 186 144 L 187 142 L 188 143 L 190 143 L 191 142 L 195 143 L 198 140 L 203 141 L 204 140 L 211 139 L 214 136 L 216 136 L 218 134 L 219 129 L 222 126 L 224 122 L 224 120 L 226 118 L 228 120 L 228 124 L 224 131 L 227 129 L 230 123 L 230 121 L 231 120 L 233 122 L 229 131 L 227 133 L 227 134 L 228 134 L 234 124 L 234 120 L 235 119 L 235 118 L 231 115 L 232 111 L 230 110 L 232 109 L 233 107 L 235 110 L 236 116 L 248 129 L 249 131 L 248 132 L 249 136 L 251 138 L 253 138 L 250 133 L 251 132 L 254 135 L 254 133 L 250 129 L 250 126 L 248 123 L 242 120 L 238 116 L 236 111 L 236 108 L 233 104 L 231 104 L 232 106 L 230 107 L 228 111 L 228 114 L 227 115 L 226 114 L 227 105 L 226 104 L 226 102 L 223 100 L 224 99 L 233 99 L 241 103 L 245 107 L 246 112 L 249 116 L 252 117 L 254 119 L 254 116 L 251 115 L 248 112 L 247 107 L 245 104 L 241 101 L 232 97 L 211 97 L 210 98 L 202 99 L 197 101 L 187 101 L 186 102 L 182 102 L 181 101 L 178 101 L 169 96 L 162 96 L 161 95 L 157 96 L 155 95 L 152 97 L 148 98 Z M 162 104 L 164 103 L 165 105 L 163 106 Z M 147 102 L 148 103 L 147 105 L 147 109 L 148 110 L 144 113 L 143 112 L 143 106 L 145 103 Z M 151 55 L 149 55 L 148 59 L 149 59 Z M 22 53 L 21 60 L 23 62 L 25 62 L 24 56 L 23 55 L 23 53 Z M 115 47 L 111 48 L 111 51 L 115 50 Z M 229 45 L 228 45 L 228 50 L 227 52 L 228 52 L 229 50 L 231 50 L 231 48 Z M 65 44 L 60 47 L 60 48 L 62 49 L 62 55 L 63 55 L 63 52 L 64 51 L 65 52 L 67 52 L 64 48 L 65 46 L 67 46 L 67 45 Z M 246 43 L 246 49 L 251 52 L 251 51 L 247 47 L 247 43 Z M 139 39 L 137 41 L 136 47 L 134 51 L 134 54 L 131 58 L 131 63 L 135 67 L 149 67 L 150 68 L 162 65 L 164 63 L 165 60 L 162 55 L 153 47 L 152 42 L 148 38 L 142 38 L 141 39 Z M 138 42 L 140 40 L 142 40 L 143 39 L 148 40 L 150 42 L 149 44 L 147 43 L 149 51 L 151 51 L 153 53 L 155 53 L 156 52 L 159 54 L 162 58 L 162 61 L 161 62 L 159 62 L 157 60 L 154 60 L 153 63 L 151 65 L 146 64 L 145 63 L 142 63 L 141 64 L 138 63 L 137 62 L 139 60 L 139 57 L 137 56 L 137 52 L 136 51 Z M 106 37 L 104 40 L 104 43 L 101 47 L 100 56 L 97 59 L 97 63 L 101 66 L 122 66 L 126 63 L 126 61 L 123 56 L 123 50 L 122 49 L 121 42 L 119 40 L 115 40 L 114 39 L 112 39 L 110 37 Z M 108 38 L 112 41 L 116 41 L 120 44 L 120 46 L 121 47 L 121 54 L 118 60 L 114 63 L 109 63 L 106 60 L 106 58 L 107 57 L 106 52 L 103 50 L 103 47 L 105 44 L 105 42 Z M 13 28 L 12 28 L 12 30 L 9 35 L 9 40 L 8 41 L 8 43 L 9 44 L 6 46 L 7 51 L 6 52 L 0 52 L 0 53 L 14 53 L 15 52 L 10 43 L 11 35 L 13 33 L 12 31 L 13 30 Z M 186 48 L 186 51 L 185 52 L 185 60 L 188 64 L 192 66 L 195 66 L 196 67 L 204 67 L 205 68 L 216 68 L 217 67 L 229 67 L 230 66 L 232 66 L 233 67 L 245 68 L 250 70 L 254 69 L 254 57 L 253 57 L 254 61 L 252 62 L 252 64 L 251 65 L 250 63 L 245 61 L 243 61 L 243 63 L 242 64 L 240 64 L 238 61 L 235 61 L 234 60 L 237 58 L 241 58 L 241 57 L 237 57 L 233 59 L 229 59 L 227 58 L 225 60 L 225 63 L 224 64 L 222 62 L 212 61 L 211 60 L 211 58 L 209 57 L 205 52 L 204 47 L 211 40 L 213 36 L 220 41 L 225 42 L 225 41 L 219 39 L 215 35 L 214 33 L 215 32 L 215 28 L 213 25 L 213 23 L 212 23 L 212 31 L 209 36 L 209 38 L 207 40 L 202 49 L 202 55 L 203 57 L 198 60 L 199 62 L 198 64 L 195 64 L 194 63 L 195 61 L 192 58 L 192 56 L 196 49 L 196 46 L 199 41 L 196 43 L 195 47 L 192 52 L 191 51 L 191 48 L 193 45 L 193 42 L 192 41 L 193 39 L 191 40 L 188 46 Z M 227 60 L 228 59 L 230 60 L 231 62 L 230 63 L 228 63 L 227 62 Z M 202 58 L 204 57 L 207 60 L 211 60 L 212 62 L 211 63 L 206 63 L 202 60 Z M 188 49 L 189 50 L 189 52 L 191 54 L 188 58 L 187 57 L 187 50 Z M 122 27 L 123 29 L 123 34 L 125 35 L 130 35 L 134 33 L 141 33 L 142 32 L 142 29 L 132 21 L 129 23 L 125 23 Z M 129 30 L 133 28 L 133 27 L 131 26 L 132 24 L 133 24 L 138 29 L 135 31 L 130 31 Z M 124 29 L 125 25 L 126 24 L 128 24 L 130 27 L 126 30 Z M 150 21 L 149 23 L 149 29 L 150 30 L 151 36 L 155 39 L 168 39 L 169 38 L 177 38 L 179 36 L 175 25 L 169 19 L 167 19 L 161 15 L 156 15 L 154 16 L 154 17 Z M 152 24 L 154 22 L 154 20 L 157 17 L 161 17 L 169 21 L 175 27 L 175 30 L 172 33 L 168 33 L 167 31 L 165 31 L 165 33 L 164 34 L 160 34 L 158 32 L 159 30 L 159 28 L 158 27 L 160 26 L 161 28 L 162 28 L 160 21 L 159 21 L 159 24 L 157 27 L 157 31 L 156 32 L 152 27 Z M 196 35 L 198 35 L 199 34 L 200 35 L 200 39 L 201 39 L 201 31 L 203 28 L 203 26 L 205 22 L 205 17 L 206 15 L 210 12 L 217 12 L 218 13 L 226 14 L 230 16 L 236 17 L 240 20 L 242 24 L 241 25 L 241 27 L 238 30 L 236 34 L 236 41 L 238 43 L 238 47 L 236 49 L 236 50 L 237 50 L 241 45 L 241 43 L 242 42 L 242 40 L 240 38 L 238 38 L 237 37 L 238 33 L 243 26 L 242 21 L 244 20 L 249 24 L 248 26 L 254 32 L 254 33 L 254 25 L 246 19 L 240 16 L 233 15 L 229 13 L 225 13 L 217 10 L 209 10 L 204 15 L 202 20 L 202 28 L 201 30 L 197 34 L 196 34 Z M 123 11 L 118 8 L 112 8 L 106 11 L 103 11 L 100 15 L 100 20 L 98 22 L 98 25 L 104 28 L 112 28 L 116 26 L 119 23 L 120 19 L 123 16 Z M 120 12 L 120 14 L 116 19 L 114 18 L 114 16 L 116 13 L 111 15 L 114 21 L 113 23 L 111 23 L 110 24 L 103 24 L 101 22 L 103 19 L 105 19 L 105 18 L 102 16 L 102 14 L 104 12 L 108 12 L 116 9 Z M 31 8 L 31 10 L 32 11 L 34 11 L 34 10 Z M 0 15 L 0 20 L 2 20 L 9 14 L 11 15 L 9 18 L 9 20 L 5 25 L 5 27 L 6 27 L 8 24 L 10 25 L 9 23 L 10 18 L 18 9 L 20 8 L 27 9 L 27 8 L 24 6 L 25 4 L 30 4 L 31 5 L 34 4 L 35 5 L 37 5 L 40 8 L 44 19 L 51 23 L 57 28 L 55 30 L 53 30 L 48 33 L 45 33 L 43 34 L 43 35 L 49 34 L 54 31 L 60 32 L 62 30 L 67 30 L 68 31 L 75 32 L 77 34 L 74 37 L 71 38 L 70 40 L 77 37 L 79 35 L 80 35 L 83 39 L 83 42 L 81 46 L 73 53 L 71 58 L 68 61 L 66 61 L 65 62 L 64 60 L 62 60 L 62 61 L 60 63 L 58 63 L 56 66 L 55 65 L 55 62 L 49 62 L 48 63 L 42 63 L 41 62 L 45 57 L 46 53 L 49 50 L 55 50 L 55 48 L 54 47 L 51 47 L 50 46 L 51 43 L 50 43 L 48 46 L 49 48 L 45 52 L 44 51 L 44 49 L 43 49 L 41 56 L 37 60 L 32 60 L 28 65 L 21 65 L 19 63 L 14 63 L 13 62 L 19 58 L 19 56 L 18 56 L 16 59 L 14 59 L 12 61 L 3 61 L 2 62 L 0 62 L 0 67 L 3 67 L 4 68 L 14 68 L 15 67 L 20 67 L 21 68 L 28 68 L 29 69 L 43 69 L 44 70 L 50 70 L 51 69 L 55 69 L 56 68 L 61 68 L 68 65 L 72 61 L 72 59 L 74 55 L 83 46 L 83 44 L 84 43 L 84 38 L 83 37 L 83 35 L 80 32 L 75 30 L 72 30 L 71 29 L 62 28 L 56 25 L 49 18 L 45 10 L 40 5 L 36 3 L 34 3 L 33 2 L 23 3 L 19 5 L 18 7 L 4 14 Z" fill="currentColor" fill-rule="evenodd" clip-rule="evenodd"/>
</svg>