<svg xmlns="http://www.w3.org/2000/svg" viewBox="0 0 85 145" fill="none">
  <path d="M 81 5 L 76 5 L 75 4 L 70 4 L 69 3 L 64 3 L 63 2 L 59 2 L 58 3 L 57 7 L 55 10 L 53 18 L 51 21 L 48 32 L 46 35 L 45 40 L 43 43 L 39 56 L 34 67 L 34 71 L 39 77 L 39 82 L 37 84 L 33 85 L 31 92 L 21 101 L 17 109 L 15 116 L 3 140 L 2 144 L 4 144 L 8 137 L 9 138 L 9 140 L 7 144 L 10 144 L 11 140 L 13 137 L 13 135 L 16 130 L 16 128 L 23 115 L 27 109 L 31 105 L 35 103 L 37 103 L 40 106 L 40 117 L 39 118 L 38 125 L 36 128 L 34 136 L 30 144 L 33 144 L 36 138 L 36 136 L 37 135 L 38 130 L 40 127 L 40 125 L 42 122 L 42 120 L 44 117 L 44 115 L 46 112 L 46 108 L 47 107 L 46 101 L 47 100 L 48 95 L 50 92 L 50 90 L 47 86 L 47 84 L 51 80 L 57 78 L 58 76 L 58 74 L 60 71 L 62 64 L 65 59 L 65 56 L 67 53 L 69 45 L 74 34 L 76 26 L 78 23 L 80 15 L 82 12 L 82 6 Z M 11 130 L 12 131 L 12 133 L 9 138 L 8 137 L 8 135 Z M 23 104 L 25 106 L 25 108 L 17 120 L 16 118 L 18 115 L 20 108 Z M 42 101 L 44 103 L 44 105 L 43 106 L 41 104 L 41 102 Z M 31 96 L 36 101 L 28 105 L 25 101 L 29 96 Z M 33 94 L 35 93 L 38 95 L 44 95 L 45 96 L 45 98 L 42 100 L 40 100 L 36 98 Z M 45 79 L 45 77 L 46 76 L 49 78 L 47 80 Z M 77 12 L 78 13 L 78 15 L 77 16 L 75 24 L 73 27 L 73 29 L 70 35 L 69 40 L 67 43 L 65 51 L 63 54 L 63 57 L 60 62 L 60 64 L 56 74 L 53 76 L 52 75 L 47 75 L 46 74 L 40 73 L 39 72 L 39 69 L 40 68 L 43 57 L 45 54 L 50 37 L 52 34 L 56 20 L 58 17 L 59 12 L 61 10 L 71 11 L 72 12 Z M 61 5 L 62 4 L 66 4 L 67 5 L 71 5 L 72 6 L 78 6 L 80 9 L 78 11 L 76 11 L 75 10 L 62 9 L 61 8 Z" fill="currentColor" fill-rule="evenodd" clip-rule="evenodd"/>
</svg>