<svg xmlns="http://www.w3.org/2000/svg" viewBox="0 0 253 163" fill="none">
  <path d="M 172 161 L 172 162 L 187 162 L 187 161 Z M 147 92 L 139 92 L 137 93 L 134 97 L 134 100 L 131 108 L 130 121 L 131 123 L 135 126 L 139 126 L 140 125 L 139 123 L 139 118 L 144 113 L 143 111 L 143 101 L 144 100 L 144 97 Z M 90 92 L 90 94 L 92 96 L 93 101 L 94 102 L 94 110 L 93 111 L 93 114 L 95 115 L 98 119 L 97 126 L 102 126 L 104 125 L 106 122 L 106 110 L 105 109 L 103 98 L 99 93 L 97 93 L 96 92 Z M 134 58 L 134 62 L 135 64 L 139 67 L 135 60 L 135 58 Z M 109 27 L 109 28 L 116 28 L 117 27 L 120 27 L 121 28 L 128 28 L 128 27 L 124 24 L 113 24 Z M 250 2 L 248 2 L 245 4 L 240 9 L 234 13 L 215 22 L 212 22 L 201 26 L 196 26 L 195 27 L 186 28 L 185 29 L 169 30 L 168 31 L 148 31 L 144 33 L 140 37 L 139 36 L 139 25 L 138 23 L 133 19 L 131 19 L 130 18 L 113 17 L 112 18 L 107 18 L 102 20 L 99 23 L 97 27 L 97 32 L 98 33 L 98 36 L 97 37 L 93 33 L 89 31 L 68 31 L 67 30 L 52 29 L 51 28 L 46 28 L 45 27 L 41 27 L 40 26 L 32 25 L 28 23 L 25 23 L 24 22 L 19 21 L 10 16 L 8 16 L 2 12 L 0 12 L 0 42 L 2 42 L 14 53 L 25 59 L 30 60 L 32 62 L 31 63 L 31 67 L 36 69 L 40 69 L 42 70 L 47 75 L 47 77 L 48 78 L 48 85 L 47 86 L 47 93 L 48 95 L 47 96 L 42 92 L 33 92 L 32 93 L 32 96 L 36 100 L 35 102 L 33 102 L 29 97 L 29 93 L 22 88 L 23 87 L 27 88 L 30 85 L 35 89 L 41 89 L 44 87 L 44 80 L 41 74 L 37 71 L 31 71 L 30 70 L 25 70 L 24 69 L 15 68 L 9 64 L 6 64 L 4 68 L 4 72 L 5 73 L 6 78 L 8 81 L 8 83 L 12 91 L 14 93 L 17 100 L 21 104 L 28 107 L 40 107 L 44 104 L 46 105 L 46 109 L 44 111 L 37 111 L 33 113 L 30 117 L 30 120 L 32 124 L 35 127 L 43 132 L 50 140 L 50 146 L 45 151 L 42 151 L 41 152 L 35 151 L 35 153 L 40 159 L 45 161 L 48 161 L 48 160 L 43 158 L 41 156 L 43 154 L 46 154 L 48 157 L 53 158 L 54 159 L 59 159 L 60 158 L 63 158 L 67 155 L 67 148 L 66 147 L 66 143 L 65 142 L 64 130 L 66 128 L 68 128 L 69 129 L 68 130 L 68 135 L 69 136 L 69 144 L 70 145 L 70 156 L 67 158 L 65 161 L 51 161 L 51 162 L 65 162 L 66 161 L 69 161 L 72 158 L 72 154 L 73 153 L 73 147 L 72 146 L 72 140 L 71 139 L 71 136 L 72 135 L 85 135 L 89 139 L 89 142 L 90 143 L 90 145 L 88 147 L 85 148 L 85 149 L 89 150 L 91 152 L 93 158 L 97 162 L 100 162 L 98 160 L 95 154 L 95 151 L 94 150 L 94 147 L 93 146 L 93 143 L 92 142 L 92 139 L 91 138 L 90 133 L 87 130 L 87 129 L 89 128 L 91 129 L 95 134 L 95 136 L 97 140 L 97 145 L 99 145 L 102 142 L 107 141 L 108 140 L 112 140 L 117 144 L 117 147 L 118 148 L 117 149 L 117 156 L 113 159 L 110 159 L 105 155 L 106 153 L 111 156 L 115 155 L 115 148 L 112 144 L 107 143 L 103 145 L 100 148 L 100 150 L 99 151 L 100 153 L 100 157 L 104 162 L 133 162 L 135 160 L 137 155 L 137 149 L 132 144 L 129 144 L 128 143 L 125 144 L 122 147 L 122 155 L 123 156 L 126 156 L 130 153 L 131 154 L 131 156 L 127 159 L 124 159 L 119 155 L 119 146 L 120 145 L 120 143 L 124 140 L 129 140 L 130 141 L 135 142 L 139 145 L 140 139 L 144 130 L 147 128 L 149 128 L 150 130 L 146 135 L 145 141 L 143 145 L 142 153 L 140 156 L 140 158 L 136 162 L 140 162 L 143 159 L 145 155 L 145 152 L 147 150 L 152 149 L 152 148 L 147 146 L 147 141 L 148 140 L 148 138 L 152 135 L 164 135 L 166 137 L 165 142 L 164 143 L 164 156 L 167 161 L 170 161 L 167 157 L 167 141 L 168 140 L 168 133 L 169 132 L 169 130 L 168 129 L 169 128 L 171 128 L 173 130 L 173 133 L 172 134 L 172 140 L 171 141 L 171 145 L 170 146 L 170 150 L 169 151 L 170 155 L 174 158 L 184 159 L 189 156 L 188 154 L 190 153 L 191 154 L 194 154 L 195 156 L 192 159 L 189 160 L 189 161 L 192 161 L 196 159 L 201 154 L 202 151 L 196 152 L 195 151 L 190 150 L 187 146 L 187 140 L 195 131 L 199 129 L 206 122 L 206 116 L 200 111 L 191 110 L 190 109 L 191 108 L 190 104 L 191 103 L 196 107 L 208 107 L 216 104 L 220 99 L 228 84 L 228 82 L 232 74 L 232 68 L 230 64 L 227 64 L 222 68 L 212 69 L 211 70 L 206 70 L 205 71 L 200 71 L 195 75 L 193 79 L 193 88 L 195 88 L 196 89 L 202 89 L 207 86 L 209 88 L 212 88 L 213 89 L 208 93 L 207 98 L 204 102 L 202 102 L 201 100 L 205 96 L 205 93 L 203 92 L 195 92 L 190 95 L 189 94 L 190 92 L 190 88 L 189 87 L 189 77 L 193 71 L 197 69 L 204 68 L 206 66 L 206 63 L 205 62 L 206 61 L 221 54 L 227 50 L 236 41 L 242 32 L 243 29 L 245 27 L 245 25 L 247 22 L 247 20 L 249 16 L 249 11 L 250 10 Z M 178 136 L 179 137 L 178 142 L 181 142 L 183 144 L 183 148 L 189 153 L 188 154 L 184 153 L 181 150 L 180 145 L 176 145 L 174 143 L 174 140 Z M 60 137 L 63 140 L 63 143 L 61 145 L 57 145 L 56 149 L 54 152 L 51 154 L 49 154 L 48 153 L 53 149 L 54 143 L 55 142 L 59 142 L 59 139 L 58 139 L 57 137 L 58 136 Z M 36 116 L 38 117 L 40 122 L 44 124 L 49 122 L 52 118 L 52 116 L 49 112 L 51 111 L 54 114 L 54 116 L 55 117 L 55 123 L 58 127 L 56 129 L 53 126 L 49 127 L 49 130 L 54 136 L 54 138 L 53 139 L 50 136 L 49 133 L 45 129 L 40 128 L 36 125 L 35 123 L 35 117 Z M 188 110 L 189 111 L 185 115 L 185 119 L 189 123 L 191 123 L 192 124 L 196 123 L 198 120 L 198 118 L 200 116 L 202 118 L 202 122 L 198 127 L 190 130 L 187 134 L 186 137 L 183 139 L 182 137 L 188 130 L 188 128 L 186 126 L 184 126 L 180 129 L 179 128 L 179 126 L 181 124 L 181 119 L 183 114 L 187 110 Z M 161 103 L 163 103 L 165 105 L 162 109 L 159 106 Z M 72 104 L 73 103 L 76 103 L 77 104 L 77 107 L 74 109 L 72 107 Z M 48 95 L 49 96 L 49 101 L 47 104 L 46 103 L 46 101 L 47 100 L 47 96 Z M 189 94 L 190 95 L 190 101 L 191 102 L 190 104 L 187 100 L 187 98 Z M 183 83 L 183 86 L 186 88 L 183 92 L 181 89 L 173 89 L 173 91 L 172 92 L 166 89 L 157 89 L 153 91 L 149 95 L 147 98 L 147 101 L 146 102 L 146 107 L 147 108 L 147 110 L 149 114 L 152 117 L 159 120 L 167 119 L 171 117 L 174 114 L 177 108 L 177 100 L 174 94 L 175 93 L 178 97 L 180 97 L 180 94 L 182 91 L 183 92 L 183 95 L 182 96 L 182 101 L 181 102 L 180 111 L 177 118 L 174 121 L 168 124 L 161 124 L 160 123 L 156 123 L 146 117 L 144 117 L 143 118 L 143 121 L 147 123 L 145 127 L 136 131 L 131 130 L 128 127 L 128 123 L 127 122 L 127 109 L 128 108 L 129 98 L 130 97 L 130 95 L 133 91 L 137 89 L 143 88 L 145 86 L 147 87 L 173 87 L 177 84 L 180 84 L 182 82 Z M 54 83 L 55 82 L 58 84 L 60 84 L 64 87 L 72 87 L 73 88 L 70 90 L 68 90 L 66 92 L 64 91 L 64 89 L 56 89 L 55 90 L 57 97 L 59 97 L 61 94 L 62 95 L 60 99 L 60 110 L 66 117 L 73 120 L 77 120 L 78 119 L 83 118 L 89 112 L 90 106 L 91 105 L 90 103 L 90 99 L 87 94 L 82 90 L 80 90 L 76 88 L 77 87 L 90 87 L 92 86 L 94 88 L 98 88 L 102 90 L 106 94 L 107 99 L 108 100 L 108 103 L 109 104 L 109 110 L 110 111 L 110 122 L 109 123 L 108 128 L 103 131 L 101 130 L 97 130 L 95 128 L 93 128 L 89 124 L 90 122 L 92 122 L 94 120 L 94 118 L 92 117 L 90 117 L 88 119 L 80 123 L 77 123 L 76 124 L 69 124 L 64 122 L 60 118 L 56 109 L 55 98 L 54 97 L 53 91 L 51 89 L 51 88 L 54 86 Z M 163 81 L 159 83 L 156 83 L 150 86 L 148 86 L 147 85 L 148 83 L 152 81 L 157 81 L 158 80 L 162 80 Z M 74 81 L 75 80 L 84 81 L 85 82 L 87 82 L 89 85 L 87 86 Z M 163 80 L 164 79 L 166 79 L 167 80 L 166 81 L 164 81 Z M 63 82 L 65 79 L 73 79 L 74 80 L 73 81 L 68 81 L 65 83 Z M 170 78 L 174 81 L 172 84 L 168 80 Z M 211 76 L 213 78 L 210 82 L 207 84 L 206 83 L 206 81 Z M 25 76 L 26 76 L 30 80 L 30 83 L 29 84 L 24 79 L 24 77 Z M 224 73 L 225 74 L 224 79 L 220 83 L 220 84 L 216 87 L 215 85 L 218 82 L 221 75 Z M 51 73 L 54 79 L 54 81 L 53 82 L 50 77 L 50 74 Z M 13 73 L 15 74 L 18 81 L 22 86 L 21 87 L 20 87 L 12 78 L 12 74 Z M 153 76 L 158 73 L 165 72 L 166 71 L 176 71 L 179 73 L 178 75 L 177 74 L 167 74 L 165 76 L 164 75 L 161 75 L 156 77 L 154 77 Z M 57 74 L 60 71 L 71 71 L 79 74 L 82 74 L 84 76 L 83 77 L 80 77 L 75 75 L 71 76 L 70 74 L 60 74 L 59 75 Z M 188 64 L 189 65 L 188 66 L 187 76 L 186 77 L 186 79 L 184 81 L 183 80 L 183 78 L 185 74 L 185 69 L 182 65 L 183 64 Z M 54 64 L 55 66 L 53 67 L 52 71 L 50 74 L 49 73 L 49 67 L 48 65 L 49 64 Z M 204 63 L 200 65 L 195 65 L 194 64 L 195 63 L 199 63 L 200 62 L 203 62 Z M 120 62 L 122 62 L 138 75 L 135 79 L 123 86 L 121 86 L 120 84 L 132 76 L 132 74 L 119 65 L 119 63 Z M 117 62 L 118 64 L 114 68 L 104 74 L 106 77 L 116 83 L 117 85 L 115 87 L 103 80 L 99 76 L 99 74 L 115 62 Z M 33 63 L 34 62 L 38 62 L 43 64 L 42 65 L 37 65 Z M 136 40 L 137 41 L 137 43 L 135 46 L 134 45 L 134 43 Z M 120 37 L 121 36 L 124 36 L 126 39 L 124 41 L 122 41 L 120 39 Z M 113 36 L 115 36 L 116 37 L 116 40 L 115 41 L 112 41 L 111 40 L 111 38 Z M 61 66 L 62 65 L 71 65 L 72 66 L 89 66 L 97 62 L 101 53 L 102 54 L 102 59 L 101 60 L 101 62 L 98 65 L 98 66 L 100 66 L 102 63 L 103 54 L 104 53 L 104 40 L 105 39 L 105 30 L 106 29 L 106 26 L 110 22 L 113 22 L 114 21 L 123 21 L 128 23 L 131 27 L 131 31 L 132 32 L 133 56 L 134 56 L 134 51 L 135 50 L 136 51 L 136 55 L 139 61 L 142 64 L 147 65 L 148 66 L 165 66 L 166 65 L 176 65 L 177 66 L 172 68 L 159 69 L 158 70 L 153 71 L 148 74 L 146 71 L 140 71 L 136 69 L 133 66 L 130 58 L 130 49 L 129 48 L 123 48 L 120 45 L 121 43 L 123 45 L 126 45 L 129 43 L 129 35 L 127 33 L 122 32 L 121 31 L 115 31 L 110 33 L 107 37 L 107 41 L 110 45 L 114 45 L 115 44 L 116 46 L 114 48 L 111 48 L 110 49 L 109 48 L 107 48 L 107 55 L 106 56 L 105 63 L 99 70 L 97 70 L 96 71 L 91 71 L 89 74 L 81 70 L 71 69 L 70 68 L 65 68 Z" fill="currentColor" fill-rule="evenodd" clip-rule="evenodd"/>
</svg>