<svg xmlns="http://www.w3.org/2000/svg" viewBox="0 0 78 151" fill="none">
  <path d="M 52 44 L 54 47 L 58 46 L 58 43 L 57 42 L 54 42 Z M 41 38 L 41 40 L 42 41 L 46 41 L 46 37 L 42 37 Z M 29 30 L 28 31 L 28 33 L 30 35 L 32 35 L 34 33 L 34 31 L 33 30 Z M 35 2 L 31 2 L 25 7 L 22 13 L 22 15 L 19 20 L 19 22 L 16 27 L 15 33 L 18 35 L 16 38 L 16 40 L 17 41 L 16 42 L 16 45 L 14 48 L 13 53 L 10 58 L 9 63 L 4 73 L 3 78 L 0 80 L 0 90 L 2 89 L 3 90 L 2 93 L 0 94 L 0 105 L 1 105 L 2 103 L 3 97 L 4 96 L 6 88 L 8 85 L 11 74 L 15 66 L 15 64 L 24 46 L 28 48 L 30 48 L 35 51 L 40 52 L 45 55 L 47 55 L 52 58 L 52 60 L 49 66 L 48 71 L 45 76 L 45 78 L 42 83 L 40 90 L 37 95 L 36 100 L 34 103 L 32 111 L 27 121 L 27 123 L 22 134 L 21 139 L 20 140 L 18 140 L 10 135 L 4 129 L 2 125 L 0 124 L 0 129 L 1 129 L 8 136 L 17 141 L 19 143 L 24 145 L 26 147 L 26 149 L 25 150 L 17 148 L 6 141 L 1 136 L 0 136 L 0 140 L 2 140 L 8 145 L 13 147 L 15 150 L 28 150 L 30 146 L 28 143 L 28 141 L 31 138 L 32 132 L 34 130 L 34 128 L 38 122 L 39 114 L 41 112 L 43 107 L 43 104 L 46 98 L 48 96 L 48 93 L 50 91 L 50 89 L 52 86 L 52 83 L 54 80 L 54 77 L 56 75 L 56 72 L 59 66 L 59 64 L 63 61 L 66 57 L 67 57 L 73 45 L 74 38 L 75 37 L 74 28 L 71 22 L 68 19 L 62 16 L 60 14 L 45 7 L 43 5 Z M 30 124 L 32 126 L 32 129 L 29 132 L 29 136 L 26 139 L 26 142 L 24 144 L 22 141 L 25 135 L 28 125 Z M 37 108 L 38 109 L 38 112 L 36 114 L 35 121 L 33 123 L 31 121 L 31 118 L 34 112 L 34 110 Z M 47 87 L 48 89 L 46 92 L 46 95 L 42 99 L 41 104 L 39 106 L 37 104 L 37 102 L 39 99 L 40 94 L 44 87 Z M 4 84 L 5 86 L 3 89 L 2 88 L 2 86 Z M 50 78 L 51 80 L 49 82 L 49 85 L 48 86 L 46 83 L 46 81 L 48 78 Z M 56 60 L 57 62 L 55 66 L 55 70 L 53 72 L 53 75 L 51 77 L 49 75 L 49 73 L 50 72 L 51 67 L 53 64 L 53 62 Z M 20 43 L 22 45 L 17 55 L 15 56 L 14 55 L 16 52 L 17 47 Z M 19 38 L 22 36 L 39 45 L 41 47 L 46 49 L 48 51 L 53 53 L 55 55 L 60 57 L 61 59 L 60 60 L 49 54 L 47 54 L 44 52 L 42 52 L 39 50 L 32 48 L 21 42 L 19 40 Z M 65 20 L 66 21 L 66 24 L 64 27 L 62 24 L 63 23 L 63 21 Z M 61 17 L 62 19 L 59 24 L 57 22 L 57 20 L 59 17 Z M 52 13 L 54 13 L 56 15 L 56 17 L 54 20 L 52 20 L 50 18 L 50 15 Z M 32 16 L 35 13 L 37 13 L 62 28 L 66 33 L 66 41 L 64 42 L 60 39 L 36 27 L 34 27 L 29 24 L 29 22 Z M 48 10 L 49 11 L 49 14 L 46 16 L 45 15 L 45 12 Z M 42 7 L 44 10 L 42 13 L 40 13 L 39 12 L 39 10 Z M 31 4 L 33 3 L 36 4 L 38 6 L 38 8 L 36 11 L 33 12 L 30 15 L 27 21 L 27 25 L 28 26 L 32 27 L 38 30 L 40 32 L 42 32 L 58 40 L 63 44 L 67 44 L 69 40 L 69 33 L 67 30 L 67 27 L 69 25 L 71 27 L 71 29 L 72 30 L 72 40 L 71 41 L 70 46 L 66 54 L 64 56 L 59 55 L 57 53 L 48 49 L 46 47 L 41 45 L 34 40 L 19 33 L 17 31 L 27 8 Z" fill="currentColor" fill-rule="evenodd" clip-rule="evenodd"/>
</svg>