<svg xmlns="http://www.w3.org/2000/svg" viewBox="0 0 96 153" fill="none">
  <path d="M 58 16 L 60 19 L 61 23 L 63 24 L 63 19 L 62 17 Z M 56 2 L 53 4 L 53 6 L 49 9 L 45 9 L 41 11 L 36 16 L 32 18 L 30 18 L 28 20 L 21 22 L 12 27 L 8 28 L 5 31 L 5 33 L 2 39 L 2 43 L 4 45 L 5 52 L 7 54 L 7 56 L 10 61 L 12 61 L 14 63 L 14 65 L 16 67 L 19 67 L 21 70 L 32 69 L 32 68 L 36 64 L 38 63 L 40 63 L 41 64 L 43 72 L 48 83 L 55 106 L 57 109 L 58 114 L 63 125 L 63 127 L 64 128 L 65 133 L 67 136 L 69 144 L 72 149 L 75 149 L 76 150 L 83 150 L 84 149 L 86 149 L 92 144 L 93 142 L 93 137 L 84 119 L 84 117 L 77 104 L 77 102 L 72 93 L 72 91 L 68 84 L 68 82 L 63 73 L 63 71 L 59 64 L 59 62 L 56 56 L 56 54 L 58 52 L 62 51 L 65 48 L 69 47 L 72 44 L 78 44 L 82 39 L 83 32 L 82 31 L 82 27 L 79 22 L 79 20 L 77 16 L 70 9 L 70 8 L 63 3 Z M 51 60 L 53 60 L 55 62 L 56 65 L 61 72 L 68 86 L 68 88 L 71 93 L 71 95 L 77 106 L 77 108 L 81 115 L 81 117 L 91 137 L 91 141 L 86 144 L 83 144 L 81 142 L 83 139 L 86 139 L 86 138 L 81 138 L 78 140 L 76 140 L 74 138 L 74 136 L 72 133 L 72 131 L 68 123 L 68 121 L 63 113 L 62 107 L 57 94 L 57 88 L 55 84 L 55 80 L 49 67 L 49 64 Z M 9 51 L 14 57 L 13 59 L 11 59 L 10 58 L 8 53 Z M 6 48 L 7 47 L 9 50 L 8 51 Z M 74 30 L 77 32 L 76 34 L 76 38 L 75 39 L 73 38 L 71 35 Z M 38 28 L 41 31 L 43 38 L 46 42 L 47 45 L 46 46 L 42 45 L 40 47 L 37 48 L 36 47 L 39 45 L 39 44 L 37 44 L 28 49 L 25 49 L 23 45 L 25 43 L 27 43 L 32 40 L 36 39 L 35 37 L 38 35 L 38 34 L 33 35 L 24 40 L 22 40 L 21 39 L 29 34 L 31 34 L 34 32 L 34 29 L 35 28 Z M 16 26 L 18 27 L 18 39 L 21 45 L 21 47 L 31 58 L 37 61 L 36 63 L 32 65 L 27 63 L 17 53 L 14 48 L 14 46 L 12 42 L 12 31 Z M 35 25 L 30 28 L 30 30 L 31 31 L 29 33 L 21 37 L 20 36 L 19 31 L 22 27 L 23 28 L 25 28 L 32 24 L 34 24 Z M 38 18 L 36 21 L 32 23 L 29 23 L 28 22 L 30 20 L 36 17 Z M 50 13 L 52 15 L 52 22 L 54 25 L 54 27 L 52 29 L 51 28 L 51 26 L 48 24 L 48 15 Z M 44 11 L 46 12 L 46 22 L 47 23 L 47 26 L 52 36 L 56 41 L 62 44 L 64 44 L 66 46 L 59 51 L 58 51 L 55 47 L 51 46 L 47 42 L 44 36 L 44 34 L 42 30 L 42 26 L 40 22 L 40 14 Z M 64 11 L 66 10 L 71 14 L 68 16 L 64 12 Z M 55 7 L 58 7 L 60 9 L 62 14 L 67 18 L 66 19 L 66 22 L 68 25 L 67 32 L 72 38 L 70 40 L 69 40 L 67 37 L 64 37 L 62 35 L 61 31 L 58 28 L 58 25 L 55 21 L 55 14 L 53 12 L 53 10 Z" fill="currentColor" fill-rule="evenodd" clip-rule="evenodd"/>
</svg>