<svg xmlns="http://www.w3.org/2000/svg" viewBox="0 0 255 159" fill="none">
  <path d="M 8 43 L 9 124 L 7 126 L 3 126 L 2 127 L 2 130 L 5 135 L 10 138 L 11 143 L 13 145 L 15 145 L 16 146 L 23 146 L 24 145 L 48 145 L 49 146 L 54 146 L 56 145 L 59 141 L 59 130 L 60 129 L 67 129 L 69 127 L 72 129 L 72 131 L 69 133 L 70 136 L 72 137 L 75 137 L 76 136 L 78 139 L 79 143 L 84 147 L 101 150 L 108 154 L 111 158 L 113 158 L 110 153 L 103 148 L 100 148 L 99 147 L 91 147 L 90 146 L 87 146 L 85 144 L 86 143 L 92 143 L 93 144 L 115 144 L 116 146 L 114 148 L 114 150 L 115 152 L 117 153 L 119 153 L 121 151 L 121 149 L 117 147 L 121 145 L 123 147 L 123 149 L 127 153 L 128 158 L 134 158 L 133 157 L 134 152 L 138 149 L 138 147 L 140 145 L 143 147 L 140 150 L 140 152 L 141 153 L 144 153 L 147 149 L 145 145 L 146 144 L 166 144 L 167 143 L 176 143 L 177 142 L 179 143 L 175 146 L 172 146 L 171 147 L 164 147 L 156 150 L 153 152 L 148 158 L 150 158 L 150 157 L 155 152 L 159 150 L 166 149 L 167 148 L 172 148 L 173 147 L 178 146 L 182 142 L 183 139 L 185 137 L 188 137 L 192 134 L 192 133 L 189 131 L 189 129 L 191 127 L 194 129 L 201 129 L 202 130 L 202 144 L 204 146 L 213 146 L 214 145 L 238 145 L 239 146 L 245 146 L 250 142 L 251 138 L 254 136 L 254 134 L 252 136 L 250 135 L 250 127 L 251 126 L 254 128 L 254 126 L 252 123 L 252 101 L 253 100 L 253 42 L 251 40 L 249 40 L 248 39 L 245 39 L 244 40 L 243 39 L 230 39 L 229 38 L 229 21 L 227 19 L 225 19 L 224 18 L 207 18 L 206 17 L 206 12 L 203 8 L 198 8 L 194 13 L 190 8 L 188 8 L 187 7 L 180 10 L 176 13 L 168 13 L 164 10 L 165 8 L 164 5 L 159 2 L 155 2 L 151 5 L 149 4 L 140 5 L 133 9 L 129 9 L 122 5 L 119 5 L 118 4 L 113 4 L 111 5 L 106 2 L 103 2 L 97 5 L 96 7 L 97 11 L 93 13 L 86 13 L 76 7 L 72 8 L 67 13 L 63 8 L 59 8 L 56 11 L 55 13 L 55 17 L 54 18 L 38 18 L 37 19 L 35 19 L 32 22 L 32 38 L 31 39 L 13 39 L 12 40 L 10 40 Z M 129 141 L 131 141 L 133 143 L 136 143 L 137 144 L 136 147 L 131 151 L 124 145 L 125 143 L 127 143 Z M 76 132 L 77 133 L 74 135 L 73 134 Z M 10 126 L 11 127 L 11 135 L 10 136 L 8 135 L 4 130 L 5 128 L 7 128 Z M 185 126 L 187 125 L 188 127 L 186 128 Z M 73 126 L 75 125 L 76 127 L 74 128 Z M 70 121 L 70 124 L 65 128 L 61 128 L 59 126 L 60 125 L 64 125 L 66 124 L 68 120 Z M 191 120 L 193 119 L 194 120 L 194 123 L 196 125 L 201 125 L 202 127 L 201 128 L 194 127 L 191 124 Z M 184 117 L 185 116 L 187 116 L 188 118 L 186 119 Z M 75 115 L 76 116 L 76 118 L 75 119 L 73 117 Z M 186 111 L 188 109 L 190 109 L 196 112 L 198 112 L 201 110 L 203 113 L 203 118 L 201 121 L 200 121 L 198 119 L 198 117 L 196 116 L 190 119 L 189 118 L 189 115 Z M 168 109 L 169 110 L 169 124 L 166 126 L 164 125 L 162 122 L 166 118 L 167 110 Z M 75 111 L 70 118 L 67 116 L 65 116 L 63 117 L 63 119 L 62 120 L 60 120 L 59 119 L 59 112 L 60 111 L 64 112 L 70 109 L 73 109 Z M 216 108 L 227 108 L 229 110 L 229 115 L 226 117 L 226 123 L 228 126 L 232 128 L 231 129 L 215 129 L 214 128 L 214 110 Z M 93 108 L 94 109 L 95 118 L 96 120 L 100 122 L 99 124 L 96 126 L 92 124 L 92 109 Z M 62 109 L 63 108 L 66 108 L 67 109 L 66 110 L 63 110 Z M 34 108 L 45 108 L 47 110 L 47 128 L 46 129 L 30 129 L 29 128 L 34 124 L 36 120 L 36 118 L 32 115 L 32 110 Z M 201 103 L 202 104 L 202 107 L 199 110 L 196 110 L 195 109 L 199 107 L 199 104 Z M 60 103 L 62 104 L 62 107 L 61 108 L 59 106 L 59 104 Z M 233 86 L 234 85 L 236 85 L 237 86 L 236 87 L 234 87 Z M 183 85 L 185 86 L 186 88 L 182 92 L 181 92 L 179 89 L 180 87 Z M 77 85 L 80 86 L 82 89 L 79 93 L 78 92 L 78 90 L 75 88 Z M 24 86 L 25 85 L 28 85 L 29 86 L 28 87 L 25 87 Z M 155 81 L 158 84 L 160 85 L 164 85 L 169 89 L 165 100 L 165 116 L 163 119 L 161 119 L 158 121 L 155 121 L 154 120 L 154 82 Z M 106 81 L 107 82 L 107 120 L 106 121 L 103 121 L 101 119 L 98 119 L 97 118 L 97 116 L 96 115 L 96 98 L 95 97 L 94 92 L 92 89 L 95 86 L 97 85 L 101 85 Z M 209 84 L 208 85 L 206 84 L 197 84 L 195 85 L 191 89 L 191 92 L 195 97 L 194 98 L 191 98 L 190 96 L 186 96 L 184 94 L 184 92 L 187 90 L 188 87 L 186 84 L 184 84 L 182 81 L 183 80 L 186 82 L 192 82 L 197 79 L 200 79 L 201 80 L 206 81 Z M 175 80 L 176 79 L 179 79 L 180 80 L 180 83 L 179 84 L 177 83 Z M 81 80 L 82 79 L 85 79 L 86 80 L 86 82 L 85 83 L 82 83 L 81 82 Z M 24 77 L 25 76 L 27 78 L 30 78 L 31 79 L 31 81 L 29 83 L 25 83 L 24 82 Z M 237 75 L 238 76 L 238 81 L 236 83 L 233 83 L 230 79 L 231 78 L 234 78 L 235 76 Z M 200 72 L 202 71 L 204 74 L 203 75 Z M 155 71 L 157 70 L 158 71 L 158 73 L 162 76 L 168 76 L 181 70 L 191 70 L 195 73 L 199 74 L 200 75 L 200 77 L 199 78 L 197 77 L 189 77 L 188 78 L 176 77 L 174 79 L 174 83 L 176 84 L 177 86 L 176 87 L 170 87 L 168 86 L 166 83 L 160 83 L 157 80 L 157 77 L 155 76 Z M 61 77 L 61 75 L 63 73 L 65 73 L 67 71 L 69 71 L 70 70 L 79 70 L 93 76 L 99 76 L 102 74 L 104 70 L 106 71 L 106 76 L 104 78 L 104 81 L 102 83 L 96 83 L 92 87 L 86 87 L 85 86 L 87 83 L 87 78 L 86 77 L 79 77 L 78 78 L 74 78 L 73 77 L 65 77 L 64 78 L 62 78 Z M 202 67 L 203 66 L 206 66 L 208 70 L 206 71 L 204 70 Z M 54 67 L 55 66 L 57 66 L 59 69 L 55 71 L 54 70 Z M 178 67 L 182 62 L 192 62 L 194 65 L 200 65 L 201 66 L 201 71 L 200 72 L 197 72 L 195 70 L 190 69 L 189 68 L 179 69 Z M 57 73 L 60 70 L 61 68 L 60 66 L 61 65 L 66 65 L 68 64 L 69 62 L 79 62 L 83 68 L 82 69 L 71 68 L 70 69 L 68 69 L 64 72 L 62 72 L 60 74 L 58 74 Z M 154 63 L 160 59 L 168 59 L 175 65 L 175 67 L 176 68 L 178 68 L 179 69 L 170 74 L 166 74 L 165 75 L 164 74 L 162 74 L 159 71 L 159 66 L 157 66 L 155 68 L 154 67 Z M 84 69 L 86 66 L 86 64 L 92 59 L 101 59 L 107 64 L 107 66 L 106 67 L 104 66 L 102 67 L 102 72 L 100 74 L 92 74 L 86 71 Z M 232 57 L 234 60 L 234 75 L 232 77 L 231 76 L 229 76 L 228 77 L 228 80 L 230 83 L 231 90 L 234 94 L 234 97 L 233 98 L 210 97 L 209 98 L 206 98 L 203 100 L 200 100 L 198 102 L 197 105 L 196 106 L 194 106 L 189 101 L 189 100 L 190 99 L 191 100 L 195 100 L 198 98 L 198 96 L 197 96 L 195 93 L 195 91 L 198 88 L 203 87 L 204 88 L 208 88 L 212 91 L 215 91 L 214 86 L 206 79 L 209 73 L 209 66 L 210 65 L 225 65 L 228 62 L 228 59 L 230 57 Z M 29 57 L 31 57 L 33 59 L 33 63 L 36 65 L 52 65 L 53 66 L 52 68 L 52 74 L 55 79 L 53 82 L 60 79 L 64 79 L 68 82 L 75 82 L 77 80 L 79 81 L 79 82 L 74 86 L 74 90 L 77 92 L 77 94 L 75 96 L 72 96 L 70 98 L 67 98 L 66 97 L 70 92 L 70 88 L 67 85 L 65 85 L 64 84 L 56 84 L 51 86 L 50 85 L 51 83 L 50 83 L 47 87 L 46 91 L 48 91 L 53 88 L 56 88 L 57 87 L 63 88 L 66 91 L 66 94 L 63 98 L 66 100 L 69 100 L 70 99 L 72 99 L 73 100 L 69 105 L 65 106 L 63 101 L 59 101 L 57 99 L 52 97 L 43 97 L 42 98 L 28 98 L 27 97 L 27 93 L 30 89 L 31 82 L 33 80 L 33 76 L 28 76 L 27 75 L 27 60 Z M 161 57 L 153 62 L 152 61 L 155 57 L 157 57 L 158 56 L 160 56 Z M 79 56 L 79 59 L 76 61 L 70 61 L 69 60 L 70 58 L 75 58 L 78 55 Z M 27 55 L 28 56 L 26 58 L 26 67 L 25 68 L 23 66 L 23 56 L 24 55 Z M 236 54 L 238 56 L 238 72 L 237 73 L 236 72 L 235 57 L 234 56 Z M 182 55 L 184 53 L 186 58 L 191 58 L 192 60 L 191 61 L 185 61 L 182 59 Z M 49 51 L 50 50 L 52 50 L 53 51 L 52 52 L 50 52 Z M 163 44 L 164 45 L 166 45 L 170 49 L 174 49 L 176 51 L 176 55 L 179 58 L 179 63 L 177 64 L 175 60 L 172 57 L 166 54 L 160 54 L 153 57 L 151 59 L 151 125 L 149 126 L 148 125 L 148 53 L 152 50 L 157 50 L 158 46 Z M 96 44 L 101 45 L 104 48 L 104 50 L 109 50 L 111 51 L 113 54 L 113 125 L 112 126 L 110 125 L 110 58 L 102 54 L 96 54 L 91 56 L 84 64 L 82 63 L 82 58 L 83 56 L 85 55 L 85 51 L 87 49 L 90 49 Z M 247 41 L 249 43 L 249 48 L 250 49 L 249 51 L 249 90 L 248 91 L 248 136 L 249 137 L 249 141 L 246 144 L 229 144 L 228 143 L 207 144 L 205 142 L 205 140 L 204 139 L 204 103 L 205 101 L 208 99 L 225 99 L 226 100 L 236 100 L 237 101 L 237 124 L 234 126 L 232 126 L 228 122 L 229 120 L 232 120 L 233 118 L 233 106 L 232 105 L 230 105 L 229 104 L 220 104 L 219 105 L 212 105 L 211 106 L 211 131 L 213 133 L 239 133 L 240 132 L 240 117 L 241 116 L 241 67 L 242 66 L 242 52 L 240 50 L 230 50 L 229 49 L 229 42 L 230 41 Z M 14 41 L 31 41 L 32 42 L 32 49 L 31 50 L 21 50 L 19 53 L 19 66 L 20 67 L 20 113 L 21 114 L 21 132 L 22 133 L 47 133 L 50 131 L 50 106 L 49 105 L 43 105 L 42 104 L 30 105 L 28 108 L 28 118 L 29 120 L 33 120 L 34 122 L 31 125 L 28 126 L 24 123 L 24 101 L 26 99 L 53 99 L 57 102 L 57 142 L 55 144 L 45 144 L 44 143 L 41 143 L 40 144 L 15 144 L 12 141 L 12 138 L 13 137 L 13 90 L 12 89 L 12 50 L 11 49 L 12 48 L 12 43 Z M 171 46 L 172 45 L 182 45 L 185 43 L 185 35 L 186 34 L 212 34 L 213 35 L 213 39 L 212 40 L 207 38 L 201 38 L 197 40 L 194 43 L 194 54 L 193 55 L 191 55 L 188 51 L 184 51 L 180 55 L 178 53 L 177 49 Z M 48 35 L 49 34 L 75 34 L 76 35 L 76 44 L 78 45 L 90 45 L 91 46 L 90 47 L 87 47 L 83 51 L 83 54 L 82 55 L 81 55 L 78 51 L 74 51 L 70 55 L 68 55 L 67 54 L 67 42 L 61 38 L 55 38 L 49 41 L 48 40 Z M 91 31 L 92 30 L 95 34 L 94 35 L 92 35 L 91 34 Z M 169 29 L 171 33 L 169 35 L 166 35 L 165 34 Z M 185 21 L 186 20 L 225 20 L 228 24 L 227 61 L 225 63 L 196 63 L 195 62 L 195 50 L 196 49 L 196 43 L 199 40 L 208 40 L 212 44 L 212 47 L 211 48 L 208 46 L 206 46 L 203 48 L 202 53 L 204 56 L 214 56 L 217 52 L 217 32 L 216 30 L 187 30 L 185 28 Z M 36 20 L 75 20 L 76 21 L 76 28 L 74 30 L 46 30 L 44 34 L 44 52 L 47 56 L 56 56 L 58 55 L 59 53 L 59 49 L 58 47 L 56 46 L 54 46 L 52 48 L 50 48 L 49 47 L 49 43 L 53 40 L 61 40 L 65 43 L 65 48 L 66 49 L 66 51 L 65 52 L 65 54 L 66 55 L 66 62 L 65 63 L 36 63 L 34 60 L 34 44 L 33 43 L 33 23 Z M 170 21 L 170 24 L 169 25 L 165 21 L 156 21 L 153 23 L 151 23 L 151 41 L 153 44 L 155 44 L 156 45 L 156 47 L 153 49 L 149 50 L 148 49 L 148 20 L 151 18 L 166 18 Z M 95 18 L 110 18 L 114 21 L 114 48 L 112 50 L 111 49 L 108 49 L 105 47 L 105 45 L 110 42 L 110 23 L 108 23 L 105 21 L 97 21 L 95 22 L 92 26 L 91 25 L 91 21 Z M 183 19 L 184 21 L 184 41 L 182 43 L 156 43 L 153 41 L 153 25 L 155 23 L 162 22 L 167 26 L 167 29 L 166 30 L 162 29 L 158 32 L 158 36 L 162 39 L 171 39 L 173 38 L 174 36 L 174 22 L 173 21 L 173 16 L 175 15 Z M 78 19 L 82 16 L 85 16 L 86 15 L 88 16 L 88 23 L 87 24 L 87 37 L 89 39 L 99 39 L 103 36 L 103 31 L 102 30 L 95 30 L 94 29 L 94 25 L 96 23 L 98 23 L 99 22 L 106 23 L 108 25 L 108 41 L 106 43 L 79 43 L 78 42 L 78 38 L 77 37 Z M 203 11 L 205 15 L 204 17 L 202 18 L 201 16 Z M 178 13 L 181 11 L 185 11 L 187 12 L 191 16 L 191 17 L 190 18 L 184 18 L 182 16 L 179 15 Z M 83 14 L 77 18 L 70 18 L 69 17 L 70 15 L 75 11 L 79 11 Z M 59 10 L 60 11 L 60 17 L 59 18 L 57 16 L 57 12 Z M 137 9 L 146 8 L 148 9 L 151 13 L 149 15 L 147 15 L 144 18 L 144 127 L 146 130 L 172 129 L 173 128 L 173 94 L 174 93 L 174 91 L 177 89 L 178 90 L 178 92 L 183 96 L 180 102 L 180 131 L 179 132 L 179 139 L 177 141 L 174 141 L 173 142 L 157 142 L 156 143 L 152 143 L 151 142 L 142 142 L 140 143 L 137 141 L 134 141 L 131 137 L 131 14 Z M 119 8 L 127 11 L 130 14 L 130 138 L 128 141 L 125 141 L 122 143 L 120 142 L 109 142 L 108 143 L 107 142 L 89 142 L 88 141 L 85 141 L 82 138 L 82 131 L 81 130 L 81 101 L 80 100 L 80 98 L 78 96 L 83 92 L 83 90 L 84 89 L 86 90 L 88 94 L 88 99 L 89 100 L 89 107 L 88 108 L 88 128 L 89 129 L 98 129 L 99 130 L 101 129 L 102 130 L 115 130 L 117 128 L 117 17 L 115 15 L 113 15 L 110 13 L 112 9 L 114 8 Z M 154 4 L 158 4 L 159 5 L 158 7 L 158 13 L 157 14 L 154 14 L 151 10 L 151 8 Z M 104 4 L 106 4 L 110 9 L 110 11 L 107 14 L 104 14 L 103 13 L 103 11 L 104 10 L 103 5 Z" fill="currentColor" fill-rule="evenodd" clip-rule="evenodd"/>
</svg>