<svg xmlns="http://www.w3.org/2000/svg" viewBox="0 0 184 169" fill="none">
  <path d="M 99 140 L 98 140 L 92 146 L 88 144 L 90 147 L 90 150 L 92 149 L 95 151 L 93 147 L 99 141 Z M 53 3 L 43 12 L 42 12 L 2 54 L 2 131 L 6 135 L 6 136 L 8 137 L 9 139 L 38 168 L 45 168 L 44 167 L 45 165 L 55 165 L 57 168 L 59 168 L 61 165 L 64 166 L 65 168 L 77 168 L 70 167 L 69 166 L 64 165 L 59 162 L 60 161 L 63 161 L 67 158 L 69 159 L 75 159 L 79 154 L 79 151 L 73 152 L 70 149 L 70 147 L 72 145 L 74 145 L 75 144 L 76 145 L 78 145 L 77 143 L 77 139 L 78 137 L 82 134 L 83 131 L 80 131 L 75 133 L 73 130 L 76 128 L 89 128 L 90 129 L 93 129 L 94 128 L 108 128 L 110 130 L 108 133 L 103 131 L 101 131 L 101 133 L 106 139 L 106 145 L 108 144 L 111 145 L 113 147 L 113 150 L 111 152 L 107 152 L 106 151 L 104 151 L 103 149 L 102 149 L 99 153 L 96 153 L 97 156 L 92 161 L 91 161 L 86 155 L 88 152 L 84 153 L 83 151 L 82 151 L 82 152 L 84 153 L 84 155 L 81 159 L 84 157 L 86 157 L 90 163 L 87 166 L 83 166 L 80 164 L 80 161 L 79 161 L 80 166 L 82 167 L 88 167 L 91 165 L 93 165 L 95 167 L 101 167 L 104 165 L 104 161 L 99 155 L 103 150 L 104 151 L 104 154 L 107 158 L 109 159 L 114 159 L 116 158 L 118 160 L 123 161 L 124 162 L 119 165 L 117 165 L 110 168 L 106 168 L 118 168 L 119 166 L 122 166 L 123 165 L 124 166 L 124 168 L 126 168 L 128 165 L 139 165 L 140 166 L 138 168 L 145 168 L 180 133 L 181 131 L 181 54 L 180 52 L 132 4 L 130 3 L 124 3 L 123 2 L 59 2 L 58 3 Z M 98 157 L 99 157 L 103 161 L 103 164 L 100 166 L 96 166 L 93 163 Z M 147 152 L 147 158 L 142 164 L 129 164 L 128 163 L 130 161 L 136 158 L 144 151 L 146 151 Z M 148 156 L 148 150 L 149 149 L 155 149 L 156 150 L 149 157 Z M 28 150 L 29 149 L 35 149 L 36 151 L 38 150 L 42 154 L 55 163 L 54 164 L 42 164 L 37 160 L 37 153 L 35 154 L 35 156 L 34 157 L 28 151 Z M 31 139 L 32 138 L 33 139 L 35 139 L 37 137 L 41 140 L 47 147 L 45 149 L 45 151 L 46 152 L 50 152 L 51 151 L 51 144 L 52 143 L 55 143 L 58 147 L 63 149 L 65 151 L 65 155 L 64 156 L 61 152 L 58 153 L 56 156 L 56 158 L 57 159 L 56 161 L 49 157 L 41 150 L 40 150 L 35 145 Z M 110 135 L 112 134 L 114 136 L 116 136 L 117 137 L 117 142 L 119 142 L 119 141 L 122 139 L 124 141 L 124 143 L 121 146 L 118 146 L 115 143 L 111 143 L 110 142 Z M 72 134 L 73 135 L 73 141 L 71 143 L 68 143 L 65 146 L 62 146 L 59 143 L 59 141 L 61 139 L 66 142 L 66 137 L 67 136 L 70 136 L 70 135 Z M 162 129 L 163 130 L 163 143 L 159 147 L 153 147 L 151 148 L 149 146 L 153 142 L 158 135 L 159 132 Z M 21 128 L 23 130 L 27 138 L 34 146 L 32 148 L 24 147 L 21 144 L 20 142 L 20 129 Z M 169 134 L 169 128 L 170 127 L 176 127 L 177 128 L 177 130 L 171 135 Z M 167 127 L 168 128 L 168 138 L 165 140 L 164 139 L 164 129 Z M 17 127 L 19 128 L 19 140 L 18 141 L 15 138 L 15 129 Z M 6 128 L 7 127 L 13 127 L 14 128 L 14 135 L 13 136 L 6 129 Z M 57 126 L 58 127 L 58 129 L 54 132 L 53 131 L 53 128 L 55 126 Z M 124 126 L 125 125 L 128 126 L 131 130 L 130 131 L 127 131 L 125 129 L 125 127 Z M 105 121 L 106 122 L 106 124 L 104 126 L 103 124 Z M 109 120 L 114 126 L 112 128 L 107 126 L 107 124 Z M 77 120 L 79 121 L 79 123 L 80 124 L 79 126 L 76 122 Z M 74 120 L 75 121 L 76 126 L 71 128 L 69 126 Z M 154 119 L 155 120 L 153 121 L 151 124 L 152 126 L 155 128 L 157 128 L 158 127 L 159 128 L 159 130 L 151 142 L 136 156 L 127 161 L 126 160 L 127 156 L 125 153 L 121 153 L 119 156 L 118 155 L 118 151 L 121 148 L 125 147 L 129 143 L 131 143 L 132 144 L 132 151 L 133 152 L 137 152 L 138 151 L 137 146 L 140 142 L 146 137 L 148 139 L 150 139 L 151 138 L 151 134 L 150 133 L 146 133 L 144 134 L 142 132 L 142 129 L 147 125 L 147 123 L 150 119 Z M 29 119 L 33 119 L 36 122 L 37 126 L 41 130 L 41 132 L 40 133 L 33 133 L 32 134 L 32 138 L 31 139 L 28 136 L 24 129 L 25 128 L 28 128 L 32 125 L 32 123 L 28 120 Z M 166 118 L 168 119 L 168 124 L 167 125 L 164 123 Z M 131 118 L 134 118 L 135 119 L 134 126 L 139 130 L 138 132 L 138 137 L 136 139 L 129 139 L 126 135 L 120 135 L 118 136 L 117 135 L 119 131 L 125 132 L 131 135 L 133 134 L 133 130 L 131 127 L 131 124 L 130 123 L 130 119 Z M 117 119 L 118 118 L 121 118 L 123 120 L 124 124 L 123 125 L 119 124 L 117 121 Z M 65 118 L 66 119 L 66 122 L 64 124 L 60 125 L 59 124 L 60 120 L 62 118 Z M 48 119 L 50 118 L 54 120 L 50 131 L 50 134 L 54 134 L 61 131 L 64 131 L 66 133 L 66 135 L 65 136 L 63 135 L 58 135 L 54 139 L 47 139 L 45 137 L 46 136 L 45 134 L 45 130 L 49 126 L 49 121 Z M 17 118 L 19 121 L 19 124 L 18 125 L 15 123 L 15 120 Z M 171 117 L 176 117 L 177 118 L 177 124 L 176 125 L 170 125 L 169 124 L 169 119 Z M 80 121 L 82 119 L 84 119 L 87 117 L 90 121 L 92 122 L 96 117 L 99 119 L 101 119 L 103 122 L 100 126 L 83 126 L 81 124 Z M 8 117 L 12 117 L 14 119 L 14 124 L 13 125 L 7 125 L 6 124 L 6 119 Z M 108 118 L 108 116 L 110 115 L 111 117 L 109 119 Z M 73 114 L 75 116 L 75 118 L 74 119 L 72 117 L 72 115 Z M 134 111 L 141 111 L 142 112 L 142 115 L 146 120 L 142 125 L 140 125 L 138 123 L 138 122 L 141 120 L 141 118 L 136 118 L 135 117 L 135 115 L 133 113 Z M 49 111 L 50 113 L 48 115 L 48 117 L 47 118 L 42 118 L 42 120 L 43 120 L 45 123 L 43 125 L 41 125 L 38 122 L 38 119 L 41 116 L 41 114 L 43 111 Z M 127 113 L 125 115 L 120 111 L 115 112 L 114 110 L 115 109 L 122 109 L 123 108 L 125 108 Z M 56 113 L 58 108 L 60 108 L 61 109 L 68 109 L 70 111 L 69 112 L 63 111 L 58 115 Z M 84 107 L 88 107 L 92 105 L 100 108 L 95 115 L 91 118 L 83 108 Z M 125 105 L 123 107 L 121 107 L 120 108 L 118 107 L 120 105 L 122 105 L 123 104 Z M 58 105 L 60 104 L 61 105 L 63 105 L 65 107 L 63 108 L 62 107 L 60 107 Z M 109 102 L 115 107 L 113 108 L 112 111 L 110 113 L 108 113 L 106 115 L 102 110 L 102 108 L 108 102 Z M 74 102 L 75 102 L 82 109 L 77 116 L 75 113 L 73 113 L 71 111 L 71 109 L 68 107 L 70 105 L 73 104 Z M 152 100 L 154 100 L 160 105 L 164 105 L 166 103 L 167 104 L 166 113 L 165 114 L 163 122 L 161 124 L 159 119 L 157 117 L 158 115 L 158 109 L 155 106 L 150 105 L 149 104 Z M 30 100 L 34 104 L 33 105 L 30 105 L 26 108 L 25 110 L 26 117 L 22 123 L 20 121 L 20 119 L 18 115 L 16 104 L 17 103 L 19 105 L 23 105 Z M 91 97 L 93 97 L 94 98 L 94 100 L 92 102 L 89 100 Z M 21 94 L 27 98 L 27 100 L 23 104 L 20 104 L 18 101 L 18 97 Z M 97 91 L 99 90 L 101 93 L 98 95 L 97 94 Z M 84 90 L 86 90 L 87 91 L 87 93 L 85 95 L 82 93 Z M 16 89 L 20 92 L 17 96 L 15 95 L 15 90 Z M 167 88 L 168 89 L 168 96 L 167 97 L 164 93 L 165 90 Z M 154 87 L 159 90 L 161 92 L 161 94 L 163 94 L 165 97 L 165 101 L 163 104 L 160 104 L 156 100 L 159 95 L 154 98 L 149 94 L 149 91 Z M 107 84 L 118 92 L 117 94 L 113 96 L 107 101 L 106 100 L 106 96 L 105 95 L 105 90 L 106 89 L 106 85 Z M 76 84 L 77 85 L 77 89 L 79 92 L 77 96 L 77 100 L 76 101 L 65 92 Z M 89 85 L 92 83 L 94 86 L 93 87 L 90 87 Z M 160 81 L 163 81 L 165 83 L 165 88 L 162 91 L 156 86 L 156 85 Z M 120 81 L 123 82 L 125 84 L 125 101 L 121 104 L 118 102 L 118 100 L 116 97 L 121 93 L 121 92 L 116 88 Z M 62 81 L 65 83 L 65 85 L 67 88 L 62 92 L 63 94 L 67 96 L 65 100 L 65 102 L 63 104 L 60 103 L 58 101 L 58 84 Z M 18 84 L 20 81 L 23 81 L 27 85 L 27 87 L 21 91 L 18 88 Z M 120 79 L 121 78 L 123 78 L 125 80 L 123 81 Z M 58 80 L 60 78 L 62 78 L 63 79 L 60 81 Z M 54 74 L 56 77 L 56 87 L 57 88 L 55 91 L 55 94 L 56 95 L 56 108 L 54 111 L 51 109 L 52 108 L 52 105 L 54 103 L 54 102 L 51 102 L 45 107 L 39 107 L 40 109 L 39 112 L 37 114 L 35 114 L 32 111 L 32 108 L 34 106 L 35 103 L 31 99 L 31 98 L 27 97 L 23 93 L 23 92 L 27 88 L 31 87 L 35 92 L 34 95 L 37 94 L 41 97 L 38 92 L 43 87 L 43 86 L 42 86 L 37 91 L 32 88 L 31 86 L 37 80 L 41 78 L 45 78 L 51 83 L 54 83 L 52 80 L 52 77 L 51 76 Z M 149 71 L 151 73 L 151 77 L 148 82 L 152 86 L 152 87 L 147 91 L 146 91 L 141 86 L 140 86 L 140 87 L 145 92 L 141 98 L 142 98 L 146 94 L 149 94 L 152 98 L 152 100 L 148 103 L 148 104 L 150 105 L 151 112 L 148 114 L 146 114 L 143 110 L 144 107 L 138 107 L 136 106 L 133 102 L 130 102 L 132 109 L 129 111 L 127 107 L 127 95 L 128 94 L 128 91 L 127 90 L 127 78 L 128 77 L 128 75 L 129 74 L 131 74 L 132 75 L 132 77 L 130 81 L 130 83 L 132 83 L 138 78 L 144 78 L 143 76 L 144 73 L 146 71 Z M 35 71 L 37 71 L 40 75 L 39 78 L 36 80 L 32 77 L 32 74 Z M 168 70 L 176 70 L 177 71 L 177 114 L 176 115 L 168 115 L 167 114 L 168 107 L 169 106 L 169 98 L 170 97 L 169 80 L 168 79 L 168 75 L 167 74 L 167 71 Z M 127 72 L 125 77 L 123 77 L 122 76 L 115 76 L 114 75 L 115 73 L 120 74 L 125 70 Z M 56 72 L 59 70 L 61 73 L 63 74 L 66 74 L 67 73 L 69 73 L 70 74 L 68 76 L 61 76 L 60 77 L 58 77 Z M 106 69 L 108 72 L 110 72 L 112 74 L 114 78 L 113 80 L 110 81 L 108 83 L 101 76 Z M 77 69 L 82 76 L 76 82 L 74 82 L 70 80 L 69 78 L 71 76 L 71 74 L 73 72 L 75 72 Z M 8 69 L 16 69 L 17 70 L 16 76 L 15 77 L 15 82 L 14 83 L 14 104 L 15 105 L 15 109 L 16 110 L 16 114 L 15 115 L 7 115 L 6 114 L 6 71 Z M 82 68 L 84 67 L 86 70 L 85 71 Z M 83 77 L 86 74 L 91 66 L 93 67 L 95 71 L 100 77 L 99 78 L 95 78 L 94 79 L 89 79 L 88 78 L 84 78 Z M 74 66 L 75 67 L 75 69 L 73 70 L 72 68 Z M 22 63 L 24 64 L 26 68 L 26 70 L 25 71 L 25 75 L 28 79 L 33 80 L 34 81 L 29 85 L 24 80 L 19 80 L 18 81 L 16 80 L 17 79 L 17 75 L 18 74 L 19 68 Z M 161 62 L 165 70 L 167 81 L 166 82 L 164 80 L 160 80 L 154 85 L 152 84 L 150 81 L 155 79 L 158 76 L 158 70 L 157 68 Z M 169 61 L 170 60 L 176 60 L 177 61 L 177 66 L 175 68 L 174 67 L 172 67 L 171 68 L 169 66 Z M 166 60 L 168 61 L 168 66 L 167 67 L 165 66 L 165 64 L 164 63 Z M 142 60 L 145 63 L 145 66 L 142 70 L 142 73 L 141 74 L 134 74 L 133 72 L 137 67 L 141 67 L 141 65 L 140 65 L 138 62 L 140 60 Z M 123 60 L 124 61 L 123 65 L 120 67 L 118 67 L 117 66 L 118 62 L 121 60 Z M 59 61 L 60 60 L 64 61 L 66 63 L 66 66 L 65 67 L 61 66 Z M 41 60 L 43 60 L 45 62 L 45 63 L 42 65 L 42 67 L 47 67 L 48 68 L 48 70 L 50 72 L 49 74 L 43 74 L 41 72 L 41 69 L 38 66 L 38 63 Z M 16 60 L 18 60 L 19 61 L 19 65 L 17 67 L 15 66 L 15 61 Z M 6 61 L 7 60 L 13 60 L 14 61 L 14 66 L 12 68 L 11 67 L 7 67 L 6 66 Z M 104 59 L 106 61 L 106 63 L 105 64 L 103 61 Z M 80 63 L 83 59 L 100 59 L 103 62 L 103 64 L 101 66 L 98 66 L 96 68 L 92 63 L 91 63 L 88 67 L 81 65 Z M 79 59 L 80 61 L 79 62 L 79 64 L 77 65 L 76 64 L 77 63 L 77 61 Z M 113 57 L 114 59 L 110 64 L 111 69 L 109 70 L 108 69 L 108 62 L 107 61 L 107 59 L 108 58 Z M 71 57 L 76 59 L 76 61 L 74 64 L 69 59 Z M 129 53 L 131 55 L 128 59 L 126 59 L 125 58 L 125 56 Z M 53 54 L 54 53 L 58 56 L 58 58 L 57 59 L 55 59 L 53 57 Z M 169 51 L 170 50 L 172 50 L 173 52 L 177 55 L 177 57 L 176 58 L 170 58 L 169 57 Z M 13 49 L 14 50 L 14 57 L 13 58 L 7 58 L 6 57 L 7 54 Z M 144 51 L 146 52 L 150 52 L 153 48 L 155 50 L 158 56 L 152 59 L 152 63 L 155 65 L 154 66 L 152 66 L 148 64 L 146 59 L 142 55 L 142 53 Z M 31 47 L 33 52 L 37 52 L 39 51 L 41 53 L 41 55 L 37 59 L 36 63 L 34 65 L 31 65 L 30 64 L 32 62 L 32 60 L 29 57 L 26 57 L 25 56 L 26 53 Z M 117 50 L 118 49 L 125 50 L 129 46 L 136 46 L 138 48 L 138 55 L 134 59 L 134 63 L 135 65 L 134 66 L 131 66 L 130 65 L 130 61 L 133 55 L 133 51 L 129 51 L 122 54 L 119 54 Z M 48 66 L 49 64 L 49 59 L 48 57 L 45 55 L 45 51 L 47 46 L 54 46 L 58 50 L 62 50 L 63 49 L 65 49 L 66 50 L 66 53 L 65 54 L 61 54 L 54 51 L 50 51 L 50 54 L 53 61 L 53 65 L 49 67 Z M 165 45 L 168 47 L 168 57 L 167 58 L 164 56 L 164 46 Z M 18 44 L 19 45 L 19 57 L 17 58 L 15 56 L 15 47 Z M 124 42 L 124 44 L 122 46 L 120 45 L 119 43 L 117 43 L 117 48 L 116 49 L 114 49 L 112 51 L 110 50 L 110 43 L 111 42 L 114 42 L 118 39 L 121 39 Z M 59 42 L 64 38 L 67 41 L 71 42 L 73 44 L 73 50 L 71 51 L 70 49 L 67 49 L 66 48 L 66 43 L 61 46 L 59 44 Z M 149 37 L 158 37 L 163 42 L 163 57 L 162 58 L 160 56 L 155 47 L 148 39 Z M 35 37 L 36 38 L 35 40 L 27 49 L 23 57 L 21 58 L 20 57 L 20 43 L 21 41 L 26 37 Z M 138 35 L 140 34 L 143 36 L 148 41 L 150 45 L 146 48 L 142 44 L 141 44 L 137 39 Z M 44 34 L 47 38 L 44 42 L 37 48 L 34 46 L 33 44 L 43 34 Z M 34 29 L 35 30 L 35 35 L 34 36 L 29 36 L 28 34 L 33 29 Z M 148 29 L 149 28 L 156 35 L 155 36 L 149 36 L 148 35 Z M 118 30 L 119 29 L 121 32 L 125 32 L 127 29 L 127 27 L 129 26 L 135 30 L 136 32 L 132 34 L 132 41 L 131 42 L 129 42 L 124 37 L 122 37 L 119 35 Z M 64 29 L 65 30 L 65 34 L 63 36 L 59 37 L 54 42 L 52 42 L 51 41 L 51 34 L 49 33 L 48 31 L 51 28 L 55 26 L 58 32 L 61 33 Z M 125 22 L 126 21 L 142 21 L 147 26 L 147 29 L 146 30 L 146 32 L 147 33 L 145 36 L 138 30 Z M 36 35 L 37 33 L 37 26 L 41 22 L 43 21 L 57 21 L 58 22 L 56 24 L 53 25 L 44 31 L 40 35 L 38 36 Z M 96 19 L 101 19 L 103 21 L 103 24 L 99 28 L 98 28 L 93 22 Z M 121 23 L 116 27 L 114 26 L 108 26 L 105 29 L 104 34 L 103 35 L 101 34 L 102 36 L 103 36 L 104 34 L 106 34 L 107 33 L 111 33 L 113 35 L 113 38 L 111 40 L 106 40 L 106 46 L 101 52 L 101 54 L 109 52 L 110 53 L 110 55 L 109 56 L 107 56 L 106 57 L 94 57 L 93 56 L 90 56 L 89 57 L 77 57 L 73 55 L 75 52 L 80 53 L 81 54 L 83 54 L 83 53 L 77 46 L 77 40 L 72 40 L 70 38 L 70 35 L 72 33 L 76 33 L 77 34 L 79 34 L 80 36 L 81 36 L 84 32 L 86 32 L 90 36 L 90 38 L 86 42 L 86 43 L 92 39 L 98 45 L 99 45 L 99 44 L 93 38 L 95 33 L 94 33 L 93 35 L 91 35 L 86 30 L 87 28 L 91 24 L 92 24 L 97 29 L 97 32 L 100 32 L 99 30 L 104 24 L 104 20 L 103 19 L 104 18 L 112 19 L 113 20 L 118 21 Z M 62 23 L 75 18 L 79 18 L 80 19 L 79 20 L 79 24 L 80 24 L 80 21 L 82 19 L 87 19 L 90 22 L 85 28 L 81 26 L 84 30 L 84 32 L 80 35 L 79 34 L 79 30 L 75 26 L 69 26 L 68 27 Z M 89 18 L 90 17 L 93 17 L 94 18 L 92 20 Z M 126 17 L 127 16 L 138 16 L 139 17 L 139 19 L 138 20 L 128 20 Z M 116 18 L 118 16 L 123 16 L 124 17 L 123 19 L 117 19 Z M 59 17 L 60 16 L 65 16 L 67 18 L 66 19 L 60 19 Z M 44 19 L 46 16 L 56 16 L 57 17 L 55 20 L 45 20 Z M 126 8 L 127 7 L 129 7 L 132 11 L 134 12 L 134 14 L 133 15 L 127 15 L 126 14 Z M 118 7 L 123 7 L 124 8 L 124 14 L 123 15 L 118 15 L 116 13 L 116 9 Z M 68 8 L 69 7 L 113 7 L 115 9 L 115 17 L 114 18 L 111 18 L 110 17 L 100 16 L 99 15 L 85 15 L 84 16 L 78 16 L 77 17 L 69 18 L 68 17 Z M 59 8 L 60 7 L 66 7 L 67 8 L 67 13 L 65 15 L 60 15 L 59 14 Z M 56 7 L 57 8 L 57 14 L 56 15 L 50 15 L 49 14 L 50 11 Z" fill="currentColor" fill-rule="evenodd" clip-rule="evenodd"/>
</svg>