<svg xmlns="http://www.w3.org/2000/svg" viewBox="0 0 139 168" fill="none">
  <path d="M 37 165 L 37 166 L 41 166 L 42 167 L 44 167 L 45 166 L 49 166 L 50 167 L 55 166 L 55 165 Z M 0 167 L 3 167 L 2 166 L 3 164 L 9 164 L 10 165 L 10 167 L 11 167 L 11 165 L 12 164 L 18 164 L 19 165 L 19 167 L 20 167 L 20 165 L 21 164 L 29 164 L 29 163 L 20 161 L 8 155 L 8 156 L 10 157 L 10 162 L 9 163 L 0 163 Z M 11 159 L 13 158 L 17 160 L 18 162 L 17 163 L 13 163 L 11 161 Z M 0 138 L 0 140 L 16 152 L 30 158 L 33 158 L 34 159 L 38 159 L 39 158 L 39 157 L 31 157 L 29 154 L 25 154 L 22 152 L 20 152 L 16 150 L 14 147 L 12 147 L 9 143 L 7 143 L 2 138 Z M 65 137 L 64 139 L 66 140 L 67 138 Z M 27 138 L 27 139 L 31 139 L 31 138 L 29 137 Z M 84 124 L 83 124 L 83 126 L 80 128 L 80 129 L 83 128 Z M 115 101 L 113 100 L 113 105 L 112 106 L 112 108 L 110 109 L 109 115 L 106 122 L 103 125 L 102 128 L 101 129 L 99 129 L 98 132 L 89 142 L 85 143 L 85 145 L 83 147 L 81 147 L 75 152 L 72 152 L 69 154 L 65 154 L 65 155 L 62 157 L 59 157 L 58 158 L 56 157 L 56 159 L 62 159 L 63 158 L 68 157 L 80 151 L 87 146 L 102 131 L 110 118 L 110 116 L 113 111 Z M 98 65 L 97 67 L 99 68 L 100 66 Z M 65 43 L 64 45 L 66 46 L 67 44 Z M 44 39 L 39 41 L 39 43 L 38 44 L 39 48 L 38 49 L 30 49 L 28 48 L 27 49 L 7 49 L 5 50 L 5 72 L 4 73 L 0 72 L 0 74 L 4 74 L 5 75 L 5 82 L 4 83 L 0 83 L 0 85 L 9 85 L 11 86 L 11 83 L 8 83 L 6 81 L 6 76 L 8 74 L 11 74 L 11 72 L 8 73 L 6 71 L 6 61 L 7 60 L 6 55 L 8 51 L 27 51 L 28 52 L 30 51 L 38 51 L 39 52 L 39 55 L 41 55 L 41 46 L 42 45 L 41 42 L 42 41 L 44 42 L 46 41 L 48 41 L 49 42 L 52 41 L 53 42 L 52 45 L 54 47 L 54 52 L 53 53 L 53 55 L 55 55 L 55 52 L 56 51 L 64 51 L 65 52 L 67 51 L 86 51 L 88 53 L 88 56 L 87 57 L 87 59 L 88 60 L 88 71 L 86 73 L 83 73 L 83 74 L 87 74 L 88 75 L 88 82 L 87 83 L 84 83 L 83 85 L 93 85 L 94 86 L 96 85 L 97 86 L 97 96 L 96 97 L 93 97 L 92 98 L 83 98 L 84 100 L 86 99 L 88 101 L 88 108 L 87 109 L 84 109 L 84 110 L 86 110 L 88 112 L 88 123 L 87 124 L 88 130 L 86 132 L 82 132 L 81 131 L 79 132 L 67 132 L 66 131 L 64 132 L 56 132 L 55 131 L 55 128 L 53 128 L 54 130 L 54 135 L 52 138 L 50 138 L 47 142 L 44 138 L 42 138 L 41 137 L 41 128 L 39 128 L 39 131 L 38 132 L 31 132 L 30 131 L 28 131 L 27 132 L 15 132 L 14 131 L 12 132 L 8 132 L 6 129 L 7 127 L 7 121 L 6 120 L 7 118 L 7 111 L 8 110 L 11 111 L 11 109 L 8 109 L 7 108 L 7 100 L 8 99 L 11 100 L 11 97 L 9 98 L 2 98 L 0 97 L 0 100 L 2 100 L 3 99 L 5 101 L 5 108 L 4 109 L 0 109 L 0 110 L 4 110 L 5 111 L 5 123 L 4 124 L 5 126 L 5 133 L 11 133 L 12 134 L 16 134 L 17 133 L 26 133 L 27 134 L 31 134 L 33 133 L 34 134 L 36 134 L 37 133 L 39 135 L 38 139 L 40 143 L 43 143 L 44 144 L 46 144 L 47 143 L 48 144 L 50 144 L 55 142 L 55 140 L 56 139 L 55 135 L 57 133 L 62 133 L 65 135 L 68 133 L 70 133 L 71 134 L 79 134 L 80 135 L 89 133 L 89 127 L 90 126 L 90 124 L 89 123 L 89 111 L 90 110 L 93 110 L 94 111 L 97 110 L 99 111 L 99 110 L 97 109 L 90 109 L 89 108 L 89 101 L 91 99 L 95 100 L 99 98 L 99 91 L 100 89 L 99 88 L 99 85 L 97 83 L 92 83 L 91 84 L 89 82 L 89 75 L 90 74 L 90 72 L 89 71 L 89 50 L 87 49 L 67 49 L 66 48 L 64 49 L 56 49 L 55 48 L 55 46 L 56 45 L 55 40 L 51 40 L 50 39 L 48 39 L 47 40 L 46 39 Z M 50 140 L 52 139 L 53 141 L 51 142 Z M 41 140 L 43 139 L 44 141 L 42 142 Z M 56 24 L 56 25 L 58 25 L 59 26 L 63 26 L 65 29 L 70 29 L 72 31 L 77 32 L 81 36 L 83 36 L 85 38 L 85 40 L 89 41 L 98 50 L 99 53 L 103 56 L 103 58 L 106 61 L 108 65 L 107 67 L 109 68 L 110 73 L 113 77 L 113 82 L 114 82 L 113 72 L 108 61 L 102 52 L 86 36 L 80 32 L 68 26 L 66 26 L 62 24 Z M 39 25 L 38 24 L 29 25 L 16 31 L 0 43 L 0 45 L 2 45 L 2 44 L 6 40 L 9 40 L 9 38 L 11 36 L 14 36 L 14 35 L 19 31 L 22 31 L 24 29 L 29 29 L 31 26 L 35 26 L 36 25 L 39 26 Z M 9 2 L 2 9 L 0 9 L 0 20 L 9 20 L 10 21 L 10 25 L 0 31 L 0 32 L 9 27 L 10 25 L 12 25 L 15 23 L 17 23 L 20 21 L 22 21 L 26 19 L 33 18 L 33 17 L 30 17 L 29 18 L 22 19 L 20 17 L 20 14 L 21 13 L 41 13 L 42 14 L 41 16 L 35 16 L 35 17 L 43 17 L 44 16 L 46 16 L 46 15 L 44 14 L 45 13 L 49 13 L 51 17 L 58 17 L 58 16 L 53 16 L 52 15 L 53 13 L 73 13 L 74 14 L 74 18 L 73 19 L 69 19 L 69 20 L 76 22 L 83 26 L 84 26 L 84 22 L 86 20 L 95 20 L 99 24 L 99 34 L 97 35 L 97 36 L 102 41 L 104 40 L 104 39 L 102 39 L 100 37 L 100 28 L 102 27 L 112 37 L 112 39 L 113 40 L 115 40 L 118 43 L 118 53 L 117 54 L 112 54 L 112 56 L 113 57 L 114 57 L 115 55 L 117 55 L 118 56 L 118 61 L 117 62 L 115 59 L 114 59 L 114 60 L 116 63 L 116 65 L 119 72 L 119 75 L 120 75 L 120 72 L 119 71 L 120 66 L 121 65 L 125 65 L 126 66 L 126 85 L 125 86 L 125 88 L 126 89 L 126 94 L 125 95 L 123 95 L 122 94 L 122 89 L 123 88 L 123 86 L 122 84 L 121 84 L 121 99 L 122 99 L 122 97 L 123 96 L 126 98 L 126 117 L 125 118 L 121 118 L 119 116 L 119 111 L 118 111 L 116 119 L 111 129 L 113 129 L 114 128 L 115 129 L 120 130 L 121 129 L 120 127 L 115 128 L 113 126 L 117 120 L 125 119 L 126 120 L 126 126 L 125 128 L 128 130 L 121 137 L 119 136 L 118 140 L 115 143 L 103 143 L 102 142 L 109 134 L 110 131 L 109 131 L 102 141 L 94 148 L 94 149 L 97 147 L 99 148 L 99 159 L 95 163 L 86 163 L 84 161 L 84 157 L 85 156 L 85 155 L 84 155 L 82 157 L 78 158 L 73 161 L 63 163 L 62 164 L 59 164 L 59 165 L 73 164 L 74 165 L 74 167 L 75 167 L 75 165 L 76 164 L 82 164 L 83 165 L 83 167 L 84 167 L 84 165 L 85 164 L 91 164 L 92 165 L 91 167 L 99 167 L 118 148 L 119 148 L 136 130 L 136 53 L 134 50 L 133 50 L 128 45 L 128 44 L 85 2 Z M 83 159 L 83 162 L 82 163 L 77 163 L 76 162 L 78 159 L 80 159 L 81 158 Z M 111 144 L 112 146 L 102 156 L 101 156 L 100 155 L 100 146 L 102 144 Z M 128 119 L 131 121 L 131 126 L 130 127 L 128 127 L 127 126 L 127 120 Z M 128 106 L 131 108 L 131 117 L 130 118 L 128 118 L 127 117 L 127 107 Z M 128 78 L 130 78 L 131 79 L 131 103 L 129 105 L 127 104 L 127 79 Z M 123 55 L 126 57 L 129 55 L 131 57 L 131 62 L 130 63 L 130 65 L 131 66 L 131 75 L 129 77 L 127 76 L 127 66 L 128 65 L 127 60 L 126 60 L 126 62 L 125 63 L 121 63 L 120 62 L 120 57 Z M 120 48 L 121 47 L 128 53 L 127 54 L 121 54 L 120 53 Z M 77 21 L 78 20 L 82 20 L 83 21 L 83 23 L 81 24 Z M 11 22 L 12 20 L 15 20 L 16 21 L 14 23 L 12 23 Z M 75 14 L 76 13 L 82 13 L 83 14 L 83 18 L 82 19 L 76 19 L 75 18 Z M 84 12 L 86 11 L 92 17 L 92 18 L 91 19 L 86 19 L 84 17 Z M 9 11 L 10 12 L 10 18 L 9 19 L 3 19 L 2 17 L 8 11 Z M 75 9 L 76 8 L 82 8 L 83 10 L 81 12 L 77 12 Z M 62 9 L 63 8 L 73 8 L 74 9 L 74 11 L 73 12 L 63 12 L 62 11 Z M 12 8 L 18 8 L 19 9 L 19 11 L 18 12 L 15 12 L 15 13 L 18 13 L 19 14 L 19 18 L 18 19 L 12 19 L 11 18 L 11 14 L 12 13 L 11 9 Z M 20 9 L 21 8 L 31 8 L 33 9 L 38 7 L 40 7 L 41 8 L 50 7 L 51 8 L 60 8 L 61 10 L 59 12 L 35 12 L 34 11 L 32 11 L 31 12 L 22 12 Z" fill="currentColor" fill-rule="evenodd" clip-rule="evenodd"/>
</svg>