<svg xmlns="http://www.w3.org/2000/svg" viewBox="0 0 89 162" fill="none">
  <path d="M 85 5 L 76 4 L 75 3 L 70 3 L 69 2 L 62 2 L 61 3 L 61 5 L 60 6 L 59 11 L 57 14 L 55 22 L 53 25 L 52 30 L 50 33 L 49 38 L 47 41 L 47 43 L 44 49 L 41 60 L 38 66 L 38 71 L 43 77 L 42 82 L 40 84 L 36 85 L 34 92 L 25 100 L 24 103 L 22 105 L 21 110 L 17 117 L 17 119 L 9 134 L 9 136 L 5 143 L 5 145 L 3 149 L 0 151 L 0 153 L 2 154 L 3 157 L 6 161 L 11 161 L 9 160 L 9 155 L 10 154 L 12 146 L 15 141 L 18 131 L 27 114 L 34 105 L 38 103 L 41 103 L 44 107 L 43 119 L 42 120 L 42 123 L 41 124 L 39 132 L 36 137 L 36 139 L 30 151 L 30 153 L 26 160 L 26 161 L 29 161 L 31 157 L 31 155 L 36 146 L 36 144 L 42 131 L 43 126 L 49 113 L 49 110 L 50 109 L 50 99 L 53 92 L 53 88 L 50 84 L 53 80 L 60 78 L 62 75 L 62 73 L 67 62 L 69 54 L 74 43 L 76 35 L 81 24 L 83 16 L 85 13 L 85 10 L 86 9 L 86 6 Z M 11 138 L 12 139 L 12 141 L 9 147 L 8 152 L 6 155 L 4 152 Z M 13 134 L 14 136 L 12 139 L 11 138 L 11 136 Z M 27 104 L 29 107 L 21 119 L 20 118 L 21 114 L 23 112 L 23 110 Z M 44 102 L 46 101 L 48 104 L 46 105 Z M 29 102 L 30 98 L 33 96 L 35 96 L 40 100 L 33 104 L 31 104 Z M 37 94 L 39 93 L 43 95 L 48 95 L 49 96 L 47 99 L 42 99 L 40 98 Z M 49 79 L 49 77 L 51 76 L 52 78 L 50 80 Z M 81 12 L 82 14 L 80 17 L 78 25 L 76 28 L 76 30 L 73 36 L 70 47 L 66 55 L 66 58 L 63 63 L 63 65 L 59 75 L 58 76 L 56 76 L 55 75 L 51 75 L 50 74 L 44 73 L 42 70 L 43 69 L 44 64 L 46 61 L 53 38 L 55 35 L 55 33 L 63 11 L 64 10 L 70 10 L 71 11 Z M 64 5 L 65 4 L 79 5 L 80 6 L 82 6 L 83 7 L 83 9 L 81 11 L 79 10 L 68 9 L 67 8 L 65 8 L 64 7 Z" fill="currentColor" fill-rule="evenodd" clip-rule="evenodd"/>
</svg>