<svg xmlns="http://www.w3.org/2000/svg" viewBox="0 0 122 123" fill="none">
  <path d="M 68 104 L 68 108 L 70 108 L 70 105 Z M 80 97 L 81 100 L 84 102 L 83 98 L 82 97 Z M 40 96 L 38 96 L 37 97 L 37 101 L 39 100 Z M 104 35 L 100 37 L 99 39 L 101 39 L 104 37 Z M 94 20 L 92 20 L 91 24 L 93 23 Z M 77 11 L 75 11 L 75 15 L 76 15 Z M 62 7 L 60 7 L 60 13 L 62 12 Z M 56 2 L 55 3 L 45 4 L 31 10 L 24 15 L 17 22 L 12 29 L 4 46 L 3 54 L 2 55 L 2 70 L 3 71 L 3 76 L 4 77 L 6 85 L 9 89 L 10 92 L 14 98 L 27 110 L 39 116 L 41 116 L 45 118 L 48 118 L 49 119 L 53 119 L 54 120 L 69 120 L 70 119 L 79 118 L 93 112 L 99 108 L 107 100 L 113 91 L 117 81 L 118 72 L 119 71 L 119 61 L 118 60 L 118 52 L 117 51 L 117 47 L 116 46 L 116 43 L 115 42 L 114 37 L 109 27 L 98 15 L 91 10 L 77 4 L 73 4 L 72 3 L 68 3 L 67 2 Z M 80 113 L 82 112 L 83 114 L 81 115 Z M 96 104 L 97 106 L 94 109 L 93 108 L 93 106 Z M 56 3 L 72 4 L 73 5 L 81 7 L 89 11 L 96 16 L 102 22 L 109 32 L 114 44 L 115 53 L 116 54 L 116 62 L 115 63 L 114 73 L 113 74 L 111 82 L 109 84 L 104 93 L 95 102 L 88 107 L 82 110 L 80 110 L 73 113 L 68 113 L 67 114 L 55 114 L 54 113 L 49 113 L 48 112 L 40 110 L 27 102 L 18 93 L 12 84 L 11 80 L 9 77 L 9 74 L 7 69 L 7 63 L 6 62 L 6 55 L 7 54 L 8 44 L 14 30 L 19 23 L 26 16 L 33 11 L 41 7 L 43 7 L 47 5 L 50 5 L 51 4 L 55 4 Z" fill="currentColor" fill-rule="evenodd" clip-rule="evenodd"/>
</svg>